SplineFontDB: 3.2
FontName: DroidSans-Oblique
FullName: Droid Sans Oblique
FamilyName: Droid Sans
Weight: Book
Copyright: Digitized data copyright (c) 2007, Google Corporation.\nCopyright (c) 2020 Timur I. Davletshin.
Version: 1.1
ItalicAngle: -10
UnderlinePosition: -205
UnderlineWidth: 102
Ascent: 1638
Descent: 410
InvalidEm: 0
sfntRevision: 0x00010000
LayerCount: 2
Layer: 0 1 "Back" 1
Layer: 1 1 "Fore" 0
XUID: [1021 174 1367136929 3363205]
StyleMap: 0x0040
FSType: 8
OS2Version: 3
OS2_WeightWidthSlopeOnly: 0
OS2_UseTypoMetrics: 0
CreationTime: 1165263488
ModificationTime: 1607581491
PfmFamily: 17
TTFWeight: 400
TTFWidth: 5
LineGap: 0
VLineGap: 0
Panose: 2 11 6 6 3 8 4 2 2 4
OS2TypoAscent: 1567
OS2TypoAOffset: 0
OS2TypoDescent: -492
OS2TypoDOffset: 0
OS2TypoLinegap: 132
OS2WinAscent: 1901
OS2WinAOffset: 0
OS2WinDescent: 483
OS2WinDOffset: 0
HheadAscent: 1901
HheadAOffset: 0
HheadDescent: -483
HheadDOffset: 0
OS2SubXSize: 1434
OS2SubYSize: 1331
OS2SubXOff: 0
OS2SubYOff: 286
OS2SupXSize: 1434
OS2SupYSize: 1331
OS2SupXOff: 0
OS2SupYOff: 976
OS2StrikeYSize: 102
OS2StrikeYPos: 498
OS2CapHeight: 1462
OS2XHeight: 1098
OS2Vendor: '1ASC'
OS2CodePages: 2000019f.00000000
OS2UnicodeRanges: e00002ef.4000205b.00000028.00000000
Lookup: 1 0 0 "Single Substitution lookup 0" { "Single Substitution lookup 0 subtable"  } []
Lookup: 6 0 0 "'ccmp' Glyph Composition/Decomposition lookup 1" { "'ccmp' Glyph Composition/Decomposition lookup 1 subtable"  } ['ccmp' ('DFLT' <'dflt' > 'cyrl' <'dflt' > 'grek' <'dflt' > 'latn' <'dflt' > ) ]
Lookup: 4 0 1 "'liga' Standard Ligatures in Latin lookup 2" { "'liga' Standard Ligatures in Latin lookup 2 subtable"  } ['liga' ('DFLT' <'dflt' > 'latn' <'dflt' > ) ]
Lookup: 260 0 0 "'mark' Mark Positioning in Latin lookup 0" { "'mark' Mark Positioning in Latin lookup 0"  } ['mark' ('DFLT' <'dflt' > 'cyrl' <'dflt' > 'grek' <'dflt' > 'latn' <'dflt' > ) ]

StartChar: .notdef
Encoding: 65536 -1 0
Width: 1229
GlyphClass: 2
Flags: MW
LayerCount: 2
Fore
SplineSet
451 1462 m 1,0,-1
 1292 1462 l 1,1,-1
 1034 0 l 1,2,-1
 193 0 l 1,3,-1
 451 1462 l 1,0,-1
315 104 m 1,4,-1
 948 104 l 1,5,-1
 1169 1358 l 1,6,-1
 536 1358 l 1,7,-1
 315 104 l 1,4,-1
EndSplineSet
EndChar

StartChar: exclam
Encoding: 33 33 4
Width: 551
GlyphClass: 2
Flags: MW
LayerCount: 2
Fore
SplineSet
409 414 m 1,0,-1
 288 414 l 1,1,-1
 422 1462 l 1,2,-1
 645 1462 l 1,3,-1
 409 414 l 1,0,-1
167 111 m 0,4,5
 174 149 174 149 188.5 175.5 c 128,-1,6
 203 202 203 202 222.5 218.5 c 128,-1,7
 242 235 242 235 266.5 242.5 c 128,-1,8
 291 250 291 250 318 250 c 0,9,10
 344 250 344 250 366 242.5 c 128,-1,11
 388 235 388 235 402.5 218.5 c 128,-1,12
 417 202 417 202 422 175.5 c 128,-1,13
 427 149 427 149 421 111 c 0,14,15
 414 74 414 74 399.5 47.5 c 128,-1,16
 385 21 385 21 365 4 c 128,-1,17
 345 -13 345 -13 320 -21 c 128,-1,18
 295 -29 295 -29 269 -29 c 0,19,20
 242 -29 242 -29 220.5 -21 c 128,-1,21
 199 -13 199 -13 185 4 c 128,-1,22
 171 21 171 21 165.5 47.5 c 128,-1,23
 160 74 160 74 167 111 c 0,4,5
EndSplineSet
EndChar

StartChar: quotedbl
Encoding: 34 34 5
Width: 823
GlyphClass: 2
Flags: MW
LayerCount: 2
Fore
SplineSet
588 1462 m 1,0,-1
 454 934 l 1,1,-1
 339 934 l 1,2,-1
 391 1462 l 1,3,-1
 588 1462 l 1,0,-1
948 1462 m 1,4,-1
 814 934 l 1,5,-1
 700 934 l 1,6,-1
 752 1462 l 1,7,-1
 948 1462 l 1,4,-1
EndSplineSet
EndChar

StartChar: numbersign
Encoding: 35 35 6
Width: 1323
GlyphClass: 2
Flags: MW
LayerCount: 2
Fore
SplineSet
1140 893 m 1,0,-1
 1020 565 l 1,1,-1
 1300 565 l 1,2,-1
 1275 428 l 1,3,-1
 968 428 l 1,4,-1
 811 0 l 1,5,-1
 664 0 l 1,6,-1
 823 428 l 1,7,-1
 532 428 l 1,8,-1
 375 0 l 1,9,-1
 231 0 l 1,10,-1
 384 428 l 1,11,-1
 126 428 l 1,12,-1
 151 565 l 1,13,-1
 436 565 l 1,14,-1
 558 893 l 1,15,-1
 284 893 l 1,16,-1
 309 1030 l 1,17,-1
 608 1030 l 1,18,-1
 766 1462 l 1,19,-1
 913 1462 l 1,20,-1
 755 1030 l 1,21,-1
 1048 1030 l 1,22,-1
 1208 1462 l 1,23,-1
 1352 1462 l 1,24,-1
 1192 1030 l 1,25,-1
 1454 1030 l 1,26,-1
 1429 893 l 1,27,-1
 1140 893 l 1,0,-1
583 565 m 1,28,-1
 874 565 l 1,29,-1
 995 893 l 1,30,-1
 704 893 l 1,31,-1
 583 565 l 1,28,-1
EndSplineSet
EndChar

StartChar: dollar
Encoding: 36 36 7
Width: 1128
GlyphClass: 2
Flags: MW
LayerCount: 2
Fore
SplineSet
1064 446 m 0,0,1
 1052 376 1052 376 1016.5 319 c 128,-1,2
 981 262 981 262 927 220 c 128,-1,3
 873 178 873 178 802 150.5 c 128,-1,4
 731 123 731 123 645 111 c 1,5,-1
 604 -119 l 1,6,-1
 466 -119 l 1,7,-1
 505 102 l 1,8,9
 455 102 455 102 405 106.5 c 128,-1,10
 355 111 355 111 308.5 120 c 128,-1,11
 262 129 262 129 222 142 c 128,-1,12
 182 155 182 155 153 172 c 1,13,-1
 184 344 l 1,14,15
 214 328 214 328 254.5 311.5 c 128,-1,16
 295 295 295 295 340.5 282 c 128,-1,17
 386 269 386 269 435 260.5 c 128,-1,18
 484 252 484 252 531 252 c 1,19,-1
 608 686 l 1,20,21
 524 716 524 716 464.5 749 c 128,-1,22
 405 782 405 782 369.5 824.5 c 128,-1,23
 334 867 334 867 322.5 922 c 128,-1,24
 311 977 311 977 324 1051 c 0,25,26
 336 1118 336 1118 370.5 1173.5 c 128,-1,27
 405 1229 405 1229 457.5 1270.5 c 128,-1,28
 510 1312 510 1312 579.5 1338.5 c 128,-1,29
 649 1365 649 1365 729 1374 c 1,30,-1
 761 1554 l 1,31,-1
 899 1554 l 1,32,-1
 868 1378 l 1,33,34
 967 1373 967 1373 1048 1352 c 128,-1,35
 1129 1331 1129 1331 1190 1300 c 1,36,-1
 1099 1155 l 1,37,38
 1047 1180 1047 1180 980.5 1200.5 c 128,-1,39
 914 1221 914 1221 841 1227 c 1,40,-1
 767 805 l 1,41,42
 850 774 850 774 911.5 741 c 128,-1,43
 973 708 973 708 1011 666.5 c 128,-1,44
 1049 625 1049 625 1063 571.5 c 128,-1,45
 1077 518 1077 518 1064 446 c 0,0,1
888 446 m 0,46,47
 894 479 894 479 888.5 506.5 c 128,-1,48
 883 534 883 534 865.5 556.5 c 128,-1,49
 848 579 848 579 816.5 598 c 128,-1,50
 785 617 785 617 737 635 c 1,51,-1
 671 262 l 1,52,53
 766 276 766 276 820.5 325 c 128,-1,54
 875 374 875 374 888 446 c 0,46,47
500 1049 m 0,55,56
 494 1013 494 1013 497.5 984.5 c 128,-1,57
 501 956 501 956 516.5 932.5 c 128,-1,58
 532 909 532 909 562 890 c 128,-1,59
 592 871 592 871 638 854 c 1,60,-1
 703 1223 l 1,61,62
 611 1207 611 1207 561.5 1162.5 c 128,-1,63
 512 1118 512 1118 500 1049 c 0,55,56
EndSplineSet
EndChar

StartChar: percent
Encoding: 37 37 8
Width: 1690
GlyphClass: 2
Flags: MW
LayerCount: 2
Fore
SplineSet
431 1026 m 256,0,1
 402 861 402 861 423 778.5 c 128,-1,2
 444 696 444 696 524 696 c 0,3,4
 680 696 680 696 738 1026 c 0,5,6
 796 1354 796 1354 640 1354 c 0,7,8
 560 1354 560 1354 510 1272.5 c 128,-1,9
 460 1191 460 1191 431 1026 c 256,0,1
886 1026 m 256,10,11
 867 918 867 918 834 832 c 128,-1,12
 801 746 801 746 753.5 687 c 128,-1,13
 706 628 706 628 643 596.5 c 128,-1,14
 580 565 580 565 501 565 c 0,15,16
 428 565 428 565 377.5 596.5 c 128,-1,17
 327 628 327 628 299.5 687 c 128,-1,18
 272 746 272 746 268 832 c 128,-1,19
 264 918 264 918 283 1026 c 256,20,21
 302 1134 302 1134 334.5 1219 c 128,-1,22
 367 1304 367 1304 414 1362.5 c 128,-1,23
 461 1421 461 1421 522.5 1452 c 128,-1,24
 584 1483 584 1483 662 1483 c 0,25,26
 737 1483 737 1483 788.5 1452 c 128,-1,27
 840 1421 840 1421 868 1362.5 c 128,-1,28
 896 1304 896 1304 900.5 1219 c 128,-1,29
 905 1134 905 1134 886 1026 c 256,10,11
1211 440 m 256,30,31
 1182 275 1182 275 1203 193 c 128,-1,32
 1224 111 1224 111 1304 111 c 0,33,34
 1460 111 1460 111 1518 440 c 0,35,36
 1576 768 1576 768 1419 768 c 0,37,38
 1339 768 1339 768 1289.5 686.5 c 128,-1,39
 1240 605 1240 605 1211 440 c 256,30,31
1665 440 m 256,40,41
 1646 332 1646 332 1613 246.5 c 128,-1,42
 1580 161 1580 161 1533 102 c 128,-1,43
 1486 43 1486 43 1422.5 11.5 c 128,-1,44
 1359 -20 1359 -20 1280 -20 c 0,45,46
 1206 -20 1206 -20 1156 11.5 c 128,-1,47
 1106 43 1106 43 1078.5 102 c 128,-1,48
 1051 161 1051 161 1047.5 246.5 c 128,-1,49
 1044 332 1044 332 1063 440 c 256,50,51
 1082 548 1082 548 1114.5 633 c 128,-1,52
 1147 718 1147 718 1193.5 776.5 c 128,-1,53
 1240 835 1240 835 1302 866 c 128,-1,54
 1364 897 1364 897 1442 897 c 0,55,56
 1517 897 1517 897 1568 866 c 128,-1,57
 1619 835 1619 835 1647 776.5 c 128,-1,58
 1675 718 1675 718 1679.5 633 c 128,-1,59
 1684 548 1684 548 1665 440 c 256,40,41
1589 1462 m 1,60,-1
 520 0 l 1,61,-1
 362 0 l 1,62,-1
 1432 1462 l 1,63,-1
 1589 1462 l 1,60,-1
EndSplineSet
EndChar

StartChar: ampersand
Encoding: 38 38 9
Width: 1438
GlyphClass: 2
Flags: MW
LayerCount: 2
Fore
SplineSet
627 1165 m 0,0,1
 621 1131 621 1131 623.5 1098.5 c 128,-1,2
 626 1066 626 1066 637 1033.5 c 128,-1,3
 648 1001 648 1001 668 967.5 c 128,-1,4
 688 934 688 934 717 897 c 1,5,6
 782 932 782 932 830.5 963 c 128,-1,7
 879 994 879 994 913 1026 c 128,-1,8
 947 1058 947 1058 967 1093 c 128,-1,9
 987 1128 987 1128 994 1169 c 0,10,11
 1000 1205 1000 1205 993 1235.5 c 128,-1,12
 986 1266 986 1266 966.5 1288 c 128,-1,13
 947 1310 947 1310 916 1322.5 c 128,-1,14
 885 1335 885 1335 843 1335 c 0,15,16
 757 1335 757 1335 699 1290.5 c 128,-1,17
 641 1246 641 1246 627 1165 c 0,0,1
582 141 m 0,18,19
 640 141 640 141 691 152.5 c 128,-1,20
 742 164 742 164 787.5 184 c 128,-1,21
 833 204 833 204 873.5 231 c 128,-1,22
 914 258 914 258 952 289 c 1,23,-1
 637 696 l 1,24,25
 579 663 579 663 533.5 631.5 c 128,-1,26
 488 600 488 600 454 564 c 128,-1,27
 420 528 420 528 398.5 485.5 c 128,-1,28
 377 443 377 443 367 387 c 0,29,30
 357 333 357 333 367 287.5 c 128,-1,31
 377 242 377 242 404 209.5 c 128,-1,32
 431 177 431 177 476 159 c 128,-1,33
 521 141 521 141 582 141 c 0,18,19
176 381 m 0,34,35
 190 459 190 459 220.5 520 c 128,-1,36
 251 581 251 581 298.5 631 c 128,-1,37
 346 681 346 681 409 724 c 128,-1,38
 472 767 472 767 551 809 c 1,39,40
 526 845 526 845 503 883.5 c 128,-1,41
 480 922 480 922 465 965.5 c 128,-1,42
 450 1009 450 1009 444.5 1058.5 c 128,-1,43
 439 1108 439 1108 449 1165 c 0,44,45
 462 1240 462 1240 498 1299.5 c 128,-1,46
 534 1359 534 1359 588 1400.5 c 128,-1,47
 642 1442 642 1442 715 1463.5 c 128,-1,48
 788 1485 788 1485 876 1485 c 0,49,50
 959 1485 959 1485 1020.5 1463.5 c 128,-1,51
 1082 1442 1082 1442 1120.5 1400.5 c 128,-1,52
 1159 1359 1159 1359 1172.5 1299.5 c 128,-1,53
 1186 1240 1186 1240 1172 1165 c 0,54,55
 1161 1101 1161 1101 1126.5 1046.5 c 128,-1,56
 1092 992 1092 992 1042 945.5 c 128,-1,57
 992 899 992 899 930.5 859.5 c 128,-1,58
 869 820 869 820 802 784 c 1,59,-1
 1089 412 l 1,60,61
 1121 441 1121 441 1147.5 471 c 128,-1,62
 1174 501 1174 501 1197 535 c 128,-1,63
 1220 569 1220 569 1240.5 608 c 128,-1,64
 1261 647 1261 647 1279 694 c 1,65,-1
 1463 694 l 1,66,67
 1436 628 1436 628 1406 572.5 c 128,-1,68
 1376 517 1376 517 1341 468 c 128,-1,69
 1306 419 1306 419 1266 376.5 c 128,-1,70
 1226 334 1226 334 1180 293 c 1,71,-1
 1405 0 l 1,72,-1
 1180 0 l 1,73,-1
 1042 172 l 1,74,75
 985 127 985 127 931 91.5 c 128,-1,76
 877 56 877 56 818.5 31.5 c 128,-1,77
 760 7 760 7 695.5 -6.5 c 128,-1,78
 631 -20 631 -20 553 -20 c 0,79,80
 448 -20 448 -20 369.5 6.5 c 128,-1,81
 291 33 291 33 242.5 84.5 c 128,-1,82
 194 136 194 136 176.5 210.5 c 128,-1,83
 159 285 159 285 176 381 c 0,34,35
EndSplineSet
EndChar

StartChar: quotesingle
Encoding: 39 39 10
Width: 463
GlyphClass: 2
Flags: MW
LayerCount: 2
Fore
SplineSet
588 1462 m 1,0,-1
 454 934 l 1,1,-1
 339 934 l 1,2,-1
 391 1462 l 1,3,-1
 588 1462 l 1,0,-1
EndSplineSet
EndChar

StartChar: parenleft
Encoding: 40 40 11
Width: 616
GlyphClass: 2
Flags: MW
LayerCount: 2
Fore
SplineSet
181 561 m 0,0,1
 203 686 203 686 242.5 807.5 c 128,-1,2
 282 929 282 929 339 1043.5 c 128,-1,3
 396 1158 396 1158 471 1263.5 c 128,-1,4
 546 1369 546 1369 641 1462 c 1,5,-1
 813 1462 l 1,6,7
 639 1269 639 1269 525.5 1038 c 128,-1,8
 412 807 412 807 369 563 c 0,9,10
 348 444 348 444 346 326 c 128,-1,11
 344 208 344 208 359.5 95 c 128,-1,12
 375 -18 375 -18 409 -124 c 128,-1,13
 443 -230 443 -230 496 -324 c 1,14,-1
 326 -324 l 1,15,16
 264 -234 264 -234 225.5 -131 c 128,-1,17
 187 -28 187 -28 170 84.5 c 128,-1,18
 153 197 153 197 156 317 c 128,-1,19
 159 437 159 437 181 561 c 0,0,1
EndSplineSet
EndChar

StartChar: parenright
Encoding: 41 41 12
Width: 616
GlyphClass: 2
Flags: MW
LayerCount: 2
Fore
SplineSet
634 561 m 0,0,1
 612 437 612 437 573 317 c 128,-1,2
 534 197 534 197 476.5 84.5 c 128,-1,3
 419 -28 419 -28 344.5 -131 c 128,-1,4
 270 -234 270 -234 176 -324 c 1,5,-1
 6 -324 l 1,6,7
 92 -230 92 -230 163.5 -124 c 128,-1,8
 235 -18 235 -18 291 95 c 128,-1,9
 347 208 347 208 385.5 326 c 128,-1,10
 424 444 424 444 445 563 c 0,11,12
 488 807 488 807 457 1038 c 128,-1,13
 426 1269 426 1269 319 1462 c 1,14,-1
 491 1462 l 1,15,16
 553 1369 553 1369 590.5 1263.5 c 128,-1,17
 628 1158 628 1158 645.5 1043.5 c 128,-1,18
 663 929 663 929 659.5 807.5 c 128,-1,19
 656 686 656 686 634 561 c 0,0,1
EndSplineSet
EndChar

StartChar: asterisk
Encoding: 42 42 13
Width: 1128
GlyphClass: 2
Flags: MW
LayerCount: 2
Fore
SplineSet
938 1556 m 1,0,-1
 826 1163 l 1,1,-1
 1243 1274 l 1,2,-1
 1235 1081 l 1,3,-1
 852 1053 l 1,4,-1
 1039 727 l 1,5,-1
 844 631 l 1,6,-1
 731 989 l 1,7,-1
 510 631 l 1,8,-1
 343 727 l 1,9,-1
 643 1053 l 1,10,-1
 273 1081 l 1,11,-1
 336 1274 l 1,12,-1
 707 1163 l 1,13,-1
 733 1556 l 1,14,-1
 938 1556 l 1,0,-1
EndSplineSet
EndChar

StartChar: plus
Encoding: 43 43 14
Width: 1128
GlyphClass: 2
Flags: MW
LayerCount: 2
Fore
SplineSet
603 647 m 1,0,-1
 216 647 l 1,1,-1
 243 797 l 1,2,-1
 630 797 l 1,3,-1
 698 1186 l 1,4,-1
 848 1186 l 1,5,-1
 780 797 l 1,6,-1
 1167 797 l 1,7,-1
 1140 647 l 1,8,-1
 753 647 l 1,9,-1
 685 262 l 1,10,-1
 535 262 l 1,11,-1
 603 647 l 1,0,-1
EndSplineSet
EndChar

StartChar: comma
Encoding: 44 44 15
Width: 512
GlyphClass: 2
Flags: MW
LayerCount: 2
Fore
SplineSet
404 238 m 1,0,-1
 415 215 l 1,1,2
 391 161 391 161 361 100 c 128,-1,3
 331 39 331 39 296.5 -23 c 128,-1,4
 262 -85 262 -85 225.5 -146.5 c 128,-1,5
 189 -208 189 -208 154 -264 c 1,6,-1
 16 -264 l 1,7,8
 42 -203 42 -203 68 -137 c 128,-1,9
 94 -71 94 -71 119.5 -5.5 c 128,-1,10
 145 60 145 60 167 122.5 c 128,-1,11
 189 185 189 185 206 238 c 1,12,-1
 404 238 l 1,0,-1
EndSplineSet
EndChar

StartChar: hyphen
Encoding: 45 45 16
Width: 659
GlyphClass: 2
Flags: MW
LayerCount: 2
Fore
SplineSet
164 465 m 1,0,-1
 194 633 l 1,1,-1
 690 633 l 1,2,-1
 660 465 l 1,3,-1
 164 465 l 1,0,-1
EndSplineSet
EndChar

StartChar: period
Encoding: 46 46 17
Width: 549
GlyphClass: 2
Flags: MW
LayerCount: 2
Fore
SplineSet
167 111 m 0,0,1
 174 149 174 149 188.5 175.5 c 128,-1,2
 203 202 203 202 222.5 218.5 c 128,-1,3
 242 235 242 235 266.5 242.5 c 128,-1,4
 291 250 291 250 318 250 c 0,5,6
 344 250 344 250 366 242.5 c 128,-1,7
 388 235 388 235 402.5 218.5 c 128,-1,8
 417 202 417 202 422 175.5 c 128,-1,9
 427 149 427 149 421 111 c 0,10,11
 414 74 414 74 399.5 47.5 c 128,-1,12
 385 21 385 21 365 4 c 128,-1,13
 345 -13 345 -13 320 -21 c 128,-1,14
 295 -29 295 -29 269 -29 c 0,15,16
 242 -29 242 -29 220.5 -21 c 128,-1,17
 199 -13 199 -13 185 4 c 128,-1,18
 171 21 171 21 165.5 47.5 c 128,-1,19
 160 74 160 74 167 111 c 0,0,1
EndSplineSet
EndChar

StartChar: slash
Encoding: 47 47 18
Width: 764
GlyphClass: 2
Flags: MW
LayerCount: 2
Fore
SplineSet
1001 1462 m 1,0,-1
 199 0 l 1,1,-1
 20 0 l 1,2,-1
 823 1462 l 1,3,-1
 1001 1462 l 1,0,-1
EndSplineSet
EndChar

StartChar: zero
Encoding: 48 48 19
Width: 1128
GlyphClass: 2
Flags: MW
LayerCount: 2
Fore
SplineSet
1161 733 m 0,0,1
 1130 556 1130 556 1080 416 c 128,-1,2
 1030 276 1030 276 956 179 c 128,-1,3
 882 82 882 82 784 31 c 128,-1,4
 686 -20 686 -20 559 -20 c 0,5,6
 441 -20 441 -20 362.5 31 c 128,-1,7
 284 82 284 82 244 179 c 128,-1,8
 204 276 204 276 200 416 c 128,-1,9
 196 556 196 556 227 733 c 256,10,11
 258 910 258 910 308.5 1050 c 128,-1,12
 359 1190 359 1190 431.5 1286.5 c 128,-1,13
 504 1383 504 1383 601.5 1434 c 128,-1,14
 699 1485 699 1485 825 1485 c 0,15,16
 944 1485 944 1485 1023 1434.5 c 128,-1,17
 1102 1384 1102 1384 1143 1287.5 c 128,-1,18
 1184 1191 1184 1191 1188 1051 c 128,-1,19
 1192 911 1192 911 1161 733 c 0,0,1
412 733 m 256,20,21
 386 583 386 583 381 471 c 128,-1,22
 376 359 376 359 396 284.5 c 128,-1,23
 416 210 416 210 463 172.5 c 128,-1,24
 510 135 510 135 587 135 c 256,25,26
 664 135 664 135 724.5 172 c 128,-1,27
 785 209 785 209 832.5 283 c 128,-1,28
 880 357 880 357 915.5 469.5 c 128,-1,29
 951 582 951 582 977 733 c 0,30,31
 1003 883 1003 883 1007.5 995 c 128,-1,32
 1012 1107 1012 1107 990.5 1181 c 128,-1,33
 969 1255 969 1255 921.5 1292 c 128,-1,34
 874 1329 874 1329 797 1329 c 256,35,36
 720 1329 720 1329 660 1292 c 128,-1,37
 600 1255 600 1255 554 1181 c 128,-1,38
 508 1107 508 1107 473 995 c 128,-1,39
 438 883 438 883 412 733 c 256,20,21
EndSplineSet
EndChar

StartChar: one
Encoding: 49 49 20
Width: 1128
GlyphClass: 2
Flags: MW
LayerCount: 2
Fore
SplineSet
711 0 m 1,0,-1
 535 0 l 1,1,-1
 696 913 l 2,2,3
 704 956 704 956 713 1005 c 128,-1,4
 722 1054 722 1054 732 1102.5 c 128,-1,5
 742 1151 742 1151 751.5 1195.5 c 128,-1,6
 761 1240 761 1240 768 1274 c 1,7,8
 748 1256 748 1256 732.5 1243 c 128,-1,9
 717 1230 717 1230 701.5 1218 c 128,-1,10
 686 1206 686 1206 668.5 1192.5 c 128,-1,11
 651 1179 651 1179 627 1161 c 2,12,-1
 457 1040 l 1,13,-1
 383 1163 l 1,14,-1
 819 1462 l 1,15,-1
 969 1462 l 1,16,-1
 711 0 l 1,0,-1
EndSplineSet
EndChar

StartChar: two
Encoding: 50 50 21
Width: 1128
GlyphClass: 2
Flags: MW
LayerCount: 2
Fore
SplineSet
1008 0 m 1,0,-1
 96 0 l 1,1,-1
 124 156 l 1,2,-1
 541 537 l 2,3,4
 630 618 630 618 701 685 c 128,-1,5
 772 752 772 752 824.5 816 c 128,-1,6
 877 880 877 880 910.5 944.5 c 128,-1,7
 944 1009 944 1009 957 1085 c 0,8,9
 967 1144 967 1144 958.5 1189 c 128,-1,10
 950 1234 950 1234 924 1265.5 c 128,-1,11
 898 1297 898 1297 857.5 1313 c 128,-1,12
 817 1329 817 1329 764 1329 c 0,13,14
 669 1329 669 1329 586 1290.5 c 128,-1,15
 503 1252 503 1252 423 1192 c 1,16,-1
 342 1311 l 1,17,18
 388 1347 388 1347 440 1378.5 c 128,-1,19
 492 1410 492 1410 549 1433 c 128,-1,20
 606 1456 606 1456 667 1469.5 c 128,-1,21
 728 1483 728 1483 793 1483 c 0,22,23
 889 1483 889 1483 962 1456 c 128,-1,24
 1035 1429 1035 1429 1080 1378.5 c 128,-1,25
 1125 1328 1125 1328 1142 1255.5 c 128,-1,26
 1159 1183 1159 1183 1143 1092 c 0,27,28
 1128 1007 1128 1007 1087.5 930 c 128,-1,29
 1047 853 1047 853 987.5 778.5 c 128,-1,30
 928 704 928 704 850.5 629 c 128,-1,31
 773 554 773 554 683 473 c 2,32,-1
 350 174 l 1,33,-1
 348 166 l 1,34,-1
 1037 166 l 1,35,-1
 1008 0 l 1,0,-1
EndSplineSet
EndChar

StartChar: three
Encoding: 51 51 22
Width: 1128
GlyphClass: 2
Flags: MW
LayerCount: 2
Fore
SplineSet
1158 1120 m 0,0,1
 1145 1047 1145 1047 1111.5 987 c 128,-1,2
 1078 927 1078 927 1029 883 c 128,-1,3
 980 839 980 839 917 810.5 c 128,-1,4
 854 782 854 782 781 770 c 1,5,-1
 780 764 l 1,6,7
 953 742 953 742 1029 651.5 c 128,-1,8
 1105 561 1105 561 1079 416 c 0,9,10
 1062 320 1062 320 1015.5 240 c 128,-1,11
 969 160 969 160 893 102 c 128,-1,12
 817 44 817 44 710 12 c 128,-1,13
 603 -20 603 -20 465 -20 c 0,14,15
 356 -20 356 -20 262.5 -3 c 128,-1,16
 169 14 169 14 92 59 c 1,17,-1
 122 229 l 1,18,19
 201 183 201 183 298 158 c 128,-1,20
 395 133 395 133 488 133 c 0,21,22
 580 133 580 133 651 153 c 128,-1,23
 722 173 722 173 772 210 c 128,-1,24
 822 247 822 247 852 301 c 128,-1,25
 882 355 882 355 893 422 c 0,26,27
 905 490 905 490 887.5 538.5 c 128,-1,28
 870 587 870 587 826.5 618.5 c 128,-1,29
 783 650 783 650 715 665 c 128,-1,30
 647 680 647 680 558 680 c 2,31,-1
 425 680 l 1,32,-1
 452 831 l 1,33,-1
 585 831 l 2,34,35
 666 831 666 831 732.5 851 c 128,-1,36
 799 871 799 871 848 908 c 128,-1,37
 897 945 897 945 928 996 c 128,-1,38
 959 1047 959 1047 969 1108 c 0,39,40
 978 1160 978 1160 967.5 1201 c 128,-1,41
 957 1242 957 1242 929 1270.5 c 128,-1,42
 901 1299 901 1299 857.5 1314 c 128,-1,43
 814 1329 814 1329 758 1329 c 0,44,45
 651 1329 651 1329 564 1295.5 c 128,-1,46
 477 1262 477 1262 393 1208 c 1,47,-1
 323 1333 l 1,48,49
 366 1364 366 1364 417.5 1391 c 128,-1,50
 469 1418 469 1418 527.5 1438.5 c 128,-1,51
 586 1459 586 1459 650.5 1471 c 128,-1,52
 715 1483 715 1483 785 1483 c 0,53,54
 893 1483 893 1483 970 1456 c 128,-1,55
 1047 1429 1047 1429 1093.5 1380.5 c 128,-1,56
 1140 1332 1140 1332 1156 1265.5 c 128,-1,57
 1172 1199 1172 1199 1158 1120 c 0,0,1
EndSplineSet
EndChar

StartChar: four
Encoding: 52 52 23
Width: 1128
GlyphClass: 2
Flags: MW
LayerCount: 2
Fore
SplineSet
1145 328 m 1,0,-1
 932 328 l 1,1,-1
 874 0 l 1,2,-1
 698 0 l 1,3,-1
 756 328 l 1,4,-1
 81 328 l 1,5,-1
 109 487 l 1,6,-1
 945 1470 l 1,7,-1
 1133 1470 l 1,8,-1
 961 494 l 1,9,-1
 1174 494 l 1,10,-1
 1145 328 l 1,0,-1
785 494 m 1,11,-1
 848 850 l 2,12,13
 858 906 858 906 870 967.5 c 128,-1,14
 882 1029 882 1029 894.5 1087.5 c 128,-1,15
 907 1146 907 1146 918.5 1197 c 128,-1,16
 930 1248 930 1248 937 1282 c 1,17,-1
 928 1282 l 1,18,19
 917 1262 917 1262 902.5 1237.5 c 128,-1,20
 888 1213 888 1213 871 1188.5 c 128,-1,21
 854 1164 854 1164 837 1141 c 128,-1,22
 820 1118 820 1118 806 1102 c 2,23,-1
 288 494 l 1,24,-1
 785 494 l 1,11,-1
EndSplineSet
EndChar

StartChar: five
Encoding: 53 53 24
Width: 1128
GlyphClass: 2
Flags: MW
LayerCount: 2
Fore
SplineSet
703 897 m 0,0,1
 802 897 802 897 882.5 869.5 c 128,-1,2
 963 842 963 842 1017 788 c 128,-1,3
 1071 734 1071 734 1093 654 c 128,-1,4
 1115 574 1115 574 1097 469 c 0,5,6
 1077 355 1077 355 1027 264 c 128,-1,7
 977 173 977 173 898.5 110 c 128,-1,8
 820 47 820 47 715.5 13.5 c 128,-1,9
 611 -20 611 -20 483 -20 c 0,10,11
 432 -20 432 -20 383.5 -15 c 128,-1,12
 335 -10 335 -10 291.5 -0.5 c 128,-1,13
 248 9 248 9 209.5 24 c 128,-1,14
 171 39 171 39 141 59 c 1,15,-1
 172 231 l 1,16,17
 201 208 201 208 242 190 c 128,-1,18
 283 172 283 172 330 160 c 128,-1,19
 377 148 377 148 425.5 141.5 c 128,-1,20
 474 135 474 135 516 135 c 0,21,22
 595 135 595 135 660 153.5 c 128,-1,23
 725 172 725 172 775 211 c 128,-1,24
 825 250 825 250 858.5 309 c 128,-1,25
 892 368 892 368 906 449 c 0,26,27
 931 592 931 592 856.5 667.5 c 128,-1,28
 782 743 782 743 614 743 c 0,29,30
 587 743 587 743 555 740.5 c 128,-1,31
 523 738 523 738 491 734 c 128,-1,32
 459 730 459 730 429.5 725.5 c 128,-1,33
 400 721 400 721 378 717 c 1,34,-1
 298 774 l 1,35,-1
 475 1462 l 1,36,-1
 1165 1462 l 1,37,-1
 1136 1296 l 1,38,-1
 604 1296 l 1,39,-1
 491 877 l 1,40,41
 524 883 524 883 577.5 890 c 128,-1,42
 631 897 631 897 703 897 c 0,0,1
EndSplineSet
EndChar

StartChar: six
Encoding: 54 54 25
Width: 1128
GlyphClass: 2
Flags: MW
LayerCount: 2
Fore
SplineSet
223 625 m 0,0,1
 242 730 242 730 270.5 834 c 128,-1,2
 299 938 299 938 342.5 1033.5 c 128,-1,3
 386 1129 386 1129 446.5 1211 c 128,-1,4
 507 1293 507 1293 588.5 1353.5 c 128,-1,5
 670 1414 670 1414 775 1448.5 c 128,-1,6
 880 1483 880 1483 1013 1483 c 0,7,8
 1032 1483 1032 1483 1055 1482 c 128,-1,9
 1078 1481 1078 1481 1101 1478.5 c 128,-1,10
 1124 1476 1124 1476 1145 1472.5 c 128,-1,11
 1166 1469 1166 1469 1182 1464 c 1,12,-1
 1155 1309 l 1,13,14
 1122 1321 1122 1321 1079 1327 c 128,-1,15
 1036 1333 1036 1333 993 1333 c 0,16,17
 903 1333 903 1333 830.5 1311.5 c 128,-1,18
 758 1290 758 1290 701.5 1251 c 128,-1,19
 645 1212 645 1212 602 1158 c 128,-1,20
 559 1104 559 1104 526.5 1038.5 c 128,-1,21
 494 973 494 973 470.5 899 c 128,-1,22
 447 825 447 825 430 745 c 1,23,-1
 442 745 l 1,24,25
 468 781 468 781 502.5 812.5 c 128,-1,26
 537 844 537 844 579 866.5 c 128,-1,27
 621 889 621 889 670.5 902 c 128,-1,28
 720 915 720 915 779 915 c 0,29,30
 874 915 874 915 946 885.5 c 128,-1,31
 1018 856 1018 856 1062 799 c 128,-1,32
 1106 742 1106 742 1121 659.5 c 128,-1,33
 1136 577 1136 577 1117 471 c 0,34,35
 1097 357 1097 357 1050 266 c 128,-1,36
 1003 175 1003 175 933.5 111.5 c 128,-1,37
 864 48 864 48 776 14 c 128,-1,38
 688 -20 688 -20 586 -20 c 0,39,40
 486 -20 486 -20 405.5 19 c 128,-1,41
 325 58 325 58 275 138 c 128,-1,42
 225 218 225 218 209.5 339 c 128,-1,43
 194 460 194 460 223 625 c 0,0,1
611 133 m 0,44,45
 671 133 671 133 724.5 153.5 c 128,-1,46
 778 174 778 174 821 215.5 c 128,-1,47
 864 257 864 257 895 320.5 c 128,-1,48
 926 384 926 384 941 471 c 0,49,50
 953 541 953 541 946.5 596.5 c 128,-1,51
 940 652 940 652 914 691 c 128,-1,52
 888 730 888 730 842 751 c 128,-1,53
 796 772 796 772 730 772 c 0,54,55
 663 772 663 772 603.5 748.5 c 128,-1,56
 544 725 544 725 498.5 687.5 c 128,-1,57
 453 650 453 650 423 602 c 128,-1,58
 393 554 393 554 384 506 c 0,59,60
 372 439 372 439 379 372.5 c 128,-1,61
 386 306 386 306 413 253 c 128,-1,62
 440 200 440 200 489 166.5 c 128,-1,63
 538 133 538 133 611 133 c 0,44,45
EndSplineSet
EndChar

StartChar: seven
Encoding: 55 55 26
Width: 1128
GlyphClass: 2
Flags: MW
LayerCount: 2
Fore
SplineSet
281 0 m 1,0,-1
 1073 1296 l 1,1,-1
 319 1296 l 1,2,-1
 348 1462 l 1,3,-1
 1288 1462 l 1,4,-1
 1262 1317 l 1,5,-1
 475 0 l 1,6,-1
 281 0 l 1,0,-1
EndSplineSet
EndChar

StartChar: eight
Encoding: 56 56 27
Width: 1128
GlyphClass: 2
Flags: MW
LayerCount: 2
Fore
SplineSet
827 1485 m 0,0,1
 911 1485 911 1485 981.5 1463 c 128,-1,2
 1052 1441 1052 1441 1101 1397 c 128,-1,3
 1150 1353 1150 1353 1171 1287 c 128,-1,4
 1192 1221 1192 1221 1177 1133 c 0,5,6
 1165 1066 1165 1066 1135.5 1012 c 128,-1,7
 1106 958 1106 958 1063.5 914.5 c 128,-1,8
 1021 871 1021 871 966.5 836.5 c 128,-1,9
 912 802 912 802 851 774 c 1,10,11
 904 743 904 743 953 705 c 128,-1,12
 1002 667 1002 667 1037 619.5 c 128,-1,13
 1072 572 1072 572 1088 513 c 128,-1,14
 1104 454 1104 454 1091 381 c 0,15,16
 1075 289 1075 289 1028.5 214.5 c 128,-1,17
 982 140 982 140 912 88 c 128,-1,18
 842 36 842 36 752.5 8 c 128,-1,19
 663 -20 663 -20 561 -20 c 0,20,21
 451 -20 451 -20 370.5 7 c 128,-1,22
 290 34 290 34 240.5 84.5 c 128,-1,23
 191 135 191 135 173.5 208 c 128,-1,24
 156 281 156 281 172 373 c 0,25,26
 185 448 185 448 218 508 c 128,-1,27
 251 568 251 568 297.5 616 c 128,-1,28
 344 664 344 664 402.5 701 c 128,-1,29
 461 738 461 738 524 766 c 1,30,31
 480 797 480 797 443.5 833.5 c 128,-1,32
 407 870 407 870 383.5 915 c 128,-1,33
 360 960 360 960 351 1014.5 c 128,-1,34
 342 1069 342 1069 354 1135 c 0,35,36
 369 1222 369 1222 414.5 1287.5 c 128,-1,37
 460 1353 460 1353 524.5 1397 c 128,-1,38
 589 1441 589 1441 667.5 1463 c 128,-1,39
 746 1485 746 1485 827 1485 c 0,0,1
350 371 m 0,40,41
 341 318 341 318 349 273.5 c 128,-1,42
 357 229 357 229 385.5 197.5 c 128,-1,43
 414 166 414 166 463 148.5 c 128,-1,44
 512 131 512 131 584 131 c 0,45,46
 654 131 654 131 710.5 148.5 c 128,-1,47
 767 166 767 166 809 198.5 c 128,-1,48
 851 231 851 231 877 277 c 128,-1,49
 903 323 903 323 913 379 c 0,50,51
 922 431 922 431 910 473 c 128,-1,52
 898 515 898 515 868 551 c 128,-1,53
 838 587 838 587 792.5 619 c 128,-1,54
 747 651 747 651 689 682 c 2,55,-1
 662 696 l 1,56,57
 525 636 525 636 447 558.5 c 128,-1,58
 369 481 369 481 350 371 c 0,40,41
798 1333 m 0,59,60
 692 1333 692 1333 620 1280 c 128,-1,61
 548 1227 548 1227 531 1126 c 0,62,63
 521 1069 521 1069 531 1028 c 128,-1,64
 541 987 541 987 566.5 955 c 128,-1,65
 592 923 592 923 631 897.5 c 128,-1,66
 670 872 670 872 717 848 c 1,67,68
 769 870 769 870 816 896 c 128,-1,69
 863 922 863 922 900 955 c 128,-1,70
 937 988 937 988 962.5 1030 c 128,-1,71
 988 1072 988 1072 998 1126 c 0,72,73
 1016 1227 1016 1227 962 1280 c 128,-1,74
 908 1333 908 1333 798 1333 c 0,59,60
EndSplineSet
EndChar

StartChar: nine
Encoding: 57 57 28
Width: 1128
GlyphClass: 2
Flags: MW
LayerCount: 2
Fore
SplineSet
1176 838 m 0,0,1
 1157 733 1157 733 1128 628.5 c 128,-1,2
 1099 524 1099 524 1056 429 c 128,-1,3
 1013 334 1013 334 952.5 251.5 c 128,-1,4
 892 169 892 169 810.5 109 c 128,-1,5
 729 49 729 49 623.5 14.5 c 128,-1,6
 518 -20 518 -20 385 -20 c 0,7,8
 366 -20 366 -20 343.5 -19 c 128,-1,9
 321 -18 321 -18 298.5 -15.5 c 128,-1,10
 276 -13 276 -13 254.5 -10 c 128,-1,11
 233 -7 233 -7 217 -2 c 1,12,-1
 244 154 l 1,13,14
 277 141 277 141 320 135 c 128,-1,15
 363 129 363 129 406 129 c 0,16,17
 541 129 541 129 636 176 c 128,-1,18
 731 223 731 223 796.5 303.5 c 128,-1,19
 862 384 862 384 902 491 c 128,-1,20
 942 598 942 598 968 717 c 1,21,-1
 955 717 l 1,22,23
 929 681 929 681 895.5 650 c 128,-1,24
 862 619 862 619 820 596 c 128,-1,25
 778 573 778 573 727.5 560 c 128,-1,26
 677 547 677 547 618 547 c 0,27,28
 523 547 523 547 451.5 576.5 c 128,-1,29
 380 606 380 606 336 663 c 128,-1,30
 292 720 292 720 277 802.5 c 128,-1,31
 262 885 262 885 281 991 c 0,32,33
 301 1105 301 1105 348.5 1196.5 c 128,-1,34
 396 1288 396 1288 465 1351.5 c 128,-1,35
 534 1415 534 1415 622 1449 c 128,-1,36
 710 1483 710 1483 812 1483 c 0,37,38
 913 1483 913 1483 993.5 1444 c 128,-1,39
 1074 1405 1074 1405 1124 1325 c 128,-1,40
 1174 1245 1174 1245 1189.5 1123.5 c 128,-1,41
 1205 1002 1205 1002 1176 838 c 0,0,1
787 1329 m 0,42,43
 727 1329 727 1329 674 1309 c 128,-1,44
 621 1289 621 1289 577.5 1247 c 128,-1,45
 534 1205 534 1205 503.5 1141.5 c 128,-1,46
 473 1078 473 1078 458 991 c 0,47,48
 446 921 446 921 452.5 865.5 c 128,-1,49
 459 810 459 810 485 771 c 128,-1,50
 511 732 511 732 557 711 c 128,-1,51
 603 690 603 690 669 690 c 0,52,53
 737 690 737 690 796 713.5 c 128,-1,54
 855 737 855 737 900.5 774.5 c 128,-1,55
 946 812 946 812 976 860 c 128,-1,56
 1006 908 1006 908 1015 956 c 0,57,58
 1027 1023 1027 1023 1020 1089.5 c 128,-1,59
 1013 1156 1013 1156 986 1209.5 c 128,-1,60
 959 1263 959 1263 909.5 1296 c 128,-1,61
 860 1329 860 1329 787 1329 c 0,42,43
EndSplineSet
EndChar

StartChar: colon
Encoding: 58 58 29
Width: 549
GlyphClass: 2
Flags: MW
LayerCount: 2
Fore
SplineSet
167 111 m 0,0,1
 174 149 174 149 188.5 175.5 c 128,-1,2
 203 202 203 202 222.5 218.5 c 128,-1,3
 242 235 242 235 266.5 242.5 c 128,-1,4
 291 250 291 250 318 250 c 0,5,6
 344 250 344 250 366 242.5 c 128,-1,7
 388 235 388 235 402.5 218.5 c 128,-1,8
 417 202 417 202 422 175.5 c 128,-1,9
 427 149 427 149 421 111 c 0,10,11
 414 74 414 74 399.5 47.5 c 128,-1,12
 385 21 385 21 365 4 c 128,-1,13
 345 -13 345 -13 320 -21 c 128,-1,14
 295 -29 295 -29 269 -29 c 0,15,16
 242 -29 242 -29 220.5 -21 c 128,-1,17
 199 -13 199 -13 185 4 c 128,-1,18
 171 21 171 21 165.5 47.5 c 128,-1,19
 160 74 160 74 167 111 c 0,0,1
321 987 m 0,20,21
 328 1026 328 1026 342.5 1052.5 c 128,-1,22
 357 1079 357 1079 377 1095.5 c 128,-1,23
 397 1112 397 1112 421.5 1119 c 128,-1,24
 446 1126 446 1126 473 1126 c 0,25,26
 499 1126 499 1126 521 1119 c 128,-1,27
 543 1112 543 1112 557 1095.5 c 128,-1,28
 571 1079 571 1079 576.5 1052.5 c 128,-1,29
 582 1026 582 1026 575 987 c 0,30,31
 568 950 568 950 553.5 924 c 128,-1,32
 539 898 539 898 519 881 c 128,-1,33
 499 864 499 864 474.5 856 c 128,-1,34
 450 848 450 848 424 848 c 0,35,36
 397 848 397 848 375 856 c 128,-1,37
 353 864 353 864 339 881 c 128,-1,38
 325 898 325 898 319.5 924 c 128,-1,39
 314 950 314 950 321 987 c 0,20,21
EndSplineSet
EndChar

StartChar: semicolon
Encoding: 59 59 30
Width: 549
GlyphClass: 2
Flags: MW
LayerCount: 2
Fore
SplineSet
404 238 m 1,0,-1
 415 215 l 1,1,2
 391 161 391 161 361 100 c 128,-1,3
 331 39 331 39 296.5 -23 c 128,-1,4
 262 -85 262 -85 225.5 -146.5 c 128,-1,5
 189 -208 189 -208 154 -264 c 1,6,-1
 16 -264 l 1,7,8
 42 -203 42 -203 68 -137 c 128,-1,9
 94 -71 94 -71 119.5 -5.5 c 128,-1,10
 145 60 145 60 167 122.5 c 128,-1,11
 189 185 189 185 206 238 c 1,12,-1
 404 238 l 1,0,-1
321 987 m 0,13,14
 328 1026 328 1026 342.5 1052.5 c 128,-1,15
 357 1079 357 1079 377 1095.5 c 128,-1,16
 397 1112 397 1112 421.5 1119 c 128,-1,17
 446 1126 446 1126 473 1126 c 0,18,19
 499 1126 499 1126 521 1119 c 128,-1,20
 543 1112 543 1112 557 1095.5 c 128,-1,21
 571 1079 571 1079 576.5 1052.5 c 128,-1,22
 582 1026 582 1026 575 987 c 0,23,24
 568 950 568 950 553.5 924 c 128,-1,25
 539 898 539 898 519 881 c 128,-1,26
 499 864 499 864 474.5 856 c 128,-1,27
 450 848 450 848 424 848 c 0,28,29
 397 848 397 848 375 856 c 128,-1,30
 353 864 353 864 339 881 c 128,-1,31
 325 898 325 898 319.5 924 c 128,-1,32
 314 950 314 950 321 987 c 0,13,14
EndSplineSet
EndChar

StartChar: less
Encoding: 60 60 31
Width: 1128
GlyphClass: 2
Flags: MW
LayerCount: 2
Fore
SplineSet
1068 238 m 1,0,-1
 219 662 l 1,1,-1
 237 764 l 1,2,-1
 1246 1245 l 1,3,-1
 1217 1085 l 1,4,-1
 418 721 l 1,5,-1
 1096 399 l 1,6,-1
 1068 238 l 1,0,-1
EndSplineSet
EndChar

StartChar: equal
Encoding: 61 61 32
Width: 1128
GlyphClass: 2
Flags: MW
LayerCount: 2
Fore
SplineSet
252 852 m 1,0,-1
 279 1001 l 1,1,-1
 1203 1001 l 1,2,-1
 1176 852 l 1,3,-1
 252 852 l 1,0,-1
180 442 m 1,4,-1
 206 592 l 1,5,-1
 1130 592 l 1,6,-1
 1104 442 l 1,7,-1
 180 442 l 1,4,-1
EndSplineSet
EndChar

StartChar: greater
Encoding: 62 62 33
Width: 1128
GlyphClass: 2
Flags: MW
LayerCount: 2
Fore
SplineSet
172 399 m 1,0,-1
 965 721 l 1,1,-1
 293 1085 l 1,2,-1
 322 1245 l 1,3,-1
 1161 764 l 1,4,-1
 1143 662 l 1,5,-1
 144 238 l 1,6,-1
 172 399 l 1,0,-1
EndSplineSet
EndChar

StartChar: question
Encoding: 63 63 34
Width: 872
GlyphClass: 2
Flags: MW
LayerCount: 2
Fore
SplineSet
354 414 m 1,0,-1
 361 451 l 2,1,2
 371 508 371 508 386.5 554 c 128,-1,3
 402 600 402 600 428.5 640 c 128,-1,4
 455 680 455 680 494.5 718.5 c 128,-1,5
 534 757 534 757 592 799 c 0,6,7
 647 840 647 840 687 873.5 c 128,-1,8
 727 907 727 907 754.5 941.5 c 128,-1,9
 782 976 782 976 799.5 1015.5 c 128,-1,10
 817 1055 817 1055 826 1108 c 0,11,12
 834 1156 834 1156 826.5 1195.5 c 128,-1,13
 819 1235 819 1235 795.5 1263.5 c 128,-1,14
 772 1292 772 1292 732 1307.5 c 128,-1,15
 692 1323 692 1323 636 1323 c 0,16,17
 553 1323 553 1323 473.5 1297 c 128,-1,18
 394 1271 394 1271 318 1237 c 1,19,-1
 281 1382 l 1,20,21
 369 1424 369 1424 468 1453.5 c 128,-1,22
 567 1483 567 1483 664 1483 c 0,23,24
 757 1483 757 1483 827.5 1457.5 c 128,-1,25
 898 1432 898 1432 941.5 1384 c 128,-1,26
 985 1336 985 1336 1000.5 1266.5 c 128,-1,27
 1016 1197 1016 1197 1001 1110 c 0,28,29
 989 1043 989 1043 966 990.5 c 128,-1,30
 943 938 943 938 908.5 893 c 128,-1,31
 874 848 874 848 826.5 806 c 128,-1,32
 779 764 779 764 716 717 c 0,33,34
 656 672 656 672 617.5 638.5 c 128,-1,35
 579 605 579 605 554.5 573.5 c 128,-1,36
 530 542 530 542 517 509 c 128,-1,37
 504 476 504 476 496 432 c 2,38,-1
 493 414 l 1,39,-1
 354 414 l 1,0,-1
253 111 m 0,40,41
 260 149 260 149 274.5 175.5 c 128,-1,42
 289 202 289 202 308.5 218.5 c 128,-1,43
 328 235 328 235 352.5 242.5 c 128,-1,44
 377 250 377 250 404 250 c 0,45,46
 430 250 430 250 452 242.5 c 128,-1,47
 474 235 474 235 488.5 218.5 c 128,-1,48
 503 202 503 202 508 175.5 c 128,-1,49
 513 149 513 149 507 111 c 0,50,51
 500 74 500 74 485.5 47.5 c 128,-1,52
 471 21 471 21 451 4 c 128,-1,53
 431 -13 431 -13 406 -21 c 128,-1,54
 381 -29 381 -29 355 -29 c 0,55,56
 328 -29 328 -29 306.5 -21 c 128,-1,57
 285 -13 285 -13 271 4 c 128,-1,58
 257 21 257 21 251.5 47.5 c 128,-1,59
 246 74 246 74 253 111 c 0,40,41
EndSplineSet
EndChar

StartChar: at
Encoding: 64 64 35
Width: 1774
GlyphClass: 2
Flags: MW
LayerCount: 2
Fore
SplineSet
1794 731 m 0,0,1
 1783 669 1783 669 1762.5 606.5 c 128,-1,2
 1742 544 1742 544 1713.5 487.5 c 128,-1,3
 1685 431 1685 431 1648 382.5 c 128,-1,4
 1611 334 1611 334 1566.5 298 c 128,-1,5
 1522 262 1522 262 1470 241.5 c 128,-1,6
 1418 221 1418 221 1360 221 c 0,7,8
 1315 221 1315 221 1281 236 c 128,-1,9
 1247 251 1247 251 1225.5 276 c 128,-1,10
 1204 301 1204 301 1193.5 333.5 c 128,-1,11
 1183 366 1183 366 1183 401 c 1,12,-1
 1179 401 l 1,13,14
 1154 364 1154 364 1121.5 331 c 128,-1,15
 1089 298 1089 298 1049 273.5 c 128,-1,16
 1009 249 1009 249 962 235 c 128,-1,17
 915 221 915 221 862 221 c 0,18,19
 785 221 785 221 730.5 249 c 128,-1,20
 676 277 676 277 644 327.5 c 128,-1,21
 612 378 612 378 603 449 c 128,-1,22
 594 520 594 520 609 606 c 0,23,24
 627 707 627 707 671 791 c 128,-1,25
 715 875 715 875 781.5 936 c 128,-1,26
 848 997 848 997 933 1031 c 128,-1,27
 1018 1065 1018 1065 1116 1065 c 0,28,29
 1161 1065 1161 1065 1205 1061 c 128,-1,30
 1249 1057 1249 1057 1289 1050 c 128,-1,31
 1329 1043 1329 1043 1362 1034.5 c 128,-1,32
 1395 1026 1395 1026 1417 1018 c 1,33,-1
 1320 602 l 2,34,35
 1315 580 1315 580 1312.5 566.5 c 128,-1,36
 1310 553 1310 553 1308.5 545 c 128,-1,37
 1307 537 1307 537 1306 533 c 128,-1,38
 1305 529 1305 529 1305 526 c 0,39,40
 1296 473 1296 473 1300 439 c 128,-1,41
 1304 405 1304 405 1317.5 385 c 128,-1,42
 1331 365 1331 365 1351.5 357.5 c 128,-1,43
 1372 350 1372 350 1395 350 c 0,44,45
 1441 350 1441 350 1481 380.5 c 128,-1,46
 1521 411 1521 411 1554 463 c 128,-1,47
 1587 515 1587 515 1611 585 c 128,-1,48
 1635 655 1635 655 1649 733 c 0,49,50
 1674 875 1674 875 1650.5 985.5 c 128,-1,51
 1627 1096 1627 1096 1564.5 1172 c 128,-1,52
 1502 1248 1502 1248 1404.5 1287.5 c 128,-1,53
 1307 1327 1307 1327 1184 1327 c 0,54,55
 1015 1327 1015 1327 876 1271.5 c 128,-1,56
 737 1216 737 1216 632 1116.5 c 128,-1,57
 527 1017 527 1017 458 880.5 c 128,-1,58
 389 744 389 744 361 582 c 0,59,60
 334 431 334 431 353 314 c 128,-1,61
 372 197 372 197 434.5 117 c 128,-1,62
 497 37 497 37 603 -4 c 128,-1,63
 709 -45 709 -45 856 -45 c 0,64,65
 917 -45 917 -45 978 -38 c 128,-1,66
 1039 -31 1039 -31 1096.5 -19 c 128,-1,67
 1154 -7 1154 -7 1206.5 8.5 c 128,-1,68
 1259 24 1259 24 1305 41 c 1,69,-1
 1280 -100 l 1,70,71
 1187 -138 1187 -138 1075.5 -160 c 128,-1,72
 964 -182 964 -182 834 -182 c 0,73,74
 655 -182 655 -182 523.5 -131 c 128,-1,75
 392 -80 392 -80 311.5 17.5 c 128,-1,76
 231 115 231 115 205 255.5 c 128,-1,77
 179 396 179 396 210 575 c 0,78,79
 243 763 243 763 331 925.5 c 128,-1,80
 419 1088 419 1088 549.5 1207 c 128,-1,81
 680 1326 680 1326 847.5 1394 c 128,-1,82
 1015 1462 1015 1462 1208 1462 c 0,83,84
 1364 1462 1364 1462 1486 1411.5 c 128,-1,85
 1608 1361 1608 1361 1687 1266.5 c 128,-1,86
 1766 1172 1766 1172 1795 1036.5 c 128,-1,87
 1824 901 1824 901 1794 731 c 0,0,1
768 602 m 0,88,89
 745 469 745 469 785 409.5 c 128,-1,90
 825 350 825 350 910 350 c 0,91,92
 965 350 965 350 1008 372.5 c 128,-1,93
 1051 395 1051 395 1083 436.5 c 128,-1,94
 1115 478 1115 478 1138.5 535.5 c 128,-1,95
 1162 593 1162 593 1178 662 c 2,96,-1
 1236 915 l 1,97,98
 1209 923 1209 923 1172 929.5 c 128,-1,99
 1135 936 1135 936 1093 936 c 0,100,101
 1019 936 1019 936 963.5 907 c 128,-1,102
 908 878 908 878 868 831 c 128,-1,103
 828 784 828 784 803.5 724 c 128,-1,104
 779 664 779 664 768 602 c 0,88,89
EndSplineSet
EndChar

StartChar: A
Encoding: 65 65 36
Width: 1245
GlyphClass: 2
Flags: MW
AnchorPoint: "Anchor-18" 899 1579 basechar 0
AnchorPoint: "Anchor-19" 899 1579 basechar 0
AnchorPoint: "Anchor-4" 594 -152 basechar 0
AnchorPoint: "Anchor-2" 906 1618 basechar 0
AnchorPoint: "Anchor-30" 899 1579 basechar 0
AnchorPoint: "Anchor-1" 997 1579 basechar 0
AnchorPoint: "Anchor-0" 812 1579 basechar 0
LayerCount: 2
Fore
SplineSet
1055 0 m 1,0,-1
 975 453 l 1,1,-1
 430 453 l 1,2,-1
 188 0 l 1,3,-1
 0 0 l 1,4,-1
 796 1468 l 1,5,-1
 966 1468 l 1,6,-1
 1245 0 l 1,7,-1
 1055 0 l 1,0,-1
945 618 m 1,8,-1
 872 1042 l 2,9,10
 869 1060 869 1060 865 1086 c 128,-1,11
 861 1112 861 1112 857.5 1142 c 128,-1,12
 854 1172 854 1172 850.5 1204.5 c 128,-1,13
 847 1237 847 1237 845 1268 c 1,14,15
 833 1237 833 1237 817.5 1204 c 128,-1,16
 802 1171 802 1171 788 1140.5 c 128,-1,17
 774 1110 774 1110 761 1084.5 c 128,-1,18
 748 1059 748 1059 739 1042 c 2,19,-1
 519 618 l 1,20,-1
 945 618 l 1,8,-1
EndSplineSet
EndChar

StartChar: B
Encoding: 66 66 37
Width: 1272
GlyphClass: 2
Flags: MW
AnchorPoint: "Anchor-4" 611 -152 basechar 0
AnchorPoint: "Anchor-0" 823 1579 basechar 0
AnchorPoint: "Anchor-2" 923 1618 basechar 0
AnchorPoint: "Anchor-1" 1009 1579 basechar 0
AnchorPoint: "Anchor-30" 916 1579 basechar 0
LayerCount: 2
Fore
SplineSet
457 1462 m 1,0,-1
 856 1462 l 2,1,2
 984 1462 984 1462 1078 1442.5 c 128,-1,3
 1172 1423 1172 1423 1230 1379.5 c 128,-1,4
 1288 1336 1288 1336 1308.5 1265.5 c 128,-1,5
 1329 1195 1329 1195 1311 1092 c 0,6,7
 1300 1030 1300 1030 1271 976 c 128,-1,8
 1242 922 1242 922 1197.5 881 c 128,-1,9
 1153 840 1153 840 1093.5 812.5 c 128,-1,10
 1034 785 1034 785 964 776 c 1,11,-1
 962 766 l 1,12,13
 1029 754 1029 754 1085.5 731.5 c 128,-1,14
 1142 709 1142 709 1180 669.5 c 128,-1,15
 1218 630 1218 630 1233.5 570 c 128,-1,16
 1249 510 1249 510 1234 424 c 0,17,18
 1216 324 1216 324 1169.5 245.5 c 128,-1,19
 1123 167 1123 167 1052 112.5 c 128,-1,20
 981 58 981 58 888 29 c 128,-1,21
 795 0 795 0 684 0 c 2,22,-1
 199 0 l 1,23,-1
 457 1462 l 1,0,-1
533 842 m 1,24,-1
 777 842 l 2,25,26
 861 842 861 842 921 857 c 128,-1,27
 981 872 981 872 1021 901.5 c 128,-1,28
 1061 931 1061 931 1084.5 975.5 c 128,-1,29
 1108 1020 1108 1020 1118 1079 c 0,30,31
 1139 1199 1139 1199 1071.5 1251 c 128,-1,32
 1004 1303 1004 1303 838 1303 c 2,33,-1
 615 1303 l 1,34,-1
 533 842 l 1,24,-1
506 686 m 1,35,-1
 413 158 l 1,36,-1
 679 158 l 2,37,38
 767 158 767 158 830 178 c 128,-1,39
 893 198 893 198 936 234 c 128,-1,40
 979 270 979 270 1003.5 320.5 c 128,-1,41
 1028 371 1028 371 1039 432 c 0,42,43
 1049 488 1049 488 1041 535 c 128,-1,44
 1033 582 1033 582 1001 615.5 c 128,-1,45
 969 649 969 649 910.5 667.5 c 128,-1,46
 852 686 852 686 760 686 c 2,47,-1
 506 686 l 1,35,-1
EndSplineSet
EndChar

StartChar: C
Encoding: 67 67 38
Width: 1235
GlyphClass: 2
Flags: MW
AnchorPoint: "Anchor-4" 751 -152 basechar 0
AnchorPoint: "Anchor-1" 1175 1579 basechar 0
AnchorPoint: "Anchor-0" 937 1579 basechar 0
AnchorPoint: "Anchor-2" 1063 1618 basechar 0
AnchorPoint: "Anchor-30" 1056 1579 basechar 0
AnchorPoint: "Anchor-3" 755 -131 basechar 0
LayerCount: 2
Fore
SplineSet
1026 1319 m 0,0,1
 919 1319 919 1319 824.5 1278.5 c 128,-1,2
 730 1238 730 1238 655 1162 c 128,-1,3
 580 1086 580 1086 527.5 977 c 128,-1,4
 475 868 475 868 451 731 c 0,5,6
 426 590 426 590 436 480.5 c 128,-1,7
 446 371 446 371 492 296 c 128,-1,8
 538 221 538 221 619 182 c 128,-1,9
 700 143 700 143 818 143 c 0,10,11
 907 143 907 143 990 160.5 c 128,-1,12
 1073 178 1073 178 1155 201 c 1,13,-1
 1127 39 l 1,14,15
 1085 24 1085 24 1044 12.5 c 128,-1,16
 1003 1 1003 1 959.5 -6 c 128,-1,17
 916 -13 916 -13 866.5 -16.5 c 128,-1,18
 817 -20 817 -20 758 -20 c 0,19,20
 594 -20 594 -20 484 34 c 128,-1,21
 374 88 374 88 312.5 187 c 128,-1,22
 251 286 251 286 237.5 425 c 128,-1,23
 224 564 224 564 254 733 c 0,24,25
 283 899 283 899 351 1037 c 128,-1,26
 419 1175 419 1175 521 1274 c 128,-1,27
 623 1373 623 1373 757.5 1428 c 128,-1,28
 892 1483 892 1483 1054 1483 c 0,29,30
 1162 1483 1162 1483 1256.5 1461 c 128,-1,31
 1351 1439 1351 1439 1422 1397 c 1,32,-1
 1317 1241 l 1,33,34
 1260 1273 1260 1273 1190 1296 c 128,-1,35
 1120 1319 1120 1319 1026 1319 c 0,0,1
EndSplineSet
EndChar

StartChar: D
Encoding: 68 68 39
Width: 1401
GlyphClass: 2
Flags: MW
AnchorPoint: "Anchor-4" 611 -152 basechar 0
AnchorPoint: "Anchor-30" 916 1579 basechar 0
AnchorPoint: "Anchor-1" 1009 1579 basechar 0
AnchorPoint: "Anchor-2" 923 1618 basechar 0
AnchorPoint: "Anchor-0" 823 1579 basechar 0
LayerCount: 2
Fore
SplineSet
1407 745 m 0,0,1
 1374 560 1374 560 1302 420.5 c 128,-1,2
 1230 281 1230 281 1122.5 187.5 c 128,-1,3
 1015 94 1015 94 874 47 c 128,-1,4
 733 0 733 0 565 0 c 2,5,-1
 199 0 l 1,6,-1
 457 1462 l 1,7,-1
 864 1462 l 2,8,9
 1017 1462 1017 1462 1133 1416 c 128,-1,10
 1249 1370 1249 1370 1320 1279.5 c 128,-1,11
 1391 1189 1391 1189 1414.5 1055 c 128,-1,12
 1438 921 1438 921 1407 745 c 0,0,1
1209 739 m 0,13,14
 1235 885 1235 885 1221 991.5 c 128,-1,15
 1207 1098 1207 1098 1156 1167 c 128,-1,16
 1105 1236 1105 1236 1019 1269.5 c 128,-1,17
 933 1303 933 1303 816 1303 c 2,18,-1
 615 1303 l 1,19,-1
 413 160 l 1,20,-1
 575 160 l 2,21,22
 839 160 839 160 998.5 306 c 128,-1,23
 1158 452 1158 452 1209 739 c 0,13,14
EndSplineSet
EndChar

StartChar: E
Encoding: 69 69 40
Width: 1081
GlyphClass: 2
Flags: MW
AnchorPoint: "Anchor-18" 863 1579 basechar 0
AnchorPoint: "Anchor-19" 863 1579 basechar 0
AnchorPoint: "Anchor-16" 863 1579 basechar 0
AnchorPoint: "Anchor-4" 558 -152 basechar 0
AnchorPoint: "Anchor-2" 870 1618 basechar 0
AnchorPoint: "Anchor-30" 863 1579 basechar 0
AnchorPoint: "Anchor-1" 991 1579 basechar 0
AnchorPoint: "Anchor-0" 734 1579 basechar 0
LayerCount: 2
Fore
SplineSet
958 0 m 1,0,-1
 199 0 l 1,1,-1
 457 1462 l 1,2,-1
 1216 1462 l 1,3,-1
 1187 1298 l 1,4,-1
 614 1298 l 1,5,-1
 534 846 l 1,6,-1
 1069 846 l 1,7,-1
 1041 684 l 1,8,-1
 506 684 l 1,9,-1
 414 164 l 1,10,-1
 987 164 l 1,11,-1
 958 0 l 1,0,-1
EndSplineSet
EndChar

StartChar: F
Encoding: 70 70 41
Width: 1006
GlyphClass: 2
Flags: MW
AnchorPoint: "Anchor-1" 950 1579 basechar 0
AnchorPoint: "Anchor-0" 764 1579 basechar 0
AnchorPoint: "Anchor-2" 864 1618 basechar 0
AnchorPoint: "Anchor-30" 857 1579 basechar 0
AnchorPoint: "Anchor-3" 269 -131 basechar 0
LayerCount: 2
Fore
SplineSet
385 0 m 1,0,-1
 199 0 l 1,1,-1
 457 1462 l 1,2,-1
 1216 1462 l 1,3,-1
 1187 1298 l 1,4,-1
 614 1298 l 1,5,-1
 523 782 l 1,6,-1
 1058 782 l 1,7,-1
 1029 618 l 1,8,-1
 494 618 l 1,9,-1
 385 0 l 1,0,-1
EndSplineSet
EndChar

StartChar: G
Encoding: 71 71 42
Width: 1413
GlyphClass: 2
Flags: MW
AnchorPoint: "Anchor-4" 763 -152 basechar 0
AnchorPoint: "Anchor-30" 1083 1579 basechar 0
AnchorPoint: "Anchor-2" 1090 1618 basechar 0
AnchorPoint: "Anchor-0" 964 1579 basechar 0
AnchorPoint: "Anchor-1" 1202 1579 basechar 0
AnchorPoint: "Anchor-3" 767 -131 basechar 0
LayerCount: 2
Fore
SplineSet
918 772 m 1,0,-1
 1402 772 l 1,1,-1
 1276 55 l 1,2,3
 1218 37 1218 37 1159.5 23 c 128,-1,4
 1101 9 1101 9 1040 -0.5 c 128,-1,5
 979 -10 979 -10 913 -15 c 128,-1,6
 847 -20 847 -20 772 -20 c 0,7,8
 615 -20 615 -20 503.5 32.5 c 128,-1,9
 392 85 392 85 326 182.5 c 128,-1,10
 260 280 260 280 242 419.5 c 128,-1,11
 224 559 224 559 254 733 c 0,12,13
 284 905 284 905 356.5 1044 c 128,-1,14
 429 1183 429 1183 537 1280.5 c 128,-1,15
 645 1378 645 1378 787.5 1430.5 c 128,-1,16
 930 1483 930 1483 1101 1483 c 0,17,18
 1212 1483 1212 1483 1310.5 1461 c 128,-1,19
 1409 1439 1409 1439 1489 1397 c 1,20,-1
 1389 1235 l 1,21,22
 1356 1252 1356 1252 1317 1267 c 128,-1,23
 1278 1282 1278 1282 1236 1293.5 c 128,-1,24
 1194 1305 1194 1305 1149 1312 c 128,-1,25
 1104 1319 1104 1319 1058 1319 c 0,26,27
 936 1319 936 1319 834.5 1278.5 c 128,-1,28
 733 1238 733 1238 656 1162 c 128,-1,29
 579 1086 579 1086 527 977 c 128,-1,30
 475 868 475 868 451 731 c 0,31,32
 428 601 428 601 436.5 493 c 128,-1,33
 445 385 445 385 491 307 c 128,-1,34
 537 229 537 229 624.5 186 c 128,-1,35
 712 143 712 143 846 143 c 0,36,37
 890 143 890 143 927 145.5 c 128,-1,38
 964 148 964 148 996 152 c 128,-1,39
 1028 156 1028 156 1056 161.5 c 128,-1,40
 1084 167 1084 167 1111 172 c 1,41,-1
 1188 608 l 1,42,-1
 889 608 l 1,43,-1
 918 772 l 1,0,-1
EndSplineSet
EndChar

StartChar: H
Encoding: 72 72 43
Width: 1436
GlyphClass: 2
Flags: MW
AnchorPoint: "Anchor-4" 691 -152 basechar 0
AnchorPoint: "Anchor-30" 996 1579 basechar 0
AnchorPoint: "Anchor-1" 1089 1579 basechar 0
AnchorPoint: "Anchor-0" 903 1579 basechar 0
AnchorPoint: "Anchor-2" 1003 1618 basechar 0
LayerCount: 2
Fore
SplineSet
1237 0 m 1,0,-1
 1051 0 l 1,1,-1
 1171 682 l 1,2,-1
 505 682 l 1,3,-1
 385 0 l 1,4,-1
 199 0 l 1,5,-1
 457 1462 l 1,6,-1
 643 1462 l 1,7,-1
 534 846 l 1,8,-1
 1200 846 l 1,9,-1
 1309 1462 l 1,10,-1
 1495 1462 l 1,11,-1
 1237 0 l 1,0,-1
EndSplineSet
EndChar

StartChar: I
Encoding: 73 73 44
Width: 694
GlyphClass: 2
Flags: MW
AnchorPoint: "Anchor-18" 625 1579 basechar 0
AnchorPoint: "Anchor-19" 625 1579 basechar 0
AnchorPoint: "Anchor-4" 320 -152 basechar 0
AnchorPoint: "Anchor-30" 625 1579 basechar 0
AnchorPoint: "Anchor-2" 632 1618 basechar 0
AnchorPoint: "Anchor-0" 532 1579 basechar 0
AnchorPoint: "Anchor-1" 718 1579 basechar 0
AnchorPoint: "Anchor-3" 324 -131 basechar 0
LayerCount: 2
Fore
SplineSet
612 0 m 1,0,-1
 82 0 l 1,1,-1
 100 102 l 1,2,-1
 279 143 l 1,3,-1
 487 1319 l 1,4,-1
 322 1360 l 1,5,-1
 340 1462 l 1,6,-1
 870 1462 l 1,7,-1
 852 1360 l 1,8,-1
 673 1319 l 1,9,-1
 465 143 l 1,10,-1
 630 102 l 1,11,-1
 612 0 l 1,0,-1
EndSplineSet
EndChar

StartChar: J
Encoding: 74 74 45
Width: 555
GlyphClass: 2
Flags: MW
AnchorPoint: "Anchor-4" -2 -541 basechar 0
AnchorPoint: "Anchor-1" 649 1579 basechar 0
AnchorPoint: "Anchor-0" 462 1579 basechar 0
AnchorPoint: "Anchor-2" 562 1618 basechar 0
AnchorPoint: "Anchor-30" 555 1579 basechar 0
AnchorPoint: "Anchor-3" 185 -520 basechar 0
LayerCount: 2
Fore
SplineSet
-98 -389 m 0,0,1
 -149 -389 -149 -389 -185.5 -382.5 c 128,-1,2
 -222 -376 -222 -376 -248 -365 c 1,3,-1
 -220 -205 l 1,4,5
 -188 -214 -188 -214 -150 -219.5 c 128,-1,6
 -112 -225 -112 -225 -67 -225 c 0,7,8
 -30 -225 -30 -225 9.5 -215.5 c 128,-1,9
 49 -206 49 -206 83.5 -181 c 128,-1,10
 118 -156 118 -156 145 -112 c 128,-1,11
 172 -68 172 -68 184 0 c 2,12,-1
 442 1462 l 1,13,-1
 629 1462 l 1,14,-1
 375 20 l 2,15,16
 356 -85 356 -85 313 -162 c 128,-1,17
 270 -239 270 -239 208.5 -289.5 c 128,-1,18
 147 -340 147 -340 69 -364.5 c 128,-1,19
 -9 -389 -9 -389 -98 -389 c 0,0,1
EndSplineSet
EndChar

StartChar: K
Encoding: 75 75 46
Width: 1186
GlyphClass: 2
Flags: MW
AnchorPoint: "Anchor-1" 1052 1579 basechar 0
AnchorPoint: "Anchor-0" 866 1579 basechar 0
AnchorPoint: "Anchor-30" 959 1579 basechar 0
AnchorPoint: "Anchor-2" 966 1618 basechar 0
LayerCount: 2
Fore
SplineSet
1186 0 m 1,0,-1
 975 0 l 1,1,-1
 647 698 l 1,2,-1
 488 584 l 1,3,-1
 385 0 l 1,4,-1
 199 0 l 1,5,-1
 457 1462 l 1,6,-1
 643 1462 l 1,7,-1
 514 731 l 1,8,-1
 665 899 l 1,9,-1
 1216 1462 l 1,10,-1
 1425 1462 l 1,11,-1
 792 825 l 1,12,-1
 1186 0 l 1,0,-1
EndSplineSet
EndChar

StartChar: L
Encoding: 76 76 47
Width: 1006
GlyphClass: 2
Flags: MW
AnchorPoint: "Anchor-4" 551 -152 basechar 0
AnchorPoint: "Anchor-1" 663 1579 basechar 0
AnchorPoint: "Anchor-0" 477 1579 basechar 0
AnchorPoint: "Anchor-30" 570 1579 basechar 0
AnchorPoint: "Anchor-2" 577 1618 basechar 0
LayerCount: 2
Fore
SplineSet
199 0 m 1,0,-1
 457 1462 l 1,1,-1
 643 1462 l 1,2,-1
 414 166 l 1,3,-1
 987 166 l 1,4,-1
 958 0 l 1,5,-1
 199 0 l 1,0,-1
EndSplineSet
EndChar

StartChar: M
Encoding: 77 77 48
Width: 1782
GlyphClass: 2
Flags: MW
AnchorPoint: "Anchor-18" 1157 1579 basechar 0
AnchorPoint: "Anchor-19" 1157 1579 basechar 0
AnchorPoint: "Anchor-4" 852 -152 basechar 0
AnchorPoint: "Anchor-1" 1233 1579 basechar 0
AnchorPoint: "Anchor-0" 1081 1579 basechar 0
AnchorPoint: "Anchor-2" 1164 1618 basechar 0
AnchorPoint: "Anchor-30" 1157 1579 basechar 0
LayerCount: 2
Fore
SplineSet
803 0 m 1,0,-1
 586 1280 l 1,1,-1
 578 1280 l 1,2,3
 571 1206 571 1206 562 1133 c 0,4,5
 555 1070 555 1070 545 1000.5 c 128,-1,6
 535 931 535 931 525 874 c 2,7,-1
 371 0 l 1,8,-1
 199 0 l 1,9,-1
 457 1462 l 1,10,-1
 733 1462 l 1,11,-1
 935 270 l 1,12,-1
 941 270 l 1,13,-1
 1565 1462 l 1,14,-1
 1841 1462 l 1,15,-1
 1583 0 l 1,16,-1
 1397 0 l 1,17,-1
 1553 887 l 2,18,19
 1562 939 1562 939 1576 1006 c 128,-1,20
 1590 1073 1590 1073 1604 1134 c 0,21,22
 1621 1205 1621 1205 1636 1278 c 1,23,-1
 1628 1278 l 1,24,-1
 956 0 l 1,25,-1
 803 0 l 1,0,-1
EndSplineSet
EndChar

StartChar: N
Encoding: 78 78 49
Width: 1493
GlyphClass: 2
Flags: MW
AnchorPoint: "Anchor-4" 719 -152 basechar 0
AnchorPoint: "Anchor-1" 1135 1579 basechar 0
AnchorPoint: "Anchor-0" 913 1579 basechar 0
AnchorPoint: "Anchor-2" 1031 1618 basechar 0
AnchorPoint: "Anchor-30" 1024 1579 basechar 0
LayerCount: 2
Fore
SplineSet
1294 0 m 1,0,-1
 1079 0 l 1,1,-1
 573 1210 l 1,2,-1
 565 1210 l 1,3,4
 557 1133 557 1133 548 1057 c 0,5,6
 541 992 541 992 531 921 c 128,-1,7
 521 850 521 850 511 793 c 2,8,-1
 371 0 l 1,9,-1
 199 0 l 1,10,-1
 457 1462 l 1,11,-1
 670 1462 l 1,12,-1
 1173 258 l 1,13,-1
 1180 258 l 1,14,15
 1190 334 1190 334 1200 408 c 0,16,17
 1205 440 1205 440 1209 473.5 c 128,-1,18
 1213 507 1213 507 1217.5 540.5 c 128,-1,19
 1222 574 1222 574 1227 605 c 128,-1,20
 1232 636 1232 636 1237 662 c 2,21,-1
 1378 1462 l 1,22,-1
 1552 1462 l 1,23,-1
 1294 0 l 1,0,-1
EndSplineSet
EndChar

StartChar: O
Encoding: 79 79 50
Width: 1520
GlyphClass: 2
Flags: MW
AnchorPoint: "Anchor-20" 1571 1618 basechar 0
AnchorPoint: "Anchor-4" 737 -152 basechar 0
AnchorPoint: "Anchor-2" 1049 1618 basechar 0
AnchorPoint: "Anchor-30" 1042 1579 basechar 0
AnchorPoint: "Anchor-0" 949 1579 basechar 0
AnchorPoint: "Anchor-1" 1135 1579 basechar 0
LayerCount: 2
Fore
SplineSet
1522 733 m 0,0,1
 1492 564 1492 564 1427 425 c 128,-1,2
 1362 286 1362 286 1265 187 c 128,-1,3
 1168 88 1168 88 1039.5 34 c 128,-1,4
 911 -20 911 -20 756 -20 c 0,5,6
 593 -20 593 -20 483.5 34 c 128,-1,7
 374 88 374 88 312.5 187 c 128,-1,8
 251 286 251 286 238 425.5 c 128,-1,9
 225 565 225 565 255 735 c 256,10,11
 285 905 285 905 347 1043.5 c 128,-1,12
 409 1182 409 1182 505.5 1280 c 128,-1,13
 602 1378 602 1378 731.5 1431.5 c 128,-1,14
 861 1485 861 1485 1024 1485 c 0,15,16
 1179 1485 1179 1485 1287 1431.5 c 128,-1,17
 1395 1378 1395 1378 1457.5 1279.5 c 128,-1,18
 1520 1181 1520 1181 1536 1042.5 c 128,-1,19
 1552 904 1552 904 1522 733 c 0,0,1
451 733 m 0,20,21
 427 596 427 596 433.5 486.5 c 128,-1,22
 440 377 440 377 480 300.5 c 128,-1,23
 520 224 520 224 595.5 183.5 c 128,-1,24
 671 143 671 143 785 143 c 256,25,26
 899 143 899 143 988.5 183.5 c 128,-1,27
 1078 224 1078 224 1145 300.5 c 128,-1,28
 1212 377 1212 377 1256.5 486.5 c 128,-1,29
 1301 596 1301 596 1325 733 c 0,30,31
 1349 871 1349 871 1343.5 980 c 128,-1,32
 1338 1089 1338 1089 1298.5 1164.5 c 128,-1,33
 1259 1240 1259 1240 1184 1280.5 c 128,-1,34
 1109 1321 1109 1321 995 1321 c 256,35,36
 881 1321 881 1321 791 1280.5 c 128,-1,37
 701 1240 701 1240 633.5 1164.5 c 128,-1,38
 566 1089 566 1089 520.5 980 c 128,-1,39
 475 871 475 871 451 733 c 0,20,21
EndSplineSet
EndChar

StartChar: P
Encoding: 80 80 51
Width: 1180
GlyphClass: 2
Flags: MW
AnchorPoint: "Anchor-4" 576 -152 basechar 0
AnchorPoint: "Anchor-1" 1009 1579 basechar 0
AnchorPoint: "Anchor-0" 755 1579 basechar 0
AnchorPoint: "Anchor-2" 889 1618 basechar 0
AnchorPoint: "Anchor-30" 882 1579 basechar 0
AnchorPoint: "Anchor-3" 269 -131 basechar 0
LayerCount: 2
Fore
SplineSet
1257 1034 m 0,0,1
 1241 943 1241 943 1199 859 c 128,-1,2
 1157 775 1157 775 1082.5 710.5 c 128,-1,3
 1008 646 1008 646 897.5 607.5 c 128,-1,4
 787 569 787 569 635 569 c 2,5,-1
 485 569 l 1,6,-1
 385 0 l 1,7,-1
 199 0 l 1,8,-1
 457 1462 l 1,9,-1
 819 1462 l 2,10,11
 953 1462 953 1462 1045 1433.5 c 128,-1,12
 1137 1405 1137 1405 1190.5 1350.5 c 128,-1,13
 1244 1296 1244 1296 1259.5 1216 c 128,-1,14
 1275 1136 1275 1136 1257 1034 c 0,0,1
513 727 m 1,15,-1
 642 727 l 2,16,17
 735 727 735 727 807.5 743 c 128,-1,18
 880 759 880 759 931.5 794.5 c 128,-1,19
 983 830 983 830 1016 886.5 c 128,-1,20
 1049 943 1049 943 1064 1024 c 0,21,22
 1089 1166 1089 1166 1019 1234.5 c 128,-1,23
 949 1303 949 1303 775 1303 c 2,24,-1
 615 1303 l 1,25,-1
 513 727 l 1,15,-1
EndSplineSet
EndChar

StartChar: Q
Encoding: 81 81 52
Width: 1520
GlyphClass: 2
Flags: MW
AnchorPoint: "Anchor-1" 1133 1579 basechar 0
AnchorPoint: "Anchor-0" 947 1579 basechar 0
AnchorPoint: "Anchor-30" 1040 1579 basechar 0
AnchorPoint: "Anchor-3" 739 -131 basechar 0
AnchorPoint: "Anchor-2" 1047 1618 basechar 0
LayerCount: 2
Fore
SplineSet
1522 733 m 0,0,1
 1499 602 1499 602 1454.5 489 c 128,-1,2
 1410 376 1410 376 1346.5 285.5 c 128,-1,3
 1283 195 1283 195 1200.5 128.5 c 128,-1,4
 1118 62 1118 62 1018 25 c 1,5,-1
 1291 -348 l 1,6,-1
 1047 -348 l 1,7,-1
 828 -16 l 1,8,9
 811 -18 811 -18 792.5 -19 c 128,-1,10
 774 -20 774 -20 756 -20 c 0,11,12
 593 -20 593 -20 483.5 34 c 128,-1,13
 374 88 374 88 312.5 187 c 128,-1,14
 251 286 251 286 238 425.5 c 128,-1,15
 225 565 225 565 255 735 c 256,16,17
 285 905 285 905 347 1043.5 c 128,-1,18
 409 1182 409 1182 505.5 1280 c 128,-1,19
 602 1378 602 1378 731 1431.5 c 128,-1,20
 860 1485 860 1485 1024 1485 c 0,21,22
 1178 1485 1178 1485 1286.5 1431.5 c 128,-1,23
 1395 1378 1395 1378 1457.5 1279.5 c 128,-1,24
 1520 1181 1520 1181 1536 1042.5 c 128,-1,25
 1552 904 1552 904 1522 733 c 0,0,1
451 733 m 0,26,27
 427 596 427 596 433.5 486.5 c 128,-1,28
 440 377 440 377 480 300.5 c 128,-1,29
 520 224 520 224 595.5 183.5 c 128,-1,30
 671 143 671 143 785 143 c 256,31,32
 899 143 899 143 988.5 183.5 c 128,-1,33
 1078 224 1078 224 1145 300.5 c 128,-1,34
 1212 377 1212 377 1256.5 486.5 c 128,-1,35
 1301 596 1301 596 1325 733 c 0,36,37
 1349 871 1349 871 1343.5 980 c 128,-1,38
 1338 1089 1338 1089 1298.5 1164.5 c 128,-1,39
 1259 1240 1259 1240 1184 1280.5 c 128,-1,40
 1109 1321 1109 1321 995 1321 c 256,41,42
 881 1321 881 1321 791 1280.5 c 128,-1,43
 701 1240 701 1240 633.5 1164.5 c 128,-1,44
 566 1089 566 1089 520.5 980 c 128,-1,45
 475 871 475 871 451 733 c 0,26,27
EndSplineSet
EndChar

StartChar: R
Encoding: 82 82 53
Width: 1208
GlyphClass: 2
Flags: MW
AnchorPoint: "Anchor-1" 1009 1579 basechar 0
AnchorPoint: "Anchor-0" 755 1579 basechar 0
AnchorPoint: "Anchor-2" 889 1618 basechar 0
AnchorPoint: "Anchor-30" 882 1579 basechar 0
LayerCount: 2
Fore
SplineSet
492 604 m 1,0,-1
 385 0 l 1,1,-1
 199 0 l 1,2,-1
 457 1462 l 1,3,-1
 813 1462 l 2,4,5
 1079 1462 1079 1462 1187.5 1359 c 128,-1,6
 1296 1256 1296 1256 1260 1047 c 0,7,8
 1245 960 1245 960 1208.5 895 c 128,-1,9
 1172 830 1172 830 1123.5 783.5 c 128,-1,10
 1075 737 1075 737 1017.5 706 c 128,-1,11
 960 675 960 675 901 655 c 1,12,-1
 1184 0 l 1,13,-1
 965 0 l 1,14,-1
 721 604 l 1,15,-1
 492 604 l 1,0,-1
519 762 m 1,16,-1
 683 762 l 2,17,18
 773 762 773 762 839.5 779.5 c 128,-1,19
 906 797 906 797 952.5 831.5 c 128,-1,20
 999 866 999 866 1026.5 917.5 c 128,-1,21
 1054 969 1054 969 1066 1038 c 0,22,23
 1079 1110 1079 1110 1067 1160 c 128,-1,24
 1055 1210 1055 1210 1019.5 1242 c 128,-1,25
 984 1274 984 1274 923 1288.5 c 128,-1,26
 862 1303 862 1303 775 1303 c 2,27,-1
 615 1303 l 1,28,-1
 519 762 l 1,16,-1
EndSplineSet
EndChar

StartChar: S
Encoding: 83 83 54
Width: 1063
GlyphClass: 2
Flags: MW
AnchorPoint: "Anchor-4" 544 -152 basechar 0
AnchorPoint: "Anchor-1" 961 1579 basechar 0
AnchorPoint: "Anchor-0" 737 1579 basechar 0
AnchorPoint: "Anchor-2" 856 1618 basechar 0
AnchorPoint: "Anchor-30" 849 1579 basechar 0
LayerCount: 2
Fore
SplineSet
1038 391 m 0,0,1
 1021 294 1021 294 973 217.5 c 128,-1,2
 925 141 925 141 851.5 88 c 128,-1,3
 778 35 778 35 681 7.5 c 128,-1,4
 584 -20 584 -20 469 -20 c 0,5,6
 358 -20 358 -20 265 -2.5 c 128,-1,7
 172 15 172 15 113 49 c 1,8,-1
 144 227 l 1,9,10
 175 211 175 211 216 195.5 c 128,-1,11
 257 180 257 180 303 168 c 128,-1,12
 349 156 349 156 398.5 148.5 c 128,-1,13
 448 141 448 141 498 141 c 0,14,15
 658 141 658 141 745 201 c 128,-1,16
 832 261 832 261 852 373 c 0,17,18
 862 427 862 427 854 467 c 128,-1,19
 846 507 846 507 815.5 540.5 c 128,-1,20
 785 574 785 574 729.5 605.5 c 128,-1,21
 674 637 674 637 588 674 c 0,22,23
 505 709 505 709 447 750.5 c 128,-1,24
 389 792 389 792 355.5 844 c 128,-1,25
 322 896 322 896 313 962 c 128,-1,26
 304 1028 304 1028 319 1112 c 0,27,28
 335 1200 335 1200 379 1269 c 128,-1,29
 423 1338 423 1338 489.5 1385.5 c 128,-1,30
 556 1433 556 1433 640.5 1458 c 128,-1,31
 725 1483 725 1483 822 1483 c 0,32,33
 941 1483 941 1483 1032.5 1460.5 c 128,-1,34
 1124 1438 1124 1438 1191 1403 c 1,35,-1
 1097 1247 l 1,36,37
 1037 1276 1037 1276 958.5 1297.5 c 128,-1,38
 880 1319 880 1319 792 1319 c 0,39,40
 670 1319 670 1319 593 1262.5 c 128,-1,41
 516 1206 516 1206 499 1110 c 0,42,43
 489 1053 489 1053 496.5 1011.5 c 128,-1,44
 504 970 504 970 533 936.5 c 128,-1,45
 562 903 562 903 614.5 873.5 c 128,-1,46
 667 844 667 844 745 811 c 0,47,48
 830 775 830 775 891.5 737 c 128,-1,49
 953 699 953 699 990.5 651 c 128,-1,50
 1028 603 1028 603 1040.5 540 c 128,-1,51
 1053 477 1053 477 1038 391 c 0,0,1
EndSplineSet
EndChar

StartChar: T
Encoding: 84 84 55
Width: 1063
GlyphClass: 2
Flags: MW
AnchorPoint: "Anchor-1" 903 1579 basechar 0
AnchorPoint: "Anchor-0" 716 1579 basechar 0
AnchorPoint: "Anchor-2" 816 1618 basechar 0
AnchorPoint: "Anchor-30" 809 1579 basechar 0
LayerCount: 2
Fore
SplineSet
625 0 m 1,0,-1
 438 0 l 1,1,-1
 667 1298 l 1,2,-1
 249 1298 l 1,3,-1
 278 1462 l 1,4,-1
 1300 1462 l 1,5,-1
 1271 1298 l 1,6,-1
 854 1298 l 1,7,-1
 625 0 l 1,0,-1
EndSplineSet
EndChar

StartChar: U
Encoding: 85 85 56
Width: 1430
GlyphClass: 2
Flags: MW
AnchorPoint: "Anchor-4" 687 -152 basechar 0
AnchorPoint: "Anchor-1" 1085 1579 basechar 0
AnchorPoint: "Anchor-0" 899 1579 basechar 0
AnchorPoint: "Anchor-30" 992 1579 basechar 0
AnchorPoint: "Anchor-2" 999 1618 basechar 0
LayerCount: 2
Fore
SplineSet
1503 1464 m 1,0,-1
 1336 516 l 2,1,2
 1316 402 1316 402 1265.5 304 c 128,-1,3
 1215 206 1215 206 1136 134 c 128,-1,4
 1057 62 1057 62 949 21 c 128,-1,5
 841 -20 841 -20 705 -20 c 0,6,7
 577 -20 577 -20 486 18.5 c 128,-1,8
 395 57 395 57 341 128 c 128,-1,9
 287 199 287 199 270.5 298.5 c 128,-1,10
 254 398 254 398 276 520 c 2,11,-1
 442 1462 l 1,12,-1
 629 1462 l 1,13,-1
 461 510 l 2,14,15
 430 335 430 335 499.5 239 c 128,-1,16
 569 143 569 143 744 143 c 0,17,18
 833 143 833 143 902 170 c 128,-1,19
 971 197 971 197 1020.5 246 c 128,-1,20
 1070 295 1070 295 1102 363 c 128,-1,21
 1134 431 1134 431 1149 512 c 2,22,-1
 1317 1464 l 1,23,-1
 1503 1464 l 1,0,-1
EndSplineSet
EndChar

StartChar: V
Encoding: 86 86 57
Width: 1163
GlyphClass: 2
Flags: MW
AnchorPoint: "Anchor-30" 858 1579 basechar 0
AnchorPoint: "Anchor-1" 951 1579 basechar 0
AnchorPoint: "Anchor-0" 765 1579 basechar 0
AnchorPoint: "Anchor-2" 865 1618 basechar 0
LayerCount: 2
Fore
SplineSet
1223 1462 m 1,0,-1
 1421 1462 l 1,1,-1
 674 0 l 1,2,-1
 487 0 l 1,3,-1
 258 1462 l 1,4,-1
 455 1462 l 1,5,-1
 586 535 l 2,6,7
 599 444 599 444 605 359.5 c 128,-1,8
 611 275 611 275 615 201 c 1,9,10
 643 275 643 275 681 359.5 c 128,-1,11
 719 444 719 444 767 541 c 2,12,-1
 1223 1462 l 1,0,-1
EndSplineSet
EndChar

StartChar: W
Encoding: 87 87 58
Width: 1810
GlyphClass: 2
Flags: MW
AnchorPoint: "Anchor-2" 1190 1618 basechar 0
AnchorPoint: "Anchor-30" 1183 1579 basechar 0
AnchorPoint: "Anchor-0" 1087 1579 basechar 0
AnchorPoint: "Anchor-1" 1284 1579 basechar 0
LayerCount: 2
Fore
SplineSet
1067 1462 m 1,0,-1
 1264 1462 l 1,1,-1
 1342 606 l 2,2,3
 1347 550 1347 550 1351.5 494 c 128,-1,4
 1356 438 1356 438 1359.5 385.5 c 128,-1,5
 1363 333 1363 333 1364 286 c 128,-1,6
 1365 239 1365 239 1364 201 c 1,7,8
 1375 239 1375 239 1389 284 c 128,-1,9
 1403 329 1403 329 1419.5 378.5 c 128,-1,10
 1436 428 1436 428 1455 479.5 c 128,-1,11
 1474 531 1474 531 1493 580 c 2,12,-1
 1849 1462 l 1,13,-1
 2048 1462 l 1,14,-1
 1423 0 l 1,15,-1
 1235 0 l 1,16,-1
 1146 938 l 2,17,18
 1141 989 1141 989 1137.5 1043 c 128,-1,19
 1134 1097 1134 1097 1132 1144 c 0,20,21
 1130 1199 1130 1199 1128 1251 c 1,22,23
 1108 1200 1108 1200 1087 1145 c 0,24,25
 1069 1098 1069 1098 1046.5 1042 c 128,-1,26
 1024 986 1024 986 1000 932 c 2,27,-1
 594 0 l 1,28,-1
 406 0 l 1,29,-1
 278 1462 l 1,30,-1
 475 1462 l 1,31,-1
 541 573 l 2,32,33
 545 527 545 527 546 477.5 c 128,-1,34
 547 428 547 428 547 379 c 128,-1,35
 547 330 547 330 546 284.5 c 128,-1,36
 545 239 545 239 543 201 c 1,37,38
 555 238 555 238 571 287 c 128,-1,39
 587 336 587 336 606.5 390 c 128,-1,40
 626 444 626 444 647.5 499.5 c 128,-1,41
 669 555 669 555 691 604 c 2,42,-1
 1067 1462 l 1,0,-1
EndSplineSet
EndChar

StartChar: X
Encoding: 88 88 59
Width: 1120
GlyphClass: 2
Flags: MW
AnchorPoint: "Anchor-3" 538 -131 basechar 0
AnchorPoint: "Anchor-4" 534 -152 basechar 0
AnchorPoint: "Anchor-30" 839 1579 basechar 0
AnchorPoint: "Anchor-1" 932 1579 basechar 0
AnchorPoint: "Anchor-0" 746 1579 basechar 0
AnchorPoint: "Anchor-2" 846 1618 basechar 0
LayerCount: 2
Fore
SplineSet
1120 0 m 1,0,-1
 909 0 l 1,1,-1
 667 635 l 1,2,-1
 188 0 l 1,3,-1
 0 0 l 1,4,-1
 588 764 l 1,5,-1
 289 1462 l 1,6,-1
 487 1462 l 1,7,-1
 720 903 l 1,8,-1
 1153 1462 l 1,9,-1
 1343 1462 l 1,10,-1
 800 770 l 1,11,-1
 1120 0 l 1,0,-1
EndSplineSet
EndChar

StartChar: Y
Encoding: 89 89 60
Width: 1079
GlyphClass: 2
Flags: MW
AnchorPoint: "Anchor-18" 817 1579 basechar 0
AnchorPoint: "Anchor-19" 817 1579 basechar 0
AnchorPoint: "Anchor-4" 512 -152 basechar 0
AnchorPoint: "Anchor-1" 910 1579 basechar 0
AnchorPoint: "Anchor-0" 724 1579 basechar 0
AnchorPoint: "Anchor-2" 824 1618 basechar 0
AnchorPoint: "Anchor-30" 817 1579 basechar 0
LayerCount: 2
Fore
SplineSet
666 723 m 1,0,-1
 1137 1462 l 1,1,-1
 1337 1462 l 1,2,-1
 733 569 l 1,3,-1
 633 0 l 1,4,-1
 446 0 l 1,5,-1
 545 559 l 1,6,-1
 258 1462 l 1,7,-1
 461 1462 l 1,8,-1
 666 723 l 1,0,-1
EndSplineSet
EndChar

StartChar: Z
Encoding: 90 90 61
Width: 1104
GlyphClass: 2
Flags: MW
AnchorPoint: "Anchor-1" 922 1579 basechar 0
AnchorPoint: "Anchor-0" 736 1579 basechar 0
AnchorPoint: "Anchor-2" 836 1618 basechar 0
AnchorPoint: "Anchor-30" 829 1579 basechar 0
LayerCount: 2
Fore
SplineSet
1022 0 m 1,0,-1
 82 0 l 1,1,-1
 108 145 l 1,2,-1
 1022 1296 l 1,3,-1
 331 1296 l 1,4,-1
 360 1462 l 1,5,-1
 1259 1462 l 1,6,-1
 1233 1317 l 1,7,-1
 320 166 l 1,8,-1
 1051 166 l 1,9,-1
 1022 0 l 1,0,-1
EndSplineSet
EndChar

StartChar: bracketleft
Encoding: 91 91 62
Width: 621
GlyphClass: 2
Flags: MW
LayerCount: 2
Fore
SplineSet
512 -324 m 1,0,-1
 107 -324 l 1,1,-1
 422 1462 l 1,2,-1
 827 1462 l 1,3,-1
 801 1313 l 1,4,-1
 578 1313 l 1,5,-1
 315 -174 l 1,6,-1
 538 -174 l 1,7,-1
 512 -324 l 1,0,-1
EndSplineSet
EndChar

StartChar: backslash
Encoding: 92 92 63
Width: 764
GlyphClass: 2
Flags: MW
LayerCount: 2
Fore
SplineSet
459 1462 m 1,0,-1
 745 0 l 1,1,-1
 567 0 l 1,2,-1
 281 1462 l 1,3,-1
 459 1462 l 1,0,-1
EndSplineSet
EndChar

StartChar: bracketright
Encoding: 93 93 64
Width: 621
GlyphClass: 2
Flags: MW
LayerCount: 2
Fore
SplineSet
20 -174 m 1,0,-1
 243 -174 l 1,1,-1
 506 1313 l 1,2,-1
 283 1313 l 1,3,-1
 309 1462 l 1,4,-1
 715 1462 l 1,5,-1
 400 -324 l 1,6,-1
 -6 -324 l 1,7,-1
 20 -174 l 1,0,-1
EndSplineSet
EndChar

StartChar: asciicircum
Encoding: 94 94 65
Width: 1090
GlyphClass: 2
Flags: MW
LayerCount: 2
Fore
SplineSet
138 549 m 1,0,-1
 760 1473 l 1,1,-1
 862 1473 l 1,2,-1
 1146 549 l 1,3,-1
 985 549 l 1,4,-1
 777 1284 l 1,5,-1
 299 549 l 1,6,-1
 138 549 l 1,0,-1
EndSplineSet
EndChar

StartChar: underscore
Encoding: 95 95 66
Width: 842
GlyphClass: 2
Flags: MW
LayerCount: 2
Fore
SplineSet
789 -324 m 1,0,-1
 -61 -324 l 1,1,-1
 -36 -184 l 1,2,-1
 814 -184 l 1,3,-1
 789 -324 l 1,0,-1
EndSplineSet
EndChar

StartChar: grave
Encoding: 96 96 67
Width: 1182
GlyphClass: 2
Flags: MW
LayerCount: 2
Fore
SplineSet
1005 1241 m 1,0,-1
 885 1241 l 1,1,2
 855 1269 855 1269 821 1310.5 c 128,-1,3
 787 1352 787 1352 756.5 1396 c 128,-1,4
 726 1440 726 1440 701.5 1480.5 c 128,-1,5
 677 1521 677 1521 666 1548 c 1,6,-1
 670 1569 l 1,7,-1
 889 1569 l 1,8,9
 899 1535 899 1535 913 1494.5 c 128,-1,10
 927 1454 927 1454 943 1413.5 c 128,-1,11
 959 1373 959 1373 976.5 1335 c 128,-1,12
 994 1297 994 1297 1010 1268 c 1,13,-1
 1005 1241 l 1,0,-1
EndSplineSet
EndChar

StartChar: a
Encoding: 97 97 68
Width: 1087
GlyphClass: 2
Flags: MW
AnchorPoint: "Anchor-18" 779 1241 basechar 0
AnchorPoint: "Anchor-19" 779 1241 basechar 0
AnchorPoint: "Anchor-4" 533 -152 basechar 0
AnchorPoint: "Anchor-2" 786 1280 basechar 0
AnchorPoint: "Anchor-30" 779 1241 basechar 0
AnchorPoint: "Anchor-1" 897 1241 basechar 0
AnchorPoint: "Anchor-0" 665 1241 basechar 0
LayerCount: 2
Fore
SplineSet
793 0 m 1,0,-1
 783 152 l 1,1,-1
 775 152 l 1,2,3
 734 107 734 107 695 74.5 c 128,-1,4
 656 42 656 42 613.5 21 c 128,-1,5
 571 0 571 0 521 -10 c 128,-1,6
 471 -20 471 -20 408 -20 c 0,7,8
 339 -20 339 -20 284.5 -0.5 c 128,-1,9
 230 19 230 19 195 59.5 c 128,-1,10
 160 100 160 100 146.5 161.5 c 128,-1,11
 133 223 133 223 148 307 c 0,12,13
 177 471 177 471 308 559 c 128,-1,14
 439 647 439 647 676 655 c 2,15,-1
 862 662 l 1,16,-1
 874 731 l 2,17,18
 886 798 886 798 879.5 843 c 128,-1,19
 873 888 873 888 850 915.5 c 128,-1,20
 827 943 827 943 789 955 c 128,-1,21
 751 967 751 967 699 967 c 0,22,23
 616 967 616 967 540 943 c 128,-1,24
 464 919 464 919 392 885 c 1,25,-1
 352 1022 l 1,26,27
 433 1062 433 1062 529 1090 c 128,-1,28
 625 1118 625 1118 725 1118 c 0,29,30
 827 1118 827 1118 898 1097.5 c 128,-1,31
 969 1077 969 1077 1009.5 1032.5 c 128,-1,32
 1050 988 1050 988 1062 919 c 128,-1,33
 1074 850 1074 850 1057 752 c 2,34,-1
 924 0 l 1,35,-1
 793 0 l 1,0,-1
481 127 m 0,36,37
 542 127 542 127 597.5 146 c 128,-1,38
 653 165 653 165 698 203.5 c 128,-1,39
 743 242 743 242 774.5 300.5 c 128,-1,40
 806 359 806 359 820 438 c 2,41,-1
 838 537 l 1,42,-1
 693 530 l 2,43,44
 602 526 602 526 538.5 510 c 128,-1,45
 475 494 475 494 433.5 465.5 c 128,-1,46
 392 437 392 437 369 396.5 c 128,-1,47
 346 356 346 356 337 305 c 0,48,49
 321 213 321 213 361.5 170 c 128,-1,50
 402 127 402 127 481 127 c 0,36,37
EndSplineSet
EndChar

StartChar: b
Encoding: 98 98 69
Width: 1200
GlyphClass: 2
Flags: MW
AnchorPoint: "Anchor-4" 603 -152 basechar 0
AnchorPoint: "Anchor-30" 998 1579 basechar 0
AnchorPoint: "Anchor-1" 1091 1579 basechar 0
AnchorPoint: "Anchor-0" 905 1579 basechar 0
AnchorPoint: "Anchor-2" 946 1280 basechar 0
LayerCount: 2
Fore
SplineSet
867 1118 m 0,0,1
 961 1118 961 1118 1031.5 1082 c 128,-1,2
 1102 1046 1102 1046 1144 974.5 c 128,-1,3
 1186 903 1186 903 1197.5 797 c 128,-1,4
 1209 691 1209 691 1184 551 c 0,5,6
 1159 410 1159 410 1110.5 303.5 c 128,-1,7
 1062 197 1062 197 994.5 125 c 128,-1,8
 927 53 927 53 843.5 16.5 c 128,-1,9
 760 -20 760 -20 666 -20 c 0,10,11
 607 -20 607 -20 561.5 -7 c 128,-1,12
 516 6 516 6 481.5 27.5 c 128,-1,13
 447 49 447 49 422.5 78 c 128,-1,14
 398 107 398 107 381 139 c 1,15,-1
 369 139 l 1,16,-1
 307 0 l 1,17,-1
 174 0 l 1,18,-1
 448 1556 l 1,19,-1
 630 1556 l 1,20,-1
 564 1180 l 2,21,22
 558 1145 558 1145 550 1105.5 c 128,-1,23
 542 1066 542 1066 534 1032 c 0,24,25
 525 992 525 992 516 954 c 1,26,-1
 524 954 l 1,27,28
 553 989 553 989 587.5 1019 c 128,-1,29
 622 1049 622 1049 664.5 1071 c 128,-1,30
 707 1093 707 1093 757 1105.5 c 128,-1,31
 807 1118 807 1118 867 1118 c 0,0,1
806 967 m 0,32,33
 726 967 726 967 668 941.5 c 128,-1,34
 610 916 610 916 568 864 c 128,-1,35
 526 812 526 812 499 734 c 128,-1,36
 472 656 472 656 453 551 c 0,37,38
 435 450 435 450 435 371.5 c 128,-1,39
 435 293 435 293 458 239.5 c 128,-1,40
 481 186 481 186 530 158.5 c 128,-1,41
 579 131 579 131 660 131 c 0,42,43
 795 131 795 131 878 240 c 128,-1,44
 961 349 961 349 997 553 c 0,45,46
 1034 761 1034 761 988.5 864 c 128,-1,47
 943 967 943 967 806 967 c 0,32,33
EndSplineSet
EndChar

StartChar: c
Encoding: 99 99 70
Width: 948
GlyphClass: 2
Flags: MW
AnchorPoint: "Anchor-4" 546 -152 basechar 0
AnchorPoint: "Anchor-1" 898 1241 basechar 0
AnchorPoint: "Anchor-0" 686 1241 basechar 0
AnchorPoint: "Anchor-2" 799 1280 basechar 0
AnchorPoint: "Anchor-30" 792 1241 basechar 0
AnchorPoint: "Anchor-3" 550 -131 basechar 0
LayerCount: 2
Fore
SplineSet
590 -20 m 0,0,1
 489 -20 489 -20 407 11.5 c 128,-1,2
 325 43 325 43 272 111.5 c 128,-1,3
 219 180 219 180 200.5 286.5 c 128,-1,4
 182 393 182 393 209 543 c 0,5,6
 237 700 237 700 294 809.5 c 128,-1,7
 351 919 351 919 429.5 987.5 c 128,-1,8
 508 1056 508 1056 602.5 1087 c 128,-1,9
 697 1118 697 1118 799 1118 c 0,10,11
 877 1118 877 1118 948.5 1101 c 128,-1,12
 1020 1084 1020 1084 1066 1059 c 1,13,-1
 985 905 l 1,14,15
 964 915 964 915 937.5 924.5 c 128,-1,16
 911 934 911 934 882 941.5 c 128,-1,17
 853 949 853 949 825 953.5 c 128,-1,18
 797 958 797 958 771 958 c 0,19,20
 614 958 614 958 524 857.5 c 128,-1,21
 434 757 434 757 397 545 c 0,22,23
 360 334 360 334 415.5 236.5 c 128,-1,24
 471 139 471 139 619 139 c 0,25,26
 700 139 700 139 768.5 157.5 c 128,-1,27
 837 176 837 176 895 201 c 1,28,-1
 867 39 l 1,29,30
 808 10 808 10 743.5 -5 c 128,-1,31
 679 -20 679 -20 590 -20 c 0,0,1
EndSplineSet
EndChar

StartChar: d
Encoding: 100 100 71
Width: 1200
GlyphClass: 2
Flags: MW
AnchorPoint: "Anchor-4" 542 -152 basechar 0
AnchorPoint: "Anchor-30" 756 1579 basechar 0
AnchorPoint: "Anchor-1" 849 1579 basechar 0
AnchorPoint: "Anchor-2" 704 1280 basechar 0
AnchorPoint: "Anchor-0" 663 1579 basechar 0
LayerCount: 2
Fore
SplineSet
878 147 m 1,0,-1
 870 147 l 1,1,2
 842 113 842 113 807 82.5 c 128,-1,3
 772 52 772 52 729.5 29 c 128,-1,4
 687 6 687 6 636.5 -7 c 128,-1,5
 586 -20 586 -20 526 -20 c 0,6,7
 433 -20 433 -20 362.5 16 c 128,-1,8
 292 52 292 52 249.5 123.5 c 128,-1,9
 207 195 207 195 196 301 c 128,-1,10
 185 407 185 407 209 547 c 0,11,12
 234 688 234 688 283 794.5 c 128,-1,13
 332 901 332 901 399.5 973 c 128,-1,14
 467 1045 467 1045 550.5 1081.5 c 128,-1,15
 634 1118 634 1118 727 1118 c 0,16,17
 786 1118 786 1118 832 1105 c 128,-1,18
 878 1092 878 1092 912.5 1070 c 128,-1,19
 947 1048 947 1048 972 1019 c 128,-1,20
 997 990 997 990 1013 958 c 1,21,-1
 1025 958 l 1,22,23
 1028 992 1028 992 1030 1023 c 0,24,25
 1033 1049 1033 1049 1036 1076.5 c 128,-1,26
 1039 1104 1039 1104 1041 1120 c 2,27,-1
 1118 1556 l 1,28,-1
 1300 1556 l 1,29,-1
 1026 0 l 1,30,-1
 879 0 l 1,31,-1
 878 147 l 1,0,-1
588 131 m 0,32,33
 664 131 664 131 720.5 154 c 128,-1,34
 777 177 777 177 818 224 c 128,-1,35
 859 271 859 271 887 341.5 c 128,-1,36
 915 412 915 412 933 506 c 2,37,-1
 940 547 l 2,38,39
 958 648 958 648 958.5 726.5 c 128,-1,40
 959 805 959 805 936 858.5 c 128,-1,41
 913 912 913 912 864 939.5 c 128,-1,42
 815 967 815 967 734 967 c 0,43,44
 599 967 599 967 516 858 c 128,-1,45
 433 749 433 749 397 545 c 0,46,47
 360 336 360 336 405.5 233.5 c 128,-1,48
 451 131 451 131 588 131 c 0,32,33
EndSplineSet
EndChar

StartChar: e
Encoding: 101 101 72
Width: 1096
GlyphClass: 2
Flags: MW
AnchorPoint: "Anchor-18" 775 1241 basechar 0
AnchorPoint: "Anchor-19" 775 1241 basechar 0
AnchorPoint: "Anchor-4" 529 -152 basechar 0
AnchorPoint: "Anchor-2" 782 1280 basechar 0
AnchorPoint: "Anchor-30" 775 1241 basechar 0
AnchorPoint: "Anchor-1" 897 1241 basechar 0
AnchorPoint: "Anchor-0" 694 1241 basechar 0
LayerCount: 2
Fore
SplineSet
604 -20 m 0,0,1
 494 -20 494 -20 410 17 c 128,-1,2
 326 54 326 54 273 125 c 128,-1,3
 220 196 220 196 202.5 301 c 128,-1,4
 185 406 185 406 208 541 c 0,5,6
 232 677 232 677 284 784 c 128,-1,7
 336 891 336 891 409 965.5 c 128,-1,8
 482 1040 482 1040 572.5 1079 c 128,-1,9
 663 1118 663 1118 764 1118 c 0,10,11
 863 1118 863 1118 936 1082.5 c 128,-1,12
 1009 1047 1009 1047 1052.5 982.5 c 128,-1,13
 1096 918 1096 918 1109.5 827.5 c 128,-1,14
 1123 737 1123 737 1104 627 c 2,15,-1
 1084 514 l 1,16,-1
 392 514 l 1,17,18
 363 321 363 321 423.5 230 c 128,-1,19
 484 139 484 139 635 139 c 0,20,21
 686 139 686 139 730 144 c 128,-1,22
 774 149 774 149 816.5 158.5 c 128,-1,23
 859 168 859 168 899.5 182.5 c 128,-1,24
 940 197 940 197 982 215 c 1,25,-1
 953 53 l 1,26,27
 910 34 910 34 869 20 c 128,-1,28
 828 6 828 6 786 -3 c 128,-1,29
 744 -12 744 -12 699.5 -16 c 128,-1,30
 655 -20 655 -20 604 -20 c 0,0,1
734 967 m 0,31,32
 620 967 620 967 539.5 889 c 128,-1,33
 459 811 459 811 422 662 c 1,34,-1
 914 662 l 1,35,36
 926 730 926 730 922.5 786.5 c 128,-1,37
 919 843 919 843 897.5 883 c 128,-1,38
 876 923 876 923 836 945 c 128,-1,39
 796 967 796 967 734 967 c 0,31,32
EndSplineSet
EndChar

StartChar: f
Encoding: 102 102 73
Width: 674
GlyphClass: 2
Flags: MW
AnchorPoint: "Anchor-1" 933 1618 basechar 0
AnchorPoint: "Anchor-0" 747 1618 basechar 0
AnchorPoint: "Anchor-2" 847 1657 basechar 0
AnchorPoint: "Anchor-30" 840 1618 basechar 0
AnchorPoint: "Anchor-3" 291 -131 basechar 0
LayerCount: 2
Fore
SplineSet
820 961 m 1,0,-1
 575 961 l 1,1,-1
 406 0 l 1,2,-1
 223 0 l 1,3,-1
 392 961 l 1,4,-1
 198 961 l 1,5,-1
 212 1036 l 1,6,-1
 418 1104 l 1,7,-1
 435 1200 l 2,8,9
 454 1307 454 1307 488.5 1377.5 c 128,-1,10
 523 1448 523 1448 573 1490 c 128,-1,11
 623 1532 623 1532 688 1549.5 c 128,-1,12
 753 1567 753 1567 831 1567 c 0,13,14
 890 1567 890 1567 937.5 1555.5 c 128,-1,15
 985 1544 985 1544 1022 1530 c 1,16,-1
 950 1389 l 1,17,18
 921 1400 921 1400 886 1408.5 c 128,-1,19
 851 1417 851 1417 811 1417 c 256,20,21
 771 1417 771 1417 740.5 1407.5 c 128,-1,22
 710 1398 710 1398 686.5 1374 c 128,-1,23
 663 1350 663 1350 646 1308.5 c 128,-1,24
 629 1267 629 1267 618 1202 c 2,25,-1
 600 1098 l 1,26,-1
 845 1098 l 1,27,-1
 820 961 l 1,0,-1
EndSplineSet
EndChar

StartChar: g
Encoding: 103 103 74
Width: 1061
GlyphClass: 2
Flags: MW
AnchorPoint: "Anchor-4" 394 -644 basechar 0
AnchorPoint: "Anchor-2" 758 1280 basechar 0
AnchorPoint: "Anchor-30" 751 1241 basechar 0
AnchorPoint: "Anchor-0" 658 1241 basechar 0
AnchorPoint: "Anchor-1" 844 1241 basechar 0
AnchorPoint: "Anchor-3" 398 -623 basechar 0
LayerCount: 2
Fore
SplineSet
1214 1098 m 1,0,-1
 1194 985 l 1,1,-1
 992 958 l 1,2,3
 1014 923 1014 923 1023.5 868.5 c 128,-1,4
 1033 814 1033 814 1020 745 c 0,5,6
 1007 669 1007 669 972 604.5 c 128,-1,7
 937 540 937 540 881.5 493 c 128,-1,8
 826 446 826 446 751 419.5 c 128,-1,9
 676 393 676 393 583 393 c 0,10,11
 561 393 561 393 539 393.5 c 128,-1,12
 517 394 517 394 504 397 c 1,13,14
 485 387 485 387 466.5 374.5 c 128,-1,15
 448 362 448 362 431.5 346 c 128,-1,16
 415 330 415 330 403 310 c 128,-1,17
 391 290 391 290 387 266 c 0,18,19
 382 239 382 239 391 222.5 c 128,-1,20
 400 206 400 206 419 197 c 128,-1,21
 438 188 438 188 465.5 185 c 128,-1,22
 493 182 493 182 524 182 c 2,23,-1
 700 182 l 2,24,25
 793 182 793 182 853 158.5 c 128,-1,26
 913 135 913 135 946.5 95 c 128,-1,27
 980 55 980 55 988 0.5 c 128,-1,28
 996 -54 996 -54 986 -115 c 0,29,30
 970 -203 970 -203 925.5 -273 c 128,-1,31
 881 -343 881 -343 805 -391.5 c 128,-1,32
 729 -440 729 -440 622 -466 c 128,-1,33
 515 -492 515 -492 376 -492 c 0,34,35
 269 -492 269 -492 193 -471 c 128,-1,36
 117 -450 117 -450 71 -410 c 128,-1,37
 25 -370 25 -370 8.5 -313.5 c 128,-1,38
 -8 -257 -8 -257 4 -186 c 0,39,40
 15 -126 15 -126 42.5 -80.5 c 128,-1,41
 70 -35 70 -35 108.5 -2 c 128,-1,42
 147 31 147 31 194.5 52 c 128,-1,43
 242 73 242 73 291 84 c 1,44,45
 252 103 252 103 232.5 144 c 128,-1,46
 213 185 213 185 222 238 c 0,47,48
 233 299 233 299 272.5 343.5 c 128,-1,49
 312 388 312 388 389 430 c 1,50,51
 349 448 349 448 319 479.5 c 128,-1,52
 289 511 289 511 271.5 551.5 c 128,-1,53
 254 592 254 592 249 640 c 128,-1,54
 244 688 244 688 253 739 c 0,55,56
 269 828 269 828 306.5 898 c 128,-1,57
 344 968 344 968 401.5 1017 c 128,-1,58
 459 1066 459 1066 536.5 1092 c 128,-1,59
 614 1118 614 1118 711 1118 c 0,60,61
 748 1118 748 1118 786.5 1112.5 c 128,-1,62
 825 1107 825 1107 851 1098 c 1,63,-1
 1214 1098 l 1,0,-1
177 -180 m 0,64,65
 170 -217 170 -217 177.5 -249 c 128,-1,66
 185 -281 185 -281 210.5 -304 c 128,-1,67
 236 -327 236 -327 282.5 -340.5 c 128,-1,68
 329 -354 329 -354 401 -354 c 0,69,70
 587 -354 587 -354 689.5 -296.5 c 128,-1,71
 792 -239 792 -239 811 -131 c 0,72,73
 819 -85 819 -85 812 -56 c 128,-1,74
 805 -27 805 -27 780.5 -10.5 c 128,-1,75
 756 6 756 6 712 12 c 128,-1,76
 668 18 668 18 603 18 c 2,77,-1
 427 18 l 2,78,79
 392 18 392 18 352.5 10 c 128,-1,80
 313 2 313 2 278 -20 c 128,-1,81
 243 -42 243 -42 215.5 -80.5 c 128,-1,82
 188 -119 188 -119 177 -180 c 0,64,65
432 745 m 0,83,84
 412 630 412 630 456 574 c 128,-1,85
 500 518 500 518 599 518 c 0,86,87
 699 518 699 518 760.5 573.5 c 128,-1,88
 822 629 822 629 843 748 c 0,89,90
 865 871 865 871 822.5 929 c 128,-1,91
 780 987 780 987 680 987 c 0,92,93
 581 987 581 987 517.5 927 c 128,-1,94
 454 867 454 867 432 745 c 0,83,84
EndSplineSet
EndChar

StartChar: h
Encoding: 104 104 75
Width: 1206
GlyphClass: 2
Flags: MW
AnchorPoint: "Anchor-4" 581 -152 basechar 0
AnchorPoint: "Anchor-30" 977 1579 basechar 0
AnchorPoint: "Anchor-1" 1070 1579 basechar 0
AnchorPoint: "Anchor-0" 884 1579 basechar 0
AnchorPoint: "Anchor-2" 925 1280 basechar 0
LayerCount: 2
Fore
SplineSet
860 0 m 1,0,-1
 985 707 l 2,1,2
 1008 837 1008 837 967 902 c 128,-1,3
 926 967 926 967 814 967 c 0,4,5
 733 967 733 967 673 941 c 128,-1,6
 613 915 613 915 570.5 864 c 128,-1,7
 528 813 528 813 500.5 739 c 128,-1,8
 473 665 473 665 456 569 c 2,9,-1
 356 0 l 1,10,-1
 174 0 l 1,11,-1
 448 1556 l 1,12,-1
 630 1556 l 1,13,-1
 549 1094 l 1,14,-1
 516 950 l 1,15,-1
 526 950 l 1,16,17
 559 993 559 993 598.5 1024.5 c 128,-1,18
 638 1056 638 1056 683 1077 c 128,-1,19
 728 1098 728 1098 775.5 1108 c 128,-1,20
 823 1118 823 1118 871 1118 c 0,21,22
 1054 1118 1054 1118 1129.5 1022.5 c 128,-1,23
 1205 927 1205 927 1168 717 c 2,24,-1
 1042 0 l 1,25,-1
 860 0 l 1,0,-1
EndSplineSet
EndChar

StartChar: i
Encoding: 105 105 76
Width: 530
GlyphClass: 2
Flags: MW
AnchorPoint: "Anchor-18" 544 1579 basechar 0
AnchorPoint: "Anchor-19" 544 1579 basechar 0
AnchorPoint: "Anchor-4" 238 -152 basechar 0
AnchorPoint: "Anchor-30" 544 1579 basechar 0
AnchorPoint: "Anchor-2" 551 1618 basechar 0
AnchorPoint: "Anchor-0" 452 1579 basechar 0
AnchorPoint: "Anchor-1" 634 1579 basechar 0
AnchorPoint: "Anchor-3" 242 -131 basechar 0
LayerCount: 2
Fore
SplineSet
356 0 m 1,0,-1
 174 0 l 1,1,-1
 368 1098 l 1,2,-1
 550 1098 l 1,3,-1
 356 0 l 1,0,-1
406 1395 m 0,4,5
 417 1455 417 1455 452 1482 c 128,-1,6
 487 1509 487 1509 532 1509 c 0,7,8
 554 1509 554 1509 572.5 1502.5 c 128,-1,9
 591 1496 591 1496 603 1482 c 128,-1,10
 615 1468 615 1468 619.5 1446.5 c 128,-1,11
 624 1425 624 1425 619 1395 c 0,12,13
 609 1337 609 1337 572.5 1308.5 c 128,-1,14
 536 1280 536 1280 492 1280 c 0,15,16
 447 1280 447 1280 421.5 1308 c 128,-1,17
 396 1336 396 1336 406 1395 c 0,4,5
EndSplineSet
Substitution2: "Single Substitution lookup 0 subtable" dotlessi
EndChar

StartChar: j
Encoding: 106 106 77
Width: 530
GlyphClass: 2
Flags: MW
AnchorPoint: "Anchor-4" 30 -644 basechar 0
AnchorPoint: "Anchor-1" 634 1579 basechar 0
AnchorPoint: "Anchor-0" 452 1579 basechar 0
AnchorPoint: "Anchor-2" 551 1618 basechar 0
AnchorPoint: "Anchor-30" 544 1579 basechar 0
AnchorPoint: "Anchor-3" 155 -623 basechar 0
LayerCount: 2
Fore
SplineSet
-21 -492 m 0,0,1
 -69 -492 -69 -492 -99 -485 c 128,-1,2
 -129 -478 -129 -478 -150 -467 c 1,3,-1
 -124 -319 l 1,4,5
 -100 -329 -100 -329 -74 -334.5 c 128,-1,6
 -48 -340 -48 -340 -13 -340 c 0,7,8
 14 -340 14 -340 38.5 -332.5 c 128,-1,9
 63 -325 63 -325 84 -305.5 c 128,-1,10
 105 -286 105 -286 120 -253.5 c 128,-1,11
 135 -221 135 -221 144 -170 c 2,12,-1
 368 1098 l 1,13,-1
 550 1098 l 1,14,-1
 328 -158 l 2,15,16
 314 -235 314 -235 286.5 -296.5 c 128,-1,17
 259 -358 259 -358 215.5 -401.5 c 128,-1,18
 172 -445 172 -445 113 -468.5 c 128,-1,19
 54 -492 54 -492 -21 -492 c 0,0,1
406 1395 m 0,20,21
 417 1455 417 1455 452 1482 c 128,-1,22
 487 1509 487 1509 532 1509 c 0,23,24
 554 1509 554 1509 572.5 1502.5 c 128,-1,25
 591 1496 591 1496 603 1482 c 128,-1,26
 615 1468 615 1468 619.5 1446.5 c 128,-1,27
 624 1425 624 1425 619 1395 c 0,28,29
 609 1337 609 1337 572.5 1308.5 c 128,-1,30
 536 1280 536 1280 492 1280 c 0,31,32
 447 1280 447 1280 421.5 1308 c 128,-1,33
 396 1336 396 1336 406 1395 c 0,20,21
EndSplineSet
Substitution2: "Single Substitution lookup 0 subtable" dotlessj
EndChar

StartChar: k
Encoding: 107 107 78
Width: 1016
GlyphClass: 2
Flags: MW
AnchorPoint: "Anchor-1" 1039 1579 basechar 0
AnchorPoint: "Anchor-0" 853 1579 basechar 0
AnchorPoint: "Anchor-30" 946 1579 basechar 0
AnchorPoint: "Anchor-2" 894 1280 basechar 0
LayerCount: 2
Fore
SplineSet
442 567 m 1,0,-1
 607 737 l 1,1,-1
 964 1098 l 1,2,-1
 1175 1098 l 1,3,-1
 690 623 l 1,4,-1
 1008 0 l 1,5,-1
 799 0 l 1,6,-1
 552 504 l 1,7,-1
 428 422 l 1,8,-1
 354 0 l 1,9,-1
 174 0 l 1,10,-1
 448 1556 l 1,11,-1
 628 1556 l 1,12,-1
 502 842 l 1,13,-1
 438 567 l 1,14,-1
 442 567 l 1,0,-1
EndSplineSet
EndChar

StartChar: l
Encoding: 108 108 79
Width: 530
GlyphClass: 2
Flags: MW
AnchorPoint: "Anchor-4" 238 -152 basechar 0
AnchorPoint: "Anchor-1" 641 1618 basechar 0
AnchorPoint: "Anchor-0" 459 1618 basechar 0
AnchorPoint: "Anchor-30" 550 1618 basechar 0
AnchorPoint: "Anchor-2" 557 1657 basechar 0
LayerCount: 2
Fore
SplineSet
356 0 m 1,0,-1
 174 0 l 1,1,-1
 448 1556 l 1,2,-1
 630 1556 l 1,3,-1
 356 0 l 1,0,-1
EndSplineSet
EndChar

StartChar: m
Encoding: 109 109 80
Width: 1835
GlyphClass: 2
Flags: MW
AnchorPoint: "Anchor-18" 1141 1241 basechar 0
AnchorPoint: "Anchor-19" 1141 1241 basechar 0
AnchorPoint: "Anchor-4" 895 -152 basechar 0
AnchorPoint: "Anchor-1" 1232 1241 basechar 0
AnchorPoint: "Anchor-0" 1050 1241 basechar 0
AnchorPoint: "Anchor-2" 1148 1280 basechar 0
AnchorPoint: "Anchor-30" 1141 1241 basechar 0
LayerCount: 2
Fore
SplineSet
1489 0 m 1,0,-1
 1614 707 l 2,1,2
 1637 837 1637 837 1598.5 902 c 128,-1,3
 1560 967 1560 967 1455 967 c 0,4,5
 1382 967 1382 967 1326.5 943.5 c 128,-1,6
 1271 920 1271 920 1230.5 874.5 c 128,-1,7
 1190 829 1190 829 1163 761.5 c 128,-1,8
 1136 694 1136 694 1121 606 c 2,9,-1
 1014 0 l 1,10,-1
 831 0 l 1,11,-1
 956 707 l 2,12,13
 979 837 979 837 941 902 c 128,-1,14
 903 967 903 967 798 967 c 0,15,16
 721 967 721 967 664 941 c 128,-1,17
 607 915 607 915 566.5 864 c 128,-1,18
 526 813 526 813 499.5 739 c 128,-1,19
 473 665 473 665 456 569 c 2,20,-1
 356 0 l 1,21,-1
 174 0 l 1,22,-1
 368 1098 l 1,23,-1
 516 1098 l 1,24,-1
 516 950 l 1,25,-1
 526 950 l 1,26,27
 558 993 558 993 596 1024.5 c 128,-1,28
 634 1056 634 1056 677.5 1077 c 128,-1,29
 721 1098 721 1098 767 1108 c 128,-1,30
 813 1118 813 1118 859 1118 c 0,31,32
 979 1118 979 1118 1051 1074 c 128,-1,33
 1123 1030 1123 1030 1144 936 c 1,34,-1
 1152 936 l 1,35,36
 1186 983 1186 983 1228.5 1017 c 128,-1,37
 1271 1051 1271 1051 1318.5 1073.5 c 128,-1,38
 1366 1096 1366 1096 1416 1107 c 128,-1,39
 1466 1118 1466 1118 1516 1118 c 0,40,41
 1691 1118 1691 1118 1762.5 1022.5 c 128,-1,42
 1834 927 1834 927 1797 717 c 2,43,-1
 1671 0 l 1,44,-1
 1489 0 l 1,0,-1
EndSplineSet
EndChar

StartChar: n
Encoding: 110 110 81
Width: 1206
GlyphClass: 2
Flags: MW
AnchorPoint: "Anchor-4" 581 -152 basechar 0
AnchorPoint: "Anchor-1" 931 1241 basechar 0
AnchorPoint: "Anchor-0" 723 1241 basechar 0
AnchorPoint: "Anchor-2" 834 1280 basechar 0
AnchorPoint: "Anchor-30" 827 1241 basechar 0
LayerCount: 2
Fore
SplineSet
860 0 m 1,0,-1
 985 707 l 2,1,2
 1008 837 1008 837 967 902 c 128,-1,3
 926 967 926 967 814 967 c 0,4,5
 733 967 733 967 673 941 c 128,-1,6
 613 915 613 915 570.5 864 c 128,-1,7
 528 813 528 813 500.5 739 c 128,-1,8
 473 665 473 665 456 569 c 2,9,-1
 356 0 l 1,10,-1
 174 0 l 1,11,-1
 368 1098 l 1,12,-1
 516 1098 l 1,13,-1
 516 950 l 1,14,-1
 526 950 l 1,15,16
 559 993 559 993 598.5 1024.5 c 128,-1,17
 638 1056 638 1056 683 1077 c 128,-1,18
 728 1098 728 1098 775.5 1108 c 128,-1,19
 823 1118 823 1118 871 1118 c 0,20,21
 1054 1118 1054 1118 1129.5 1022.5 c 128,-1,22
 1205 927 1205 927 1168 717 c 2,23,-1
 1042 0 l 1,24,-1
 860 0 l 1,0,-1
EndSplineSet
EndChar

StartChar: o
Encoding: 111 111 82
Width: 1182
GlyphClass: 2
Flags: MW
AnchorPoint: "Anchor-20" 1188 1280 basechar 0
AnchorPoint: "Anchor-4" 558 -152 basechar 0
AnchorPoint: "Anchor-2" 811 1280 basechar 0
AnchorPoint: "Anchor-30" 804 1241 basechar 0
AnchorPoint: "Anchor-0" 692 1241 basechar 0
AnchorPoint: "Anchor-1" 965 1241 basechar 0
LayerCount: 2
Fore
SplineSet
1166 551 m 0,0,1
 1142 414 1142 414 1089.5 307.5 c 128,-1,2
 1037 201 1037 201 962 128.5 c 128,-1,3
 887 56 887 56 791 18 c 128,-1,4
 695 -20 695 -20 584 -20 c 0,5,6
 481 -20 481 -20 401 18 c 128,-1,7
 321 56 321 56 270 128.5 c 128,-1,8
 219 201 219 201 202.5 307.5 c 128,-1,9
 186 414 186 414 210 551 c 0,10,11
 234 687 234 687 286 792.5 c 128,-1,12
 338 898 338 898 413 970.5 c 128,-1,13
 488 1043 488 1043 584 1080.5 c 128,-1,14
 680 1118 680 1118 791 1118 c 0,15,16
 894 1118 894 1118 974.5 1080.5 c 128,-1,17
 1055 1043 1055 1043 1105.5 970.5 c 128,-1,18
 1156 898 1156 898 1173 792.5 c 128,-1,19
 1190 687 1190 687 1166 551 c 0,0,1
398 551 m 256,20,21
 361 342 361 342 411 236.5 c 128,-1,22
 461 131 461 131 615 131 c 256,23,24
 769 131 769 131 855 236.5 c 128,-1,25
 941 342 941 342 978 551 c 256,26,27
 1015 760 1015 760 965 863.5 c 128,-1,28
 915 967 915 967 761 967 c 256,29,30
 607 967 607 967 521 863.5 c 128,-1,31
 435 760 435 760 398 551 c 256,20,21
EndSplineSet
EndChar

StartChar: p
Encoding: 112 112 83
Width: 1200
GlyphClass: 2
Flags: MW
AnchorPoint: "Anchor-4" 151 -644 basechar 0
AnchorPoint: "Anchor-1" 943 1241 basechar 0
AnchorPoint: "Anchor-0" 757 1241 basechar 0
AnchorPoint: "Anchor-2" 857 1280 basechar 0
AnchorPoint: "Anchor-30" 850 1241 basechar 0
AnchorPoint: "Anchor-3" 699 -131 basechar 0
LayerCount: 2
Fore
SplineSet
666 -20 m 0,0,1
 607 -20 607 -20 561.5 -7 c 128,-1,2
 516 6 516 6 481.5 27.5 c 128,-1,3
 447 49 447 49 422.5 78 c 128,-1,4
 398 107 398 107 381 139 c 1,5,-1
 369 139 l 1,6,7
 366 105 366 105 363 74 c 0,8,9
 360 48 360 48 357.5 20.5 c 128,-1,10
 355 -7 355 -7 352 -23 c 2,11,-1
 269 -492 l 1,12,-1
 87 -492 l 1,13,-1
 368 1098 l 1,14,-1
 516 1098 l 1,15,-1
 516 950 l 1,16,-1
 524 950 l 1,17,18
 553 985 553 985 587 1015.5 c 128,-1,19
 621 1046 621 1046 663.5 1068.5 c 128,-1,20
 706 1091 706 1091 756.5 1104.5 c 128,-1,21
 807 1118 807 1118 867 1118 c 0,22,23
 961 1118 961 1118 1031.5 1082 c 128,-1,24
 1102 1046 1102 1046 1144 974.5 c 128,-1,25
 1186 903 1186 903 1197.5 797 c 128,-1,26
 1209 691 1209 691 1184 551 c 0,27,28
 1159 410 1159 410 1110.5 303.5 c 128,-1,29
 1062 197 1062 197 994.5 125 c 128,-1,30
 927 53 927 53 843.5 16.5 c 128,-1,31
 760 -20 760 -20 666 -20 c 0,0,1
806 967 m 0,32,33
 730 967 730 967 673 944 c 128,-1,34
 616 921 616 921 575.5 874 c 128,-1,35
 535 827 535 827 507 757 c 128,-1,36
 479 687 479 687 460 592 c 2,37,-1
 453 551 l 2,38,39
 435 450 435 450 435 371.5 c 128,-1,40
 435 293 435 293 458 239.5 c 128,-1,41
 481 186 481 186 530 158.5 c 128,-1,42
 579 131 579 131 660 131 c 0,43,44
 795 131 795 131 878 240 c 128,-1,45
 961 349 961 349 997 553 c 0,46,47
 1034 761 1034 761 988.5 864 c 128,-1,48
 943 967 943 967 806 967 c 0,32,33
EndSplineSet
EndChar

StartChar: q
Encoding: 113 113 84
Width: 1200
GlyphClass: 2
Flags: MW
AnchorPoint: "Anchor-1" 882 1241 basechar 0
AnchorPoint: "Anchor-0" 696 1241 basechar 0
AnchorPoint: "Anchor-30" 789 1241 basechar 0
AnchorPoint: "Anchor-3" 506 -131 basechar 0
AnchorPoint: "Anchor-2" 796 1280 basechar 0
LayerCount: 2
Fore
SplineSet
588 131 m 0,0,1
 664 131 664 131 720.5 154 c 128,-1,2
 777 177 777 177 818 224 c 128,-1,3
 859 271 859 271 887 341.5 c 128,-1,4
 915 412 915 412 933 506 c 2,5,-1
 940 547 l 2,6,7
 958 648 958 648 958.5 726.5 c 128,-1,8
 959 805 959 805 936 858.5 c 128,-1,9
 913 912 913 912 864 939.5 c 128,-1,10
 815 967 815 967 734 967 c 0,11,12
 599 967 599 967 516 858 c 128,-1,13
 433 749 433 749 397 545 c 0,14,15
 360 336 360 336 405.5 233.5 c 128,-1,16
 451 131 451 131 588 131 c 0,0,1
526 -20 m 0,17,18
 433 -20 433 -20 362.5 16 c 128,-1,19
 292 52 292 52 249.5 123.5 c 128,-1,20
 207 195 207 195 196 301 c 128,-1,21
 185 407 185 407 209 547 c 0,22,23
 234 688 234 688 283 794.5 c 128,-1,24
 332 901 332 901 399.5 973 c 128,-1,25
 467 1045 467 1045 550.5 1081.5 c 128,-1,26
 634 1118 634 1118 727 1118 c 0,27,28
 786 1118 786 1118 831.5 1104.5 c 128,-1,29
 877 1091 877 1091 911 1068.5 c 128,-1,30
 945 1046 945 1046 970 1015.5 c 128,-1,31
 995 985 995 985 1012 950 c 1,32,-1
 1020 950 l 1,33,-1
 1073 1098 l 1,34,-1
 1220 1098 l 1,35,-1
 939 -492 l 1,36,-1
 757 -492 l 1,37,-1
 840 -23 l 2,38,39
 843 -4 843 -4 850.5 25 c 128,-1,40
 858 54 858 54 864 81 c 0,41,42
 873 113 873 113 882 147 c 1,43,-1
 870 147 l 1,44,45
 842 113 842 113 807 82.5 c 128,-1,46
 772 52 772 52 729.5 29 c 128,-1,47
 687 6 687 6 636.5 -7 c 128,-1,48
 586 -20 586 -20 526 -20 c 0,17,18
EndSplineSet
EndChar

StartChar: r
Encoding: 114 114 85
Width: 817
GlyphClass: 2
Flags: MW
AnchorPoint: "Anchor-1" 768 1241 basechar 0
AnchorPoint: "Anchor-0" 562 1241 basechar 0
AnchorPoint: "Anchor-2" 672 1280 basechar 0
AnchorPoint: "Anchor-30" 665 1241 basechar 0
LayerCount: 2
Fore
SplineSet
846 1118 m 0,0,1
 875 1118 875 1118 910.5 1115.5 c 128,-1,2
 946 1113 946 1113 971 1108 c 1,3,-1
 918 940 l 1,4,5
 891 945 891 945 862 948.5 c 128,-1,6
 833 952 833 952 807 952 c 0,7,8
 744 952 744 952 687.5 926.5 c 128,-1,9
 631 901 631 901 585 853.5 c 128,-1,10
 539 806 539 806 507 739.5 c 128,-1,11
 475 673 475 673 460 592 c 2,12,-1
 356 0 l 1,13,-1
 174 0 l 1,14,-1
 368 1098 l 1,15,-1
 516 1098 l 1,16,-1
 502 897 l 1,17,-1
 510 897 l 1,18,19
 543 940 543 940 578.5 980 c 128,-1,20
 614 1020 614 1020 655 1050.5 c 128,-1,21
 696 1081 696 1081 743 1099.5 c 128,-1,22
 790 1118 790 1118 846 1118 c 0,0,1
EndSplineSet
EndChar

StartChar: s
Encoding: 115 115 86
Width: 924
GlyphClass: 2
Flags: MW
AnchorPoint: "Anchor-4" 462 -152 basechar 0
AnchorPoint: "Anchor-1" 840 1241 basechar 0
AnchorPoint: "Anchor-0" 575 1241 basechar 0
AnchorPoint: "Anchor-2" 715 1280 basechar 0
AnchorPoint: "Anchor-30" 708 1241 basechar 0
LayerCount: 2
Fore
SplineSet
884 301 m 0,0,1
 870 221 870 221 830.5 161 c 128,-1,2
 791 101 791 101 729.5 60.5 c 128,-1,3
 668 20 668 20 587 0 c 128,-1,4
 506 -20 506 -20 410 -20 c 0,5,6
 301 -20 301 -20 226.5 -2.5 c 128,-1,7
 152 15 152 15 99 49 c 1,8,-1
 128 215 l 1,9,10
 156 199 156 199 191.5 183.5 c 128,-1,11
 227 168 227 168 266.5 156 c 128,-1,12
 306 144 306 144 349.5 136.5 c 128,-1,13
 393 129 393 129 437 129 c 0,14,15
 502 129 502 129 549.5 140 c 128,-1,16
 597 151 597 151 629 171.5 c 128,-1,17
 661 192 661 192 679 221.5 c 128,-1,18
 697 251 697 251 704 287 c 0,19,20
 709 318 709 318 703.5 343 c 128,-1,21
 698 368 698 368 676 392.5 c 128,-1,22
 654 417 654 417 612 442 c 128,-1,23
 570 467 570 467 504 498 c 256,24,25
 437 529 437 529 385 559 c 128,-1,26
 333 589 333 589 299.5 626 c 128,-1,27
 266 663 266 663 253 711.5 c 128,-1,28
 240 760 240 760 252 827 c 0,29,30
 264 897 264 897 301 951.5 c 128,-1,31
 338 1006 338 1006 394.5 1043 c 128,-1,32
 451 1080 451 1080 524.5 1099 c 128,-1,33
 598 1118 598 1118 684 1118 c 0,34,35
 781 1118 781 1118 858 1097 c 128,-1,36
 935 1076 935 1076 1001 1042 c 1,37,-1
 912 895 l 1,38,39
 852 924 852 924 787.5 945.5 c 128,-1,40
 723 967 723 967 652 967 c 0,41,42
 550 967 550 967 495 933.5 c 128,-1,43
 440 900 440 900 429 838 c 0,44,45
 423 803 423 803 429.5 777 c 128,-1,46
 436 751 436 751 460 728 c 128,-1,47
 484 705 484 705 527 681.5 c 128,-1,48
 570 658 570 658 635 629 c 0,49,50
 702 599 702 599 753 569 c 128,-1,51
 804 539 804 539 837.5 501.5 c 128,-1,52
 871 464 871 464 883.5 416 c 128,-1,53
 896 368 896 368 884 301 c 0,0,1
EndSplineSet
EndChar

StartChar: t
Encoding: 116 116 87
Width: 694
GlyphClass: 2
Flags: MW
AnchorPoint: "Anchor-1" 634 1493 basechar 0
AnchorPoint: "Anchor-0" 529 1493 basechar 0
AnchorPoint: "Anchor-2" 589 1532 basechar 0
AnchorPoint: "Anchor-30" 582 1493 basechar 0
LayerCount: 2
Fore
SplineSet
529 129 m 0,0,1
 547 129 547 129 569.5 131 c 128,-1,2
 592 133 592 133 614 136 c 128,-1,3
 636 139 636 139 654 143 c 128,-1,4
 672 147 672 147 681 150 c 1,5,-1
 657 12 l 1,6,7
 643 6 643 6 622 0 c 128,-1,8
 601 -6 601 -6 576 -10.5 c 128,-1,9
 551 -15 551 -15 524.5 -17.5 c 128,-1,10
 498 -20 498 -20 473 -20 c 0,11,12
 411 -20 411 -20 361 -4 c 128,-1,13
 311 12 311 12 279.5 51 c 128,-1,14
 248 90 248 90 237.5 156.5 c 128,-1,15
 227 223 227 223 245 324 c 2,16,-1
 357 961 l 1,17,-1
 202 961 l 1,18,-1
 217 1042 l 1,19,-1
 385 1120 l 1,20,-1
 504 1350 l 1,21,-1
 609 1350 l 1,22,-1
 565 1098 l 1,23,-1
 841 1098 l 1,24,-1
 816 961 l 1,25,-1
 540 961 l 1,26,-1
 428 324 l 2,27,28
 411 227 411 227 434 178 c 128,-1,29
 457 129 457 129 529 129 c 0,0,1
EndSplineSet
EndChar

StartChar: u
Encoding: 117 117 88
Width: 1206
GlyphClass: 2
Flags: MW
AnchorPoint: "Anchor-4" 571 -152 basechar 0
AnchorPoint: "Anchor-1" 910 1241 basechar 0
AnchorPoint: "Anchor-0" 724 1241 basechar 0
AnchorPoint: "Anchor-30" 817 1241 basechar 0
AnchorPoint: "Anchor-2" 824 1280 basechar 0
LayerCount: 2
Fore
SplineSet
885 0 m 1,0,-1
 884 147 l 1,1,-1
 874 147 l 1,2,3
 841 104 841 104 801 72.5 c 128,-1,4
 761 41 761 41 716.5 20.5 c 128,-1,5
 672 0 672 0 624 -10 c 128,-1,6
 576 -20 576 -20 528 -20 c 0,7,8
 437 -20 437 -20 372.5 3 c 128,-1,9
 308 26 308 26 270.5 75 c 128,-1,10
 233 124 233 124 223 200 c 128,-1,11
 213 276 213 276 231 381 c 2,12,-1
 358 1098 l 1,13,-1
 540 1098 l 1,14,-1
 415 391 l 2,15,16
 392 261 392 261 433.5 196 c 128,-1,17
 475 131 475 131 586 131 c 0,18,19
 667 131 667 131 726.5 157 c 128,-1,20
 786 183 786 183 828.5 233.5 c 128,-1,21
 871 284 871 284 898.5 358 c 128,-1,22
 926 432 926 432 943 528 c 2,23,-1
 1044 1098 l 1,24,-1
 1226 1098 l 1,25,-1
 1032 0 l 1,26,-1
 885 0 l 1,0,-1
EndSplineSet
EndChar

StartChar: v
Encoding: 118 118 89
Width: 981
GlyphClass: 2
Flags: MW
AnchorPoint: "Anchor-30" 709 1241 basechar 0
AnchorPoint: "Anchor-1" 803 1241 basechar 0
AnchorPoint: "Anchor-0" 617 1241 basechar 0
AnchorPoint: "Anchor-2" 716 1280 basechar 0
LayerCount: 2
Fore
SplineSet
375 0 m 1,0,-1
 194 1098 l 1,1,-1
 382 1098 l 1,2,-1
 473 487 l 2,3,4
 479 448 479 448 484 402 c 0,5,6
 490 350 490 350 495.5 296 c 128,-1,7
 501 242 501 242 505 194 c 0,8,9
 510 146 510 146 509 121 c 1,10,-1
 515 121 l 1,11,12
 524 146 524 146 545 194 c 128,-1,13
 566 242 566 242 590.5 296 c 128,-1,14
 615 350 615 350 639 402 c 0,15,16
 657 441 657 441 680 487 c 2,17,-1
 987 1098 l 1,18,-1
 1175 1098 l 1,19,-1
 606 0 l 1,20,-1
 375 0 l 1,0,-1
EndSplineSet
EndChar

StartChar: w
Encoding: 119 119 90
Width: 1528
GlyphClass: 2
Flags: MW
AnchorPoint: "Anchor-2" 989 1280 basechar 0
AnchorPoint: "Anchor-0" 887 1241 basechar 0
AnchorPoint: "Anchor-1" 1083 1241 basechar 0
AnchorPoint: "Anchor-30" 982 1241 basechar 0
LayerCount: 2
Fore
SplineSet
1008 0 m 1,0,-1
 949 616 l 2,1,2
 948 634 948 634 946 656.5 c 128,-1,3
 944 679 944 679 942.5 704 c 128,-1,4
 941 729 941 729 939 755 c 128,-1,5
 937 781 937 781 935 806 c 0,6,7
 931 864 931 864 927 926 c 1,8,-1
 921 926 l 1,9,10
 896 863 896 863 873 805 c 0,11,12
 853 755 853 755 831 702 c 128,-1,13
 809 649 809 649 792 612 c 2,14,-1
 512 0 l 1,15,-1
 301 0 l 1,16,-1
 214 1098 l 1,17,-1
 405 1098 l 1,18,-1
 433 514 l 2,19,20
 435 469 435 469 435.5 416.5 c 128,-1,21
 436 364 436 364 436 312.5 c 128,-1,22
 436 261 436 261 435 215.5 c 128,-1,23
 434 170 434 170 433 141 c 1,24,-1
 439 141 l 1,25,26
 449 167 449 167 465 210.5 c 128,-1,27
 481 254 481 254 500 302.5 c 128,-1,28
 519 351 519 351 538.5 398.5 c 128,-1,29
 558 446 558 446 573 479 c 2,30,-1
 862 1098 l 1,31,-1
 1058 1098 l 1,32,-1
 1120 479 l 2,33,34
 1123 445 1123 445 1126.5 399 c 128,-1,35
 1130 353 1130 353 1132.5 305.5 c 128,-1,36
 1135 258 1135 258 1136.5 214 c 128,-1,37
 1138 170 1138 170 1137 141 c 1,38,-1
 1143 141 l 1,39,40
 1151 167 1151 167 1165 210.5 c 128,-1,41
 1179 254 1179 254 1197 306 c 128,-1,42
 1215 358 1215 358 1235 412.5 c 128,-1,43
 1255 467 1255 467 1275 514 c 2,44,-1
 1515 1098 l 1,45,-1
 1701 1098 l 1,46,-1
 1223 0 l 1,47,-1
 1008 0 l 1,0,-1
EndSplineSet
EndChar

StartChar: x
Encoding: 120 120 91
Width: 1024
GlyphClass: 2
Flags: MW
AnchorPoint: "Anchor-3" 489 -131 basechar 0
AnchorPoint: "Anchor-4" 485 -152 basechar 0
AnchorPoint: "Anchor-30" 731 1241 basechar 0
AnchorPoint: "Anchor-2" 738 1280 basechar 0
AnchorPoint: "Anchor-1" 824 1241 basechar 0
AnchorPoint: "Anchor-0" 638 1241 basechar 0
LayerCount: 2
Fore
SplineSet
507 563 m 1,0,-1
 249 1098 l 1,1,-1
 456 1098 l 1,2,-1
 633 688 l 1,3,-1
 956 1098 l 1,4,-1
 1163 1098 l 1,5,-1
 713 563 l 1,6,-1
 987 0 l 1,7,-1
 780 0 l 1,8,-1
 589 436 l 1,9,-1
 242 0 l 1,10,-1
 35 0 l 1,11,-1
 507 563 l 1,0,-1
EndSplineSet
EndChar

StartChar: y
Encoding: 121 121 92
Width: 1001
GlyphClass: 2
Flags: MW
AnchorPoint: "Anchor-18" 722 1241 basechar 0
AnchorPoint: "Anchor-19" 722 1241 basechar 0
AnchorPoint: "Anchor-4" 201 -644 basechar 0
AnchorPoint: "Anchor-1" 815 1241 basechar 0
AnchorPoint: "Anchor-0" 629 1241 basechar 0
AnchorPoint: "Anchor-2" 729 1280 basechar 0
AnchorPoint: "Anchor-30" 722 1241 basechar 0
LayerCount: 2
Fore
SplineSet
204 1098 m 1,0,-1
 393 1098 l 1,1,-1
 500 485 l 2,2,3
 507 445 507 445 513.5 401 c 128,-1,4
 520 357 520 357 524.5 313 c 128,-1,5
 529 269 529 269 531 228 c 128,-1,6
 533 187 533 187 531 152 c 1,7,-1
 537 152 l 1,8,9
 546 177 546 177 564.5 220 c 128,-1,10
 583 263 583 263 605 311.5 c 128,-1,11
 627 360 627 360 650 407 c 128,-1,12
 673 454 673 454 690 487 c 2,13,-1
 997 1098 l 1,14,-1
 1185 1098 l 1,15,-1
 532 -143 l 2,16,17
 490 -224 490 -224 446 -288.5 c 128,-1,18
 402 -353 402 -353 351 -398 c 128,-1,19
 300 -443 300 -443 237.5 -467.5 c 128,-1,20
 175 -492 175 -492 95 -492 c 0,21,22
 43 -492 43 -492 6 -486.5 c 128,-1,23
 -31 -481 -31 -481 -57 -475 c 1,24,-1
 -31 -330 l 1,25,26
 -11 -335 -11 -335 20.5 -338.5 c 128,-1,27
 52 -342 52 -342 87 -342 c 0,28,29
 135 -342 135 -342 172 -330.5 c 128,-1,30
 209 -319 209 -319 239 -297 c 128,-1,31
 269 -275 269 -275 293 -243 c 128,-1,32
 317 -211 317 -211 339 -170 c 2,33,-1
 424 -10 l 1,34,-1
 204 1098 l 1,0,-1
EndSplineSet
EndChar

StartChar: z
Encoding: 122 122 93
Width: 903
GlyphClass: 2
Flags: MW
AnchorPoint: "Anchor-1" 772 1241 basechar 0
AnchorPoint: "Anchor-0" 586 1241 basechar 0
AnchorPoint: "Anchor-2" 686 1280 basechar 0
AnchorPoint: "Anchor-30" 679 1241 basechar 0
LayerCount: 2
Fore
SplineSet
821 0 m 1,0,-1
 82 0 l 1,1,-1
 104 125 l 1,2,-1
 787 961 l 1,3,-1
 284 961 l 1,4,-1
 309 1098 l 1,5,-1
 997 1098 l 1,6,-1
 971 952 l 1,7,-1
 303 137 l 1,8,-1
 845 137 l 1,9,-1
 821 0 l 1,0,-1
EndSplineSet
EndChar

StartChar: braceleft
Encoding: 123 123 94
Width: 725
GlyphClass: 2
Flags: MW
LayerCount: 2
Fore
SplineSet
497 -16 m 2,0,1
 489 -64 489 -64 495.5 -94.5 c 128,-1,2
 502 -125 502 -125 521.5 -142.5 c 128,-1,3
 541 -160 541 -160 572 -166.5 c 128,-1,4
 603 -173 603 -173 643 -174 c 1,5,-1
 617 -324 l 1,6,7
 540 -323 540 -323 477.5 -306.5 c 128,-1,8
 415 -290 415 -290 373.5 -254.5 c 128,-1,9
 332 -219 332 -219 315 -164 c 128,-1,10
 298 -109 298 -109 312 -31 c 2,11,-1
 370 303 l 2,12,13
 388 406 388 406 330.5 449 c 128,-1,14
 273 492 273 492 148 492 c 1,15,-1
 175 647 l 1,16,17
 300 647 300 647 373 690 c 128,-1,18
 446 733 446 733 464 836 c 2,19,-1
 523 1169 l 2,20,21
 537 1247 537 1247 573.5 1302 c 128,-1,22
 610 1357 610 1357 664 1392.5 c 128,-1,23
 718 1428 718 1428 786.5 1444.5 c 128,-1,24
 855 1461 855 1461 932 1462 c 1,25,-1
 906 1313 l 1,26,27
 866 1312 866 1312 832 1305.5 c 128,-1,28
 798 1299 798 1299 772.5 1281.5 c 128,-1,29
 747 1264 747 1264 729.5 1233.5 c 128,-1,30
 712 1203 712 1203 704 1155 c 2,31,-1
 645 823 l 2,32,33
 626 718 626 718 556 656.5 c 128,-1,34
 486 595 486 595 367 575 c 1,35,-1
 365 563 l 1,36,37
 476 543 476 543 525 482 c 128,-1,38
 574 421 574 421 556 315 c 2,39,-1
 497 -16 l 2,0,1
EndSplineSet
EndChar

StartChar: bar
Encoding: 124 124 95
Width: 1128
GlyphClass: 2
Flags: MW
LayerCount: 2
Fore
SplineSet
763 1556 m 1,0,-1
 913 1556 l 1,1,-1
 552 -492 l 1,2,-1
 402 -492 l 1,3,-1
 763 1556 l 1,0,-1
EndSplineSet
EndChar

StartChar: braceright
Encoding: 125 125 96
Width: 725
GlyphClass: 2
Flags: MW
LayerCount: 2
Fore
SplineSet
281 315 m 2,0,1
 300 421 300 421 370 482 c 128,-1,2
 440 543 440 543 558 563 c 1,3,-1
 560 575 l 1,4,5
 449 595 449 595 400.5 656.5 c 128,-1,6
 352 718 352 718 370 823 c 2,7,-1
 429 1155 l 2,8,9
 437 1203 437 1203 430.5 1233.5 c 128,-1,10
 424 1264 424 1264 404.5 1281.5 c 128,-1,11
 385 1299 385 1299 353.5 1305.5 c 128,-1,12
 322 1312 322 1312 283 1313 c 1,13,-1
 309 1462 l 1,14,15
 386 1461 386 1461 448.5 1444.5 c 128,-1,16
 511 1428 511 1428 552 1392.5 c 128,-1,17
 593 1357 593 1357 610.5 1302 c 128,-1,18
 628 1247 628 1247 614 1169 c 2,19,-1
 555 836 l 2,20,21
 546 784 546 784 556.5 748 c 128,-1,22
 567 712 567 712 595.5 689.5 c 128,-1,23
 624 667 624 667 670 657 c 128,-1,24
 716 647 716 647 778 647 c 1,25,-1
 751 492 l 1,26,27
 626 492 626 492 553 449 c 128,-1,28
 480 406 480 406 461 303 c 2,29,-1
 403 -31 l 2,30,31
 389 -109 389 -109 352 -164 c 128,-1,32
 315 -219 315 -219 261.5 -254.5 c 128,-1,33
 208 -290 208 -290 139.5 -306.5 c 128,-1,34
 71 -323 71 -323 -6 -324 c 1,35,-1
 20 -174 l 1,36,37
 60 -173 60 -173 94 -166.5 c 128,-1,38
 128 -160 128 -160 153.5 -142.5 c 128,-1,39
 179 -125 179 -125 196.5 -94.5 c 128,-1,40
 214 -64 214 -64 222 -16 c 2,41,-1
 281 315 l 2,0,1
EndSplineSet
EndChar

StartChar: asciitilde
Encoding: 126 126 97
Width: 1128
GlyphClass: 2
Flags: MW
LayerCount: 2
Fore
SplineSet
645 651 m 0,0,1
 611 667 611 667 585 678 c 128,-1,2
 559 689 559 689 538 695.5 c 128,-1,3
 517 702 517 702 497 704.5 c 128,-1,4
 477 707 477 707 455 707 c 0,5,6
 427 707 427 707 395 697.5 c 128,-1,7
 363 688 363 688 330.5 671.5 c 128,-1,8
 298 655 298 655 266.5 633 c 128,-1,9
 235 611 235 611 205 586 c 1,10,-1
 234 748 l 1,11,12
 353 856 353 856 501 856 c 0,13,14
 530 856 530 856 554.5 853.5 c 128,-1,15
 579 851 579 851 605.5 844.5 c 128,-1,16
 632 838 632 838 663 825.5 c 128,-1,17
 694 813 694 813 738 793 c 0,18,19
 772 777 772 777 797.5 766 c 128,-1,20
 823 755 823 755 845.5 748.5 c 128,-1,21
 868 742 868 742 887.5 739.5 c 128,-1,22
 907 737 907 737 929 737 c 0,23,24
 957 737 957 737 988.5 746.5 c 128,-1,25
 1020 756 1020 756 1052.5 772.5 c 128,-1,26
 1085 789 1085 789 1117 811 c 128,-1,27
 1149 833 1149 833 1177 858 c 1,28,-1
 1149 696 l 1,29,30
 1031 588 1031 588 882 588 c 0,31,32
 853 588 853 588 828.5 590.5 c 128,-1,33
 804 593 804 593 777.5 599.5 c 128,-1,34
 751 606 751 606 719.5 618.5 c 128,-1,35
 688 631 688 631 645 651 c 0,0,1
EndSplineSet
EndChar

StartChar: exclamdown
Encoding: 161 161 99
Width: 551
GlyphClass: 2
Flags: MW
LayerCount: 2
Fore
SplineSet
332 676 m 1,0,-1
 453 676 l 1,1,-1
 319 -373 l 1,2,-1
 96 -373 l 1,3,-1
 332 676 l 1,0,-1
574 979 m 0,4,5
 567 941 567 941 553 914.5 c 128,-1,6
 539 888 539 888 518.5 871.5 c 128,-1,7
 498 855 498 855 473.5 847.5 c 128,-1,8
 449 840 449 840 422 840 c 0,9,10
 396 840 396 840 374.5 847.5 c 128,-1,11
 353 855 353 855 338.5 871.5 c 128,-1,12
 324 888 324 888 318.5 914.5 c 128,-1,13
 313 941 313 941 320 979 c 0,14,15
 327 1016 327 1016 341 1042 c 128,-1,16
 355 1068 355 1068 375.5 1085 c 128,-1,17
 396 1102 396 1102 420.5 1110 c 128,-1,18
 445 1118 445 1118 471 1118 c 0,19,20
 498 1118 498 1118 519.5 1110 c 128,-1,21
 541 1102 541 1102 555.5 1085 c 128,-1,22
 570 1068 570 1068 575.5 1042 c 128,-1,23
 581 1016 581 1016 574 979 c 0,4,5
EndSplineSet
EndChar

StartChar: cent
Encoding: 162 162 100
Width: 1128
GlyphClass: 2
Flags: MW
LayerCount: 2
Fore
SplineSet
865.5 197 m 128,-1,1
 808 182 808 182 732 180 c 1,2,-1
 696 -20 l 1,3,-1
 559 -20 l 1,4,-1
 596 186 l 1,5,6
 511 199 511 199 448.5 236.5 c 128,-1,7
 386 274 386 274 349 340.5 c 128,-1,8
 312 407 312 407 303.5 506.5 c 128,-1,9
 295 606 295 606 319 743 c 0,10,11
 344 884 344 884 388.5 985.5 c 128,-1,12
 433 1087 433 1087 493.5 1155 c 128,-1,13
 554 1223 554 1223 630 1260.5 c 128,-1,14
 706 1298 706 1298 794 1311 c 1,15,-1
 824 1483 l 1,16,-1
 961 1483 l 1,17,-1
 933 1319 l 1,18,19
 1004 1316 1004 1316 1069 1299.5 c 128,-1,20
 1134 1283 1134 1283 1176 1260 c 1,21,-1
 1096 1106 l 1,22,23
 1075 1116 1075 1116 1048.5 1125.5 c 128,-1,24
 1022 1135 1022 1135 993.5 1142.5 c 128,-1,25
 965 1150 965 1150 936 1154.5 c 128,-1,26
 907 1159 907 1159 882 1159 c 0,27,28
 725 1159 725 1159 635.5 1058 c 128,-1,29
 546 957 546 957 508 745 c 0,30,31
 471 535 471 535 526.5 437.5 c 128,-1,32
 582 340 582 340 730 340 c 0,33,34
 811 340 811 340 879.5 358.5 c 128,-1,35
 948 377 948 377 1007 401 c 1,36,-1
 978 240 l 1,37,0
 923 212 923 212 865.5 197 c 128,-1,1
EndSplineSet
EndChar

StartChar: sterling
Encoding: 163 163 101
Width: 1128
GlyphClass: 2
Flags: MW
LayerCount: 2
Fore
SplineSet
927 1481 m 0,0,1
 1033 1481 1033 1481 1116 1458.5 c 128,-1,2
 1199 1436 1199 1436 1259 1401 c 1,3,-1
 1168 1257 l 1,4,5
 1117 1286 1117 1286 1050 1307.5 c 128,-1,6
 983 1329 983 1329 908 1329 c 0,7,8
 860 1329 860 1329 817 1315.5 c 128,-1,9
 774 1302 774 1302 738.5 1272.5 c 128,-1,10
 703 1243 703 1243 678.5 1196 c 128,-1,11
 654 1149 654 1149 642 1083 c 2,12,-1
 590 788 l 1,13,-1
 966 788 l 1,14,-1
 942 651 l 1,15,-1
 566 651 l 1,16,-1
 529 440 l 2,17,18
 518 378 518 378 498.5 333.5 c 128,-1,19
 479 289 479 289 454 257 c 128,-1,20
 429 225 429 225 399.5 203.5 c 128,-1,21
 370 182 370 182 340 166 c 1,22,-1
 1088 166 l 1,23,-1
 1059 0 l 1,24,-1
 68 0 l 1,25,-1
 95 154 l 1,26,27
 141 165 141 165 181 185.5 c 128,-1,28
 221 206 221 206 253.5 240 c 128,-1,29
 286 274 286 274 309.5 322.5 c 128,-1,30
 333 371 333 371 345 438 c 2,31,-1
 383 651 l 1,32,-1
 185 651 l 1,33,-1
 209 788 l 1,34,-1
 407 788 l 1,35,-1
 464 1112 l 2,36,37
 479 1199 479 1199 521 1267.5 c 128,-1,38
 563 1336 563 1336 623.5 1383.5 c 128,-1,39
 684 1431 684 1431 761.5 1456 c 128,-1,40
 839 1481 839 1481 927 1481 c 0,0,1
EndSplineSet
EndChar

StartChar: currency
Encoding: 164 164 102
Width: 1128
GlyphClass: 2
Flags: MW
LayerCount: 2
Fore
SplineSet
313 723 m 0,0,1
 323 782 323 782 350.5 835.5 c 128,-1,2
 378 889 378 889 417 936 c 1,3,-1
 311 1065 l 1,4,-1
 426 1163 l 1,5,-1
 530 1034 l 1,6,7
 583 1066 583 1066 640 1084 c 128,-1,8
 697 1102 697 1102 757 1102 c 256,9,10
 817 1102 817 1102 867.5 1084 c 128,-1,11
 918 1066 918 1066 958 1034 c 1,12,-1
 1110 1163 l 1,13,-1
 1192 1067 l 1,14,-1
 1039 938 l 1,15,16
 1062 892 1062 892 1071 837.5 c 128,-1,17
 1080 783 1080 783 1069 723 c 256,18,19
 1058 663 1058 663 1031.5 608 c 128,-1,20
 1005 553 1005 553 964 508 c 1,21,-1
 1068 381 l 1,22,-1
 955 285 l 1,23,-1
 849 412 l 1,24,25
 798 381 798 381 741 363.5 c 128,-1,26
 684 346 684 346 624 346 c 256,27,28
 564 346 564 346 512 364 c 128,-1,29
 460 382 460 382 421 414 c 1,30,-1
 272 287 l 1,31,-1
 193 383 l 1,32,-1
 342 510 l 1,33,34
 319 555 319 555 310.5 609 c 128,-1,35
 302 663 302 663 313 723 c 0,0,1
451 723 m 0,36,37
 442 673 442 673 453 629.5 c 128,-1,38
 464 586 464 586 491 553.5 c 128,-1,39
 518 521 518 521 558 502 c 128,-1,40
 598 483 598 483 648 483 c 0,41,42
 699 483 699 483 747 502 c 128,-1,43
 795 521 795 521 833.5 553.5 c 128,-1,44
 872 586 872 586 899 629.5 c 128,-1,45
 926 673 926 673 934 723 c 0,46,47
 943 774 943 774 932 818.5 c 128,-1,48
 921 863 921 863 894 896 c 128,-1,49
 867 929 867 929 826 948 c 128,-1,50
 785 967 785 967 734 967 c 0,51,52
 684 967 684 967 637 948 c 128,-1,53
 590 929 590 929 551.5 896 c 128,-1,54
 513 863 513 863 486.5 818.5 c 128,-1,55
 460 774 460 774 451 723 c 0,36,37
EndSplineSet
EndChar

StartChar: yen
Encoding: 165 165 103
Width: 1128
GlyphClass: 2
Flags: MW
LayerCount: 2
Fore
SplineSet
690 723 m 1,0,-1
 1167 1462 l 1,1,-1
 1358 1462 l 1,2,-1
 837 694 l 1,3,-1
 1076 694 l 1,4,-1
 1052 557 l 1,5,-1
 751 557 l 1,6,-1
 723 399 l 1,7,-1
 1024 399 l 1,8,-1
 1000 262 l 1,9,-1
 699 262 l 1,10,-1
 653 0 l 1,11,-1
 475 0 l 1,12,-1
 521 262 l 1,13,-1
 220 262 l 1,14,-1
 244 399 l 1,15,-1
 545 399 l 1,16,-1
 573 557 l 1,17,-1
 272 557 l 1,18,-1
 296 694 l 1,19,-1
 530 694 l 1,20,-1
 287 1462 l 1,21,-1
 479 1462 l 1,22,-1
 690 723 l 1,0,-1
EndSplineSet
EndChar

StartChar: brokenbar
Encoding: 166 166 104
Width: 1128
GlyphClass: 2
Flags: MW
LayerCount: 2
Fore
SplineSet
763 1556 m 1,0,-1
 913 1556 l 1,1,-1
 776 776 l 1,2,-1
 626 776 l 1,3,-1
 763 1556 l 1,0,-1
540 289 m 1,4,-1
 690 289 l 1,5,-1
 552 -492 l 1,6,-1
 402 -492 l 1,7,-1
 540 289 l 1,4,-1
EndSplineSet
EndChar

StartChar: section
Encoding: 167 167 105
Width: 995
GlyphClass: 2
Flags: MW
LayerCount: 2
Fore
SplineSet
280 809 m 0,0,1
 289 860 289 860 309 901.5 c 128,-1,2
 329 943 329 943 357.5 975 c 128,-1,3
 386 1007 386 1007 418.5 1029.5 c 128,-1,4
 451 1052 451 1052 485 1067 c 1,5,6
 417 1105 417 1105 384.5 1162 c 128,-1,7
 352 1219 352 1219 367 1303 c 0,8,9
 378 1364 378 1364 414 1413 c 128,-1,10
 450 1462 450 1462 506 1496 c 128,-1,11
 562 1530 562 1530 635 1548.5 c 128,-1,12
 708 1567 708 1567 794 1567 c 0,13,14
 891 1567 891 1567 966 1547 c 128,-1,15
 1041 1527 1041 1527 1108 1495 c 1,16,-1
 1027 1356 l 1,17,18
 967 1384 967 1384 900.5 1403.5 c 128,-1,19
 834 1423 834 1423 763 1423 c 0,20,21
 664 1423 664 1423 608 1393.5 c 128,-1,22
 552 1364 552 1364 541 1307 c 0,23,24
 536 1280 536 1280 544.5 1257 c 128,-1,25
 553 1234 553 1234 577.5 1212 c 128,-1,26
 602 1190 602 1190 645.5 1166.5 c 128,-1,27
 689 1143 689 1143 753 1114 c 0,28,29
 820 1086 820 1086 871 1053.5 c 128,-1,30
 922 1021 922 1021 954 982 c 128,-1,31
 986 943 986 943 998.5 894.5 c 128,-1,32
 1011 846 1011 846 1000 784 c 0,33,34
 991 732 991 732 971.5 689.5 c 128,-1,35
 952 647 952 647 925.5 613 c 128,-1,36
 899 579 899 579 868.5 554.5 c 128,-1,37
 838 530 838 530 808 514 c 1,38,39
 870 476 870 476 898.5 421.5 c 128,-1,40
 927 367 927 367 913 289 c 0,41,42
 900 218 900 218 861 162.5 c 128,-1,43
 822 107 822 107 761 68.5 c 128,-1,44
 700 30 700 30 619 10 c 128,-1,45
 538 -10 538 -10 442 -10 c 0,46,47
 334 -10 334 -10 259 6.5 c 128,-1,48
 184 23 184 23 131 55 c 1,49,-1
 159 213 l 1,50,51
 187 198 187 198 222.5 183 c 128,-1,52
 258 168 258 168 298 156.5 c 128,-1,53
 338 145 338 145 381 138 c 128,-1,54
 424 131 424 131 467 131 c 0,55,56
 536 131 536 131 584.5 143 c 128,-1,57
 633 155 633 155 664 174.5 c 128,-1,58
 695 194 695 194 711 219.5 c 128,-1,59
 727 245 727 245 732 272 c 0,60,61
 737 301 737 301 732.5 323.5 c 128,-1,62
 728 346 728 346 706.5 368.5 c 128,-1,63
 685 391 685 391 642.5 415.5 c 128,-1,64
 600 440 600 440 529 471 c 0,65,66
 461 502 461 502 409 533 c 128,-1,67
 357 564 357 564 324 603 c 128,-1,68
 291 642 291 642 279.5 692 c 128,-1,69
 268 742 268 742 280 809 c 0,0,1
438 831 m 0,70,71
 431 794 431 794 439.5 762.5 c 128,-1,72
 448 731 448 731 474.5 702 c 128,-1,73
 501 673 501 673 546.5 645.5 c 128,-1,74
 592 618 592 618 659 588 c 2,75,-1
 691 573 l 1,76,77
 713 586 713 586 737 604 c 128,-1,78
 761 622 761 622 781.5 645 c 128,-1,79
 802 668 802 668 817.5 696 c 128,-1,80
 833 724 833 724 839 758 c 0,81,82
 846 796 846 796 838.5 828 c 128,-1,83
 831 860 831 860 803.5 889.5 c 128,-1,84
 776 919 776 919 727 947.5 c 128,-1,85
 678 976 678 976 601 1006 c 1,86,87
 575 998 575 998 549 982.5 c 128,-1,88
 523 967 523 967 500 944.5 c 128,-1,89
 477 922 477 922 460.5 893 c 128,-1,90
 444 864 444 864 438 831 c 0,70,71
EndSplineSet
EndChar

StartChar: dieresis
Encoding: 168 168 106
Width: 1182
GlyphClass: 2
Flags: MW
LayerCount: 2
Fore
SplineSet
551 1383 m 0,0,1
 561 1437 561 1437 593 1461 c 128,-1,2
 625 1485 625 1485 665 1485 c 0,3,4
 704 1485 704 1485 728.5 1460.5 c 128,-1,5
 753 1436 753 1436 744 1383 c 256,6,7
 735 1330 735 1330 701.5 1305 c 128,-1,8
 668 1280 668 1280 629 1280 c 0,9,10
 589 1280 589 1280 565.5 1305 c 128,-1,11
 542 1330 542 1330 551 1383 c 0,0,1
926 1383 m 0,12,13
 936 1437 936 1437 968 1461 c 128,-1,14
 1000 1485 1000 1485 1040 1485 c 0,15,16
 1059 1485 1059 1485 1075.5 1479 c 128,-1,17
 1092 1473 1092 1473 1102.5 1460.5 c 128,-1,18
 1113 1448 1113 1448 1118 1429 c 128,-1,19
 1123 1410 1123 1410 1118 1383 c 0,20,21
 1109 1330 1109 1330 1075.5 1305 c 128,-1,22
 1042 1280 1042 1280 1004 1280 c 0,23,24
 964 1280 964 1280 940.5 1305 c 128,-1,25
 917 1330 917 1330 926 1383 c 0,12,13
EndSplineSet
EndChar

StartChar: copyright
Encoding: 169 169 107
Width: 1704
GlyphClass: 2
Flags: MW
LayerCount: 2
Fore
SplineSet
1077 1053 m 0,0,1
 1016 1053 1016 1053 965 1031 c 128,-1,2
 914 1009 914 1009 874.5 967.5 c 128,-1,3
 835 926 835 926 808 866 c 128,-1,4
 781 806 781 806 768 731 c 0,5,6
 754 653 754 653 758 593 c 128,-1,7
 762 533 762 533 785.5 492 c 128,-1,8
 809 451 809 451 852.5 429.5 c 128,-1,9
 896 408 896 408 963 408 c 0,10,11
 986 408 986 408 1013.5 411.5 c 128,-1,12
 1041 415 1041 415 1070.5 421 c 128,-1,13
 1100 427 1100 427 1129.5 435.5 c 128,-1,14
 1159 444 1159 444 1186 453 c 1,15,-1
 1163 322 l 1,16,17
 1137 311 1137 311 1111 302 c 128,-1,18
 1085 293 1085 293 1057 286 c 128,-1,19
 1029 279 1029 279 998.5 275.5 c 128,-1,20
 968 272 968 272 933 272 c 0,21,22
 831 272 831 272 761 305 c 128,-1,23
 691 338 691 338 651 399 c 128,-1,24
 611 460 611 460 600.5 545 c 128,-1,25
 590 630 590 630 608 733 c 0,26,27
 626 834 626 834 668 917.5 c 128,-1,28
 710 1001 710 1001 773 1061 c 128,-1,29
 836 1121 836 1121 918 1154.5 c 128,-1,30
 1000 1188 1000 1188 1100 1188 c 0,31,32
 1163 1188 1163 1188 1226.5 1171.5 c 128,-1,33
 1290 1155 1290 1155 1344 1126 c 1,34,-1
 1259 999 l 1,35,36
 1212 1025 1212 1025 1166 1039 c 128,-1,37
 1120 1053 1120 1053 1077 1053 c 0,0,1
229 731 m 256,38,39
 247 835 247 835 291 931 c 128,-1,40
 335 1027 335 1027 398.5 1110.5 c 128,-1,41
 462 1194 462 1194 543 1263 c 128,-1,42
 624 1332 624 1332 716 1380.5 c 128,-1,43
 808 1429 808 1429 908.5 1456 c 128,-1,44
 1009 1483 1009 1483 1113 1483 c 256,45,46
 1217 1483 1217 1483 1308.5 1456 c 128,-1,47
 1400 1429 1400 1429 1475 1380.5 c 128,-1,48
 1550 1332 1550 1332 1607 1263 c 128,-1,49
 1664 1194 1664 1194 1697.5 1110.5 c 128,-1,50
 1731 1027 1731 1027 1741 931 c 128,-1,51
 1751 835 1751 835 1733 731 c 256,52,53
 1715 627 1715 627 1671 531 c 128,-1,54
 1627 435 1627 435 1563.5 351.5 c 128,-1,55
 1500 268 1500 268 1419 199.5 c 128,-1,56
 1338 131 1338 131 1246 82 c 128,-1,57
 1154 33 1154 33 1053 6.5 c 128,-1,58
 952 -20 952 -20 848 -20 c 256,59,60
 744 -20 744 -20 653 6.5 c 128,-1,61
 562 33 562 33 487 82 c 128,-1,62
 412 131 412 131 355 199.5 c 128,-1,63
 298 268 298 268 264.5 351.5 c 128,-1,64
 231 435 231 435 221 531 c 128,-1,65
 211 627 211 627 229 731 c 256,38,39
338 731 m 256,66,67
 315 598 315 598 344.5 481 c 128,-1,68
 374 364 374 364 446 276.5 c 128,-1,69
 518 189 518 189 626.5 138.5 c 128,-1,70
 735 88 735 88 868 88 c 256,71,72
 1001 88 1001 88 1126.5 138.5 c 128,-1,73
 1252 189 1252 189 1355 276.5 c 128,-1,74
 1458 364 1458 364 1529 481 c 128,-1,75
 1600 598 1600 598 1624 731 c 256,76,77
 1647 864 1647 864 1617.5 981 c 128,-1,78
 1588 1098 1588 1098 1515.5 1185.5 c 128,-1,79
 1443 1273 1443 1273 1335 1323.5 c 128,-1,80
 1227 1374 1227 1374 1094 1374 c 256,81,82
 961 1374 961 1374 835 1323.5 c 128,-1,83
 709 1273 709 1273 606.5 1185.5 c 128,-1,84
 504 1098 504 1098 432.5 981 c 128,-1,85
 361 864 361 864 338 731 c 256,66,67
EndSplineSet
EndChar

StartChar: ordfeminine
Encoding: 170 170 108
Width: 678
GlyphClass: 2
Flags: MW
LayerCount: 2
Fore
SplineSet
628 797 m 1,0,-1
 614 879 l 1,1,2
 592 857 592 857 569.5 839.5 c 128,-1,3
 547 822 547 822 521.5 809.5 c 128,-1,4
 496 797 496 797 466.5 790.5 c 128,-1,5
 437 784 437 784 402 784 c 0,6,7
 359 784 359 784 325.5 797 c 128,-1,8
 292 810 292 810 270.5 835.5 c 128,-1,9
 249 861 249 861 241 899.5 c 128,-1,10
 233 938 233 938 242 989 c 0,11,12
 260 1091 260 1091 340 1145 c 128,-1,13
 420 1199 420 1199 564 1204 c 2,14,-1
 664 1208 l 1,15,-1
 669 1239 l 2,16,17
 682 1311 682 1311 656.5 1339.5 c 128,-1,18
 631 1368 631 1368 575 1368 c 0,19,20
 527 1368 527 1368 479.5 1353.5 c 128,-1,21
 432 1339 432 1339 386 1317 c 1,22,-1
 356 1417 l 1,23,24
 412 1443 412 1443 473.5 1461 c 128,-1,25
 535 1479 535 1479 595 1479 c 0,26,27
 720 1479 720 1479 770 1426 c 128,-1,28
 820 1373 820 1373 799 1251 c 2,29,-1
 719 797 l 1,30,-1
 628 797 l 1,0,-1
573 1110 m 2,31,32
 521 1107 521 1107 485.5 1098 c 128,-1,33
 450 1089 450 1089 427 1074 c 128,-1,34
 404 1059 404 1059 391 1037.5 c 128,-1,35
 378 1016 378 1016 373 987 c 0,36,37
 364 936 364 936 385 913.5 c 128,-1,38
 406 891 406 891 448 891 c 0,39,40
 482 891 482 891 513 901.5 c 128,-1,41
 544 912 544 912 569.5 934 c 128,-1,42
 595 956 595 956 613 988.5 c 128,-1,43
 631 1021 631 1021 639 1065 c 2,44,-1
 647 1114 l 1,45,-1
 573 1110 l 2,31,32
EndSplineSet
EndChar

StartChar: guillemotleft
Encoding: 171 171 109
Width: 997
GlyphClass: 2
Flags: MW
LayerCount: 2
Fore
SplineSet
180 553 m 1,0,-1
 562 967 l 1,1,-1
 665 889 l 1,2,-1
 365 541 l 1,3,-1
 542 193 l 1,4,-1
 411 115 l 1,5,-1
 175 526 l 1,6,-1
 180 553 l 1,0,-1
587 553 m 1,7,-1
 970 967 l 1,8,-1
 1072 889 l 1,9,-1
 773 541 l 1,10,-1
 949 193 l 1,11,-1
 819 115 l 1,12,-1
 582 526 l 1,13,-1
 587 553 l 1,7,-1
EndSplineSet
EndChar

StartChar: logicalnot
Encoding: 172 172 110
Width: 1128
GlyphClass: 2
Flags: MW
LayerCount: 2
Fore
SplineSet
1167 797 m 1,0,-1
 1072 262 l 1,1,-1
 923 262 l 1,2,-1
 991 647 l 1,3,-1
 216 647 l 1,4,-1
 243 797 l 1,5,-1
 1167 797 l 1,0,-1
EndSplineSet
EndChar

StartChar: registered
Encoding: 174 174 112
Width: 1704
GlyphClass: 2
Flags: MW
LayerCount: 2
Fore
SplineSet
878 768 m 1,0,-1
 950 768 l 2,1,2
 1041 768 1041 768 1087 804 c 128,-1,3
 1133 840 1133 840 1145 909 c 0,4,5
 1158 983 1158 983 1122 1012.5 c 128,-1,6
 1086 1042 1086 1042 997 1042 c 2,7,-1
 927 1042 l 1,8,-1
 878 768 l 1,0,-1
1306 913 m 0,9,10
 1298 865 1298 865 1277.5 827.5 c 128,-1,11
 1257 790 1257 790 1229.5 761.5 c 128,-1,12
 1202 733 1202 733 1170 713 c 128,-1,13
 1138 693 1138 693 1105 680 c 1,14,15
 1153 570 1153 570 1190 483 c 0,16,17
 1206 446 1206 446 1221 410.5 c 128,-1,18
 1236 375 1236 375 1247.5 347 c 128,-1,19
 1259 319 1259 319 1266 302 c 2,20,-1
 1273 285 l 1,21,-1
 1094 285 l 1,22,-1
 950 637 l 1,23,-1
 855 637 l 1,24,-1
 793 285 l 1,25,-1
 636 285 l 1,26,-1
 794 1178 l 1,27,-1
 1027 1178 l 2,28,29
 1195 1178 1195 1178 1262.5 1113 c 128,-1,30
 1330 1048 1330 1048 1306 913 c 0,9,10
229 731 m 256,31,32
 247 835 247 835 291 931 c 128,-1,33
 335 1027 335 1027 398.5 1110.5 c 128,-1,34
 462 1194 462 1194 543 1263 c 128,-1,35
 624 1332 624 1332 716 1380.5 c 128,-1,36
 808 1429 808 1429 908.5 1456 c 128,-1,37
 1009 1483 1009 1483 1113 1483 c 256,38,39
 1217 1483 1217 1483 1308.5 1456 c 128,-1,40
 1400 1429 1400 1429 1475 1380.5 c 128,-1,41
 1550 1332 1550 1332 1607 1263 c 128,-1,42
 1664 1194 1664 1194 1697.5 1110.5 c 128,-1,43
 1731 1027 1731 1027 1741 931 c 128,-1,44
 1751 835 1751 835 1733 731 c 256,45,46
 1715 627 1715 627 1671 531 c 128,-1,47
 1627 435 1627 435 1563.5 351.5 c 128,-1,48
 1500 268 1500 268 1419 199.5 c 128,-1,49
 1338 131 1338 131 1246 82 c 128,-1,50
 1154 33 1154 33 1053 6.5 c 128,-1,51
 952 -20 952 -20 848 -20 c 256,52,53
 744 -20 744 -20 653 6.5 c 128,-1,54
 562 33 562 33 487 82 c 128,-1,55
 412 131 412 131 355 199.5 c 128,-1,56
 298 268 298 268 264.5 351.5 c 128,-1,57
 231 435 231 435 221 531 c 128,-1,58
 211 627 211 627 229 731 c 256,31,32
338 731 m 256,59,60
 315 598 315 598 344.5 481 c 128,-1,61
 374 364 374 364 446 276.5 c 128,-1,62
 518 189 518 189 626.5 138.5 c 128,-1,63
 735 88 735 88 868 88 c 256,64,65
 1001 88 1001 88 1126.5 138.5 c 128,-1,66
 1252 189 1252 189 1355 276.5 c 128,-1,67
 1458 364 1458 364 1529 481 c 128,-1,68
 1600 598 1600 598 1624 731 c 256,69,70
 1647 864 1647 864 1617.5 981 c 128,-1,71
 1588 1098 1588 1098 1515.5 1185.5 c 128,-1,72
 1443 1273 1443 1273 1335 1323.5 c 128,-1,73
 1227 1374 1227 1374 1094 1374 c 256,74,75
 961 1374 961 1374 835 1323.5 c 128,-1,76
 709 1273 709 1273 606.5 1185.5 c 128,-1,77
 504 1098 504 1098 432.5 981 c 128,-1,78
 361 864 361 864 338 731 c 256,59,60
EndSplineSet
EndChar

StartChar: overscore
Encoding: 175 175 113
Width: 1024
GlyphClass: 2
Flags: MW
LayerCount: 2
Fore
SplineSet
1304 1556 m 1,0,-1
 268 1556 l 1,1,-1
 293 1696 l 1,2,-1
 1329 1696 l 1,3,-1
 1304 1556 l 1,0,-1
EndSplineSet
EndChar

StartChar: degree
Encoding: 176 176 114
Width: 877
GlyphClass: 2
Flags: MW
LayerCount: 2
Fore
SplineSet
329 1167 m 256,0,1
 340 1232 340 1232 375.5 1289.5 c 128,-1,2
 411 1347 411 1347 461 1390 c 128,-1,3
 511 1433 511 1433 572.5 1458 c 128,-1,4
 634 1483 634 1483 699 1483 c 256,5,6
 764 1483 764 1483 817.5 1458 c 128,-1,7
 871 1433 871 1433 906.5 1390 c 128,-1,8
 942 1347 942 1347 956.5 1289.5 c 128,-1,9
 971 1232 971 1232 960 1167 c 256,10,11
 949 1102 949 1102 913.5 1045 c 128,-1,12
 878 988 878 988 827.5 945.5 c 128,-1,13
 777 903 777 903 715.5 878.5 c 128,-1,14
 654 854 654 854 589 854 c 256,15,16
 524 854 524 854 470.5 878.5 c 128,-1,17
 417 903 417 903 382 945.5 c 128,-1,18
 347 988 347 988 332.5 1045 c 128,-1,19
 318 1102 318 1102 329 1167 c 256,0,1
452 1167 m 0,20,21
 445 1128 445 1128 454 1093.5 c 128,-1,22
 463 1059 463 1059 484.5 1033 c 128,-1,23
 506 1007 506 1007 538 992 c 128,-1,24
 570 977 570 977 610 977 c 256,25,26
 650 977 650 977 688 992 c 128,-1,27
 726 1007 726 1007 757 1033 c 128,-1,28
 788 1059 788 1059 809 1093.5 c 128,-1,29
 830 1128 830 1128 837 1167 c 0,30,31
 844 1207 844 1207 835 1242.5 c 128,-1,32
 826 1278 826 1278 804.5 1304.5 c 128,-1,33
 783 1331 783 1331 750.5 1346.5 c 128,-1,34
 718 1362 718 1362 678 1362 c 256,35,36
 638 1362 638 1362 600.5 1346.5 c 128,-1,37
 563 1331 563 1331 532 1304.5 c 128,-1,38
 501 1278 501 1278 480 1242.5 c 128,-1,39
 459 1207 459 1207 452 1167 c 0,20,21
EndSplineSet
EndChar

StartChar: plusminus
Encoding: 177 177 115
Width: 1128
GlyphClass: 2
Flags: MW
LayerCount: 2
Fore
SplineSet
603 647 m 1,0,-1
 216 647 l 1,1,-1
 243 797 l 1,2,-1
 630 797 l 1,3,-1
 698 1186 l 1,4,-1
 848 1186 l 1,5,-1
 780 797 l 1,6,-1
 1167 797 l 1,7,-1
 1140 647 l 1,8,-1
 753 647 l 1,9,-1
 685 262 l 1,10,-1
 535 262 l 1,11,-1
 603 647 l 1,0,-1
102 0 m 1,12,-1
 128 150 l 1,13,-1
 1052 150 l 1,14,-1
 1026 0 l 1,15,-1
 102 0 l 1,12,-1
EndSplineSet
EndChar

StartChar: twosuperior
Encoding: 178 178 116
Width: 678
GlyphClass: 2
Flags: MW
LayerCount: 2
Fore
SplineSet
724 586 m 1,0,-1
 152 586 l 1,1,-1
 172 698 l 1,2,-1
 421 926 l 2,3,4
 489 988 489 988 532.5 1030.5 c 128,-1,5
 576 1073 576 1073 602 1106.5 c 128,-1,6
 628 1140 628 1140 640.5 1169.5 c 128,-1,7
 653 1199 653 1199 659 1233 c 0,8,9
 670 1298 670 1298 643 1330 c 128,-1,10
 616 1362 616 1362 562 1362 c 0,11,12
 511 1362 511 1362 460 1337 c 128,-1,13
 409 1312 409 1312 358 1274 c 1,14,-1
 296 1368 l 1,15,16
 358 1416 358 1416 430.5 1448.5 c 128,-1,17
 503 1481 503 1481 585 1481 c 0,18,19
 645 1481 645 1481 690.5 1464.5 c 128,-1,20
 736 1448 736 1448 764.5 1416.5 c 128,-1,21
 793 1385 793 1385 803.5 1339.5 c 128,-1,22
 814 1294 814 1294 804 1237 c 0,23,24
 795 1187 795 1187 773 1144 c 128,-1,25
 751 1101 751 1101 716.5 1058.5 c 128,-1,26
 682 1016 682 1016 634.5 970.5 c 128,-1,27
 587 925 587 925 526 870 c 2,28,-1
 351 713 l 1,29,-1
 747 713 l 1,30,-1
 724 586 l 1,0,-1
EndSplineSet
EndChar

StartChar: threesuperior
Encoding: 179 179 117
Width: 678
GlyphClass: 2
Flags: MW
LayerCount: 2
Fore
SplineSet
811 1255 m 0,0,1
 797 1177 797 1177 747.5 1124 c 128,-1,2
 698 1071 698 1071 625 1047 c 1,3,4
 709 1024 709 1024 743.5 971 c 128,-1,5
 778 918 778 918 764 840 c 0,6,7
 753 780 753 780 724.5 730 c 128,-1,8
 696 680 696 680 648 644.5 c 128,-1,9
 600 609 600 609 533.5 589 c 128,-1,10
 467 569 467 569 381 569 c 0,11,12
 311 569 311 569 252 581.5 c 128,-1,13
 193 594 193 594 141 625 c 1,14,-1
 165 758 l 1,15,16
 222 724 222 724 284.5 705 c 128,-1,17
 347 686 347 686 400 686 c 0,18,19
 498 686 498 686 549.5 727.5 c 128,-1,20
 601 769 601 769 613 842 c 0,21,22
 626 916 626 916 578.5 949.5 c 128,-1,23
 531 983 531 983 435 983 c 2,24,-1
 337 983 l 1,25,-1
 357 1096 l 1,26,-1
 455 1096 l 2,27,28
 547 1096 547 1096 596 1135.5 c 128,-1,29
 645 1175 645 1175 656 1239 c 0,30,31
 662 1271 662 1271 656 1294.5 c 128,-1,32
 650 1318 650 1318 635.5 1333 c 128,-1,33
 621 1348 621 1348 598.5 1355 c 128,-1,34
 576 1362 576 1362 549 1362 c 0,35,36
 490 1362 490 1362 438 1341.5 c 128,-1,37
 386 1321 386 1321 328 1284 c 1,38,-1
 276 1380 l 1,39,40
 309 1403 309 1403 343 1421.5 c 128,-1,41
 377 1440 377 1440 413 1453 c 128,-1,42
 449 1466 449 1466 488.5 1473.5 c 128,-1,43
 528 1481 528 1481 572 1481 c 0,44,45
 641 1481 641 1481 690.5 1464 c 128,-1,46
 740 1447 740 1447 770 1417 c 128,-1,47
 800 1387 800 1387 810 1345.5 c 128,-1,48
 820 1304 820 1304 811 1255 c 0,0,1
EndSplineSet
EndChar

StartChar: acute
Encoding: 180 180 118
Width: 1182
GlyphClass: 2
Flags: MW
LayerCount: 2
Fore
SplineSet
617 1268 m 1,0,1
 644 1297 644 1297 674 1335 c 128,-1,2
 704 1373 704 1373 734.5 1413.5 c 128,-1,3
 765 1454 765 1454 793.5 1494.5 c 128,-1,4
 822 1535 822 1535 844 1569 c 1,5,-1
 1063 1569 l 1,6,-1
 1059 1548 l 1,7,8
 1038 1521 1038 1521 999.5 1480.5 c 128,-1,9
 961 1440 961 1440 914.5 1396 c 128,-1,10
 868 1352 868 1352 820.5 1310.5 c 128,-1,11
 773 1269 773 1269 733 1241 c 1,12,-1
 612 1241 l 1,13,-1
 617 1268 l 1,0,1
EndSplineSet
EndChar

StartChar: mu
Encoding: 181 181 119
Width: 1217
GlyphClass: 2
Flags: MW
LayerCount: 2
Fore
SplineSet
425 391 m 2,0,1
 402 261 402 261 443.5 196 c 128,-1,2
 485 131 485 131 596 131 c 0,3,4
 678 131 678 131 737.5 157 c 128,-1,5
 797 183 797 183 839.5 233.5 c 128,-1,6
 882 284 882 284 909 358 c 128,-1,7
 936 432 936 432 953 528 c 2,8,-1
 1054 1098 l 1,9,-1
 1236 1098 l 1,10,-1
 1042 0 l 1,11,-1
 895 0 l 1,12,-1
 894 147 l 1,13,-1
 884 147 l 1,14,15
 821 64 821 64 741.5 22 c 128,-1,16
 662 -20 662 -20 559 -20 c 0,17,18
 487 -20 487 -20 438.5 3 c 128,-1,19
 390 26 390 26 362 68 c 1,20,21
 356 30 356 30 351 -10 c 0,22,23
 347 -45 347 -45 340 -87.5 c 128,-1,24
 333 -130 333 -130 326 -172 c 2,25,-1
 269 -492 l 1,26,-1
 87 -492 l 1,27,-1
 368 1098 l 1,28,-1
 550 1098 l 1,29,-1
 425 391 l 2,0,1
EndSplineSet
EndChar

StartChar: paragraph
Encoding: 182 182 120
Width: 1341
GlyphClass: 2
Flags: MW
LayerCount: 2
Fore
SplineSet
1080 -260 m 1,0,-1
 960 -260 l 1,1,-1
 1252 1397 l 1,2,-1
 1045 1397 l 1,3,-1
 753 -260 l 1,4,-1
 632 -260 l 1,5,-1
 777 559 l 1,6,7
 713 541 713 541 627 541 c 0,8,9
 532 541 532 541 459 566.5 c 128,-1,10
 386 592 386 592 342 651 c 128,-1,11
 298 710 298 710 285 806 c 128,-1,12
 272 902 272 902 297 1042 c 0,13,14
 323 1189 323 1189 372.5 1287.5 c 128,-1,15
 422 1386 422 1386 492.5 1446 c 128,-1,16
 563 1506 563 1506 650 1531 c 128,-1,17
 737 1556 737 1556 837 1556 c 2,18,-1
 1400 1556 l 1,19,-1
 1080 -260 l 1,0,-1
EndSplineSet
EndChar

StartChar: periodcentered
Encoding: 183 183 121
Width: 549
GlyphClass: 2
Flags: MW
LayerCount: 2
Fore
SplineSet
274 723 m 0,0,1
 281 761 281 761 296 787.5 c 128,-1,2
 311 814 311 814 330.5 830.5 c 128,-1,3
 350 847 350 847 374.5 854.5 c 128,-1,4
 399 862 399 862 426 862 c 0,5,6
 452 862 452 862 474 854.5 c 128,-1,7
 496 847 496 847 510.5 830.5 c 128,-1,8
 525 814 525 814 530 787.5 c 128,-1,9
 535 761 535 761 528 723 c 0,10,11
 521 686 521 686 507 660 c 128,-1,12
 493 634 493 634 473 617 c 128,-1,13
 453 600 453 600 428 592 c 128,-1,14
 403 584 403 584 377 584 c 0,15,16
 350 584 350 584 328.5 592 c 128,-1,17
 307 600 307 600 293 617 c 128,-1,18
 279 634 279 634 273 660 c 128,-1,19
 267 686 267 686 274 723 c 0,0,1
EndSplineSet
EndChar

StartChar: cedilla
Encoding: 184 184 122
Width: 420
GlyphClass: 2
Flags: MW
LayerCount: 2
Fore
SplineSet
357 -287 m 0,0,1
 340 -384 340 -384 260 -438 c 128,-1,2
 180 -492 180 -492 30 -492 c 0,3,4
 8 -492 8 -492 -14 -489 c 128,-1,5
 -36 -486 -36 -486 -50 -483 c 1,6,-1
 -31 -375 l 1,7,8
 -17 -378 -17 -378 7.5 -379.5 c 128,-1,9
 32 -381 32 -381 48 -381 c 0,10,11
 119 -381 119 -381 162.5 -359.5 c 128,-1,12
 206 -338 206 -338 215 -289 c 0,13,14
 219 -265 219 -265 209 -247.5 c 128,-1,15
 199 -230 199 -230 178.5 -217 c 128,-1,16
 158 -204 158 -204 128 -194.5 c 128,-1,17
 98 -185 98 -185 63 -176 c 1,18,-1
 184 0 l 1,19,-1
 305 0 l 1,20,-1
 228 -115 l 1,21,22
 261 -123 261 -123 287.5 -136 c 128,-1,23
 314 -149 314 -149 331.5 -169.5 c 128,-1,24
 349 -190 349 -190 356.5 -219 c 128,-1,25
 364 -248 364 -248 357 -287 c 0,0,1
EndSplineSet
EndChar

StartChar: onesuperior
Encoding: 185 185 123
Width: 678
GlyphClass: 2
Flags: MW
LayerCount: 2
Fore
SplineSet
565 1462 m 1,0,-1
 700 1462 l 1,1,-1
 545 586 l 1,2,-1
 400 586 l 1,3,-1
 491 1102 l 2,4,5
 495 1127 495 1127 501 1157 c 128,-1,6
 507 1187 507 1187 514 1217 c 128,-1,7
 521 1247 521 1247 527.5 1275 c 128,-1,8
 534 1303 534 1303 539 1325 c 1,9,10
 522 1308 522 1308 499.5 1288 c 128,-1,11
 477 1268 477 1268 452 1251 c 2,12,-1
 345 1178 l 1,13,-1
 288 1274 l 1,14,-1
 565 1462 l 1,0,-1
EndSplineSet
EndChar

StartChar: ordmasculine
Encoding: 186 186 124
Width: 717
GlyphClass: 2
Flags: MW
LayerCount: 2
Fore
SplineSet
851 1133 m 256,0,1
 836 1050 836 1050 804 985 c 128,-1,2
 772 920 772 920 726 875.5 c 128,-1,3
 680 831 680 831 621 807.5 c 128,-1,4
 562 784 562 784 494 784 c 0,5,6
 431 784 431 784 382.5 807.5 c 128,-1,7
 334 831 334 831 302.5 875.5 c 128,-1,8
 271 920 271 920 261 985 c 128,-1,9
 251 1050 251 1050 266 1133 c 256,10,11
 281 1216 281 1216 312.5 1280.5 c 128,-1,12
 344 1345 344 1345 390 1389 c 128,-1,13
 436 1433 436 1433 494.5 1456 c 128,-1,14
 553 1479 553 1479 621 1479 c 0,15,16
 683 1479 683 1479 732.5 1456 c 128,-1,17
 782 1433 782 1433 813 1389 c 128,-1,18
 844 1345 844 1345 855 1280.5 c 128,-1,19
 866 1216 866 1216 851 1133 c 256,0,1
397 1133 m 0,20,21
 376 1014 376 1014 402.5 953.5 c 128,-1,22
 429 893 429 893 515 893 c 0,23,24
 600 893 600 893 648.5 953.5 c 128,-1,25
 697 1014 697 1014 718 1133 c 0,26,27
 739 1253 739 1253 711.5 1310.5 c 128,-1,28
 684 1368 684 1368 599 1368 c 0,29,30
 513 1368 513 1368 465.5 1310.5 c 128,-1,31
 418 1253 418 1253 397 1133 c 0,20,21
EndSplineSet
EndChar

StartChar: guillemotright
Encoding: 187 187 125
Width: 997
GlyphClass: 2
Flags: MW
LayerCount: 2
Fore
SplineSet
1011 526 m 1,0,-1
 628 115 l 1,1,-1
 526 193 l 1,2,-1
 824 541 l 1,3,-1
 649 889 l 1,4,-1
 779 967 l 1,5,-1
 1016 553 l 1,6,-1
 1011 526 l 1,0,-1
603 526 m 1,7,-1
 221 115 l 1,8,-1
 118 193 l 1,9,-1
 417 541 l 1,10,-1
 241 889 l 1,11,-1
 372 967 l 1,12,-1
 608 553 l 1,13,-1
 603 526 l 1,7,-1
EndSplineSet
EndChar

StartChar: questiondown
Encoding: 191 191 129
Width: 872
GlyphClass: 2
Flags: MW
LayerCount: 2
Fore
SplineSet
711 676 m 1,0,-1
 705 639 l 2,1,2
 695 581 695 581 678.5 535.5 c 128,-1,3
 662 490 662 490 635.5 449.5 c 128,-1,4
 609 409 609 409 570 371 c 128,-1,5
 531 333 531 333 473 291 c 0,6,7
 418 250 418 250 378 216.5 c 128,-1,8
 338 183 338 183 310.5 148.5 c 128,-1,9
 283 114 283 114 265.5 74.5 c 128,-1,10
 248 35 248 35 239 -18 c 0,11,12
 231 -66 231 -66 238.5 -105.5 c 128,-1,13
 246 -145 246 -145 269.5 -173.5 c 128,-1,14
 293 -202 293 -202 333 -217.5 c 128,-1,15
 373 -233 373 -233 428 -233 c 0,16,17
 512 -233 512 -233 591.5 -207.5 c 128,-1,18
 671 -182 671 -182 746 -147 c 1,19,-1
 784 -293 l 1,20,21
 695 -335 695 -335 596 -364 c 128,-1,22
 497 -393 497 -393 400 -393 c 0,23,24
 307 -393 307 -393 237 -367.5 c 128,-1,25
 167 -342 167 -342 124 -294 c 128,-1,26
 81 -246 81 -246 65 -177 c 128,-1,27
 49 -108 49 -108 64 -20 c 0,28,29
 76 48 76 48 99 100 c 128,-1,30
 122 152 122 152 156.5 197 c 128,-1,31
 191 242 191 242 238.5 284 c 128,-1,32
 286 326 286 326 349 373 c 0,33,34
 409 418 409 418 448 451.5 c 128,-1,35
 487 485 487 485 511 516 c 128,-1,36
 535 547 535 547 548 580.5 c 128,-1,37
 561 614 561 614 569 657 c 2,38,-1
 572 676 l 1,39,-1
 711 676 l 1,0,-1
812 979 m 0,40,41
 805 941 805 941 791 914.5 c 128,-1,42
 777 888 777 888 756.5 871.5 c 128,-1,43
 736 855 736 855 711.5 847.5 c 128,-1,44
 687 840 687 840 660 840 c 0,45,46
 634 840 634 840 612.5 847.5 c 128,-1,47
 591 855 591 855 576.5 871.5 c 128,-1,48
 562 888 562 888 556.5 914.5 c 128,-1,49
 551 941 551 941 558 979 c 0,50,51
 565 1016 565 1016 579 1042 c 128,-1,52
 593 1068 593 1068 613.5 1085 c 128,-1,53
 634 1102 634 1102 658.5 1110 c 128,-1,54
 683 1118 683 1118 709 1118 c 0,55,56
 736 1118 736 1118 757.5 1110 c 128,-1,57
 779 1102 779 1102 793.5 1085 c 128,-1,58
 808 1068 808 1068 813.5 1042 c 128,-1,59
 819 1016 819 1016 812 979 c 0,40,41
EndSplineSet
EndChar

StartChar: AE
Encoding: 198 198 136
Width: 1745
GlyphClass: 2
Flags: MW
AnchorPoint: "Anchor-1" 1611 1579 basechar 0
AnchorPoint: "Anchor-2" 1422 1618 basechar 0
AnchorPoint: "Anchor-30" 1415 1579 basechar 0
AnchorPoint: "Anchor-0" 1220 1579 basechar 0
LayerCount: 2
Fore
SplineSet
1622 0 m 1,0,-1
 862 0 l 1,1,-1
 942 453 l 1,2,-1
 467 453 l 1,3,-1
 184 0 l 1,4,-1
 -2 0 l 1,5,-1
 911 1462 l 1,6,-1
 1880 1462 l 1,7,-1
 1851 1298 l 1,8,-1
 1278 1298 l 1,9,-1
 1198 846 l 1,10,-1
 1732 846 l 1,11,-1
 1704 684 l 1,12,-1
 1170 684 l 1,13,-1
 1078 164 l 1,14,-1
 1651 164 l 1,15,-1
 1622 0 l 1,0,-1
568 618 m 1,16,-1
 971 618 l 1,17,-1
 1091 1298 l 1,18,-1
 983 1298 l 1,19,-1
 568 618 l 1,16,-1
EndSplineSet
EndChar

StartChar: Eth
Encoding: 208 208 146
Width: 1401
GlyphClass: 2
Flags: MW
LayerCount: 2
Fore
SplineSet
189 805 m 1,0,-1
 341 805 l 1,1,-1
 457 1462 l 1,2,-1
 864 1462 l 2,3,4
 1017 1462 1017 1462 1133 1416 c 128,-1,5
 1249 1370 1249 1370 1320 1279.5 c 128,-1,6
 1391 1189 1391 1189 1414.5 1055 c 128,-1,7
 1438 921 1438 921 1407 745 c 0,8,9
 1374 560 1374 560 1302 420.5 c 128,-1,10
 1230 281 1230 281 1122.5 187.5 c 128,-1,11
 1015 94 1015 94 874 47 c 128,-1,12
 733 0 733 0 565 0 c 2,13,-1
 199 0 l 1,14,-1
 312 643 l 1,15,-1
 160 643 l 1,16,-1
 189 805 l 1,0,-1
1209 739 m 0,17,18
 1235 885 1235 885 1221 991.5 c 128,-1,19
 1207 1098 1207 1098 1156 1167 c 128,-1,20
 1105 1236 1105 1236 1019 1269.5 c 128,-1,21
 933 1303 933 1303 816 1303 c 2,22,-1
 615 1303 l 1,23,-1
 527 805 l 1,24,-1
 863 805 l 1,25,-1
 834 643 l 1,26,-1
 498 643 l 1,27,-1
 413 160 l 1,28,-1
 575 160 l 2,29,30
 839 160 839 160 998.5 306 c 128,-1,31
 1158 452 1158 452 1209 739 c 0,17,18
EndSplineSet
EndChar

StartChar: multiply
Encoding: 215 215 153
Width: 1128
GlyphClass: 2
Flags: MW
LayerCount: 2
Fore
SplineSet
586 723 m 1,0,-1
 325 1042 l 1,1,-1
 448 1147 l 1,2,-1
 709 829 l 1,3,-1
 1087 1147 l 1,4,-1
 1173 1044 l 1,5,-1
 795 723 l 1,6,-1
 1058 403 l 1,7,-1
 938 301 l 1,8,-1
 672 618 l 1,9,-1
 299 303 l 1,10,-1
 215 406 l 1,11,-1
 586 723 l 1,0,-1
EndSplineSet
EndChar

StartChar: Oslash
Encoding: 216 216 154
Width: 1520
GlyphClass: 2
Flags: MW
AnchorPoint: "Anchor-1" 1135 1579 basechar 0
AnchorPoint: "Anchor-0" 949 1579 basechar 0
AnchorPoint: "Anchor-30" 1042 1579 basechar 0
AnchorPoint: "Anchor-2" 1049 1618 basechar 0
LayerCount: 2
Fore
SplineSet
1556 1454 m 1,0,-1
 1438 1305 l 1,1,2
 1512 1206 1512 1206 1533.5 1061 c 128,-1,3
 1555 916 1555 916 1522 733 c 0,4,5
 1492 564 1492 564 1427 425 c 128,-1,6
 1362 286 1362 286 1265 187 c 128,-1,7
 1168 88 1168 88 1039.5 34 c 128,-1,8
 911 -20 911 -20 756 -20 c 0,9,10
 567 -20 567 -20 447 51 c 1,11,-1
 347 -76 l 1,12,-1
 223 2 l 1,13,-1
 339 147 l 1,14,15
 260 247 260 247 240.5 396 c 128,-1,16
 221 545 221 545 255 735 c 0,17,18
 285 905 285 905 347 1043.5 c 128,-1,19
 409 1182 409 1182 505.5 1280 c 128,-1,20
 602 1378 602 1378 731.5 1431.5 c 128,-1,21
 861 1485 861 1485 1024 1485 c 0,22,23
 1118 1485 1118 1485 1194.5 1464 c 128,-1,24
 1271 1443 1271 1443 1331 1405 c 1,25,-1
 1433 1532 l 1,26,-1
 1556 1454 l 1,0,-1
451 733 m 0,27,28
 428 602 428 602 432.5 497.5 c 128,-1,29
 437 393 437 393 472 315 c 1,30,-1
 1217 1260 l 1,31,32
 1174 1289 1174 1289 1120 1305 c 128,-1,33
 1066 1321 1066 1321 995 1321 c 0,34,35
 881 1321 881 1321 791 1280.5 c 128,-1,36
 701 1240 701 1240 633.5 1164.5 c 128,-1,37
 566 1089 566 1089 520.5 980 c 128,-1,38
 475 871 475 871 451 733 c 0,27,28
1325 733 m 0,39,40
 1370 990 1370 990 1309 1141 c 1,41,-1
 565 201 l 1,42,43
 607 173 607 173 661.5 158 c 128,-1,44
 716 143 716 143 785 143 c 0,45,46
 899 143 899 143 988.5 183.5 c 128,-1,47
 1078 224 1078 224 1145 300.5 c 128,-1,48
 1212 377 1212 377 1256.5 486.5 c 128,-1,49
 1301 596 1301 596 1325 733 c 0,39,40
EndSplineSet
EndChar

StartChar: Thorn
Encoding: 222 222 160
Width: 1180
GlyphClass: 2
Flags: MW
LayerCount: 2
Fore
SplineSet
1213 782 m 0,0,1
 1197 691 1197 691 1154.5 607 c 128,-1,2
 1112 523 1112 523 1037.5 458.5 c 128,-1,3
 963 394 963 394 853 355.5 c 128,-1,4
 743 317 743 317 591 317 c 2,5,-1
 441 317 l 1,6,-1
 385 0 l 1,7,-1
 199 0 l 1,8,-1
 457 1462 l 1,9,-1
 643 1462 l 1,10,-1
 598 1210 l 1,11,-1
 774 1210 l 2,12,13
 908 1210 908 1210 1000 1181.5 c 128,-1,14
 1092 1153 1092 1153 1145.5 1098.5 c 128,-1,15
 1199 1044 1199 1044 1215 964 c 128,-1,16
 1231 884 1231 884 1213 782 c 0,0,1
469 475 m 1,17,-1
 598 475 l 2,18,19
 691 475 691 475 763 491 c 128,-1,20
 835 507 835 507 887 542.5 c 128,-1,21
 939 578 939 578 972 634.5 c 128,-1,22
 1005 691 1005 691 1019 772 c 0,23,24
 1044 915 1044 915 974 983 c 128,-1,25
 904 1051 904 1051 730 1051 c 2,26,-1
 570 1051 l 1,27,-1
 469 475 l 1,17,-1
EndSplineSet
EndChar

StartChar: germandbls
Encoding: 223 223 161
Width: 1233
GlyphClass: 2
Flags: MW
LayerCount: 2
Fore
SplineSet
1232 1260 m 0,0,1
 1222 1203 1222 1203 1192.5 1158.5 c 128,-1,2
 1163 1114 1163 1114 1125.5 1077.5 c 128,-1,3
 1088 1041 1088 1041 1045 1011 c 128,-1,4
 1002 981 1002 981 965.5 953.5 c 128,-1,5
 929 926 929 926 903 899 c 128,-1,6
 877 872 877 872 871 842 c 0,7,8
 867 821 867 821 871.5 804.5 c 128,-1,9
 876 788 876 788 892 768.5 c 128,-1,10
 908 749 908 749 938.5 724.5 c 128,-1,11
 969 700 969 700 1020 662 c 0,12,13
 1069 625 1069 625 1107 589 c 128,-1,14
 1145 553 1145 553 1168 512 c 128,-1,15
 1191 471 1191 471 1199 423 c 128,-1,16
 1207 375 1207 375 1196 313 c 0,17,18
 1181 226 1181 226 1142 163 c 128,-1,19
 1103 100 1103 100 1045 59.5 c 128,-1,20
 987 19 987 19 913 -0.5 c 128,-1,21
 839 -20 839 -20 754 -20 c 0,22,23
 657 -20 657 -20 591 -2.5 c 128,-1,24
 525 15 525 15 478 49 c 1,25,-1
 507 215 l 1,26,27
 530 199 530 199 560 183.5 c 128,-1,28
 590 168 590 168 623.5 156 c 128,-1,29
 657 144 657 144 694 136.5 c 128,-1,30
 731 129 731 129 768 129 c 0,31,32
 824 129 824 129 866.5 141.5 c 128,-1,33
 909 154 909 154 939 176.5 c 128,-1,34
 969 199 969 199 986.5 231 c 128,-1,35
 1004 263 1004 263 1011 303 c 0,36,37
 1017 339 1017 339 1014 368.5 c 128,-1,38
 1011 398 1011 398 994.5 426 c 128,-1,39
 978 454 978 454 947 483 c 128,-1,40
 916 512 916 512 866 547 c 0,41,42
 810 587 810 587 773.5 621 c 128,-1,43
 737 655 737 655 716.5 688.5 c 128,-1,44
 696 722 696 722 691.5 757 c 128,-1,45
 687 792 687 792 694 834 c 0,46,47
 704 888 704 888 731.5 927.5 c 128,-1,48
 759 967 759 967 795.5 998.5 c 128,-1,49
 832 1030 832 1030 872.5 1057 c 128,-1,50
 913 1084 913 1084 949 1113 c 128,-1,51
 985 1142 985 1142 1011.5 1175.5 c 128,-1,52
 1038 1209 1038 1209 1046 1253 c 0,53,54
 1053 1295 1053 1295 1042 1326 c 128,-1,55
 1031 1357 1031 1357 1005 1377.5 c 128,-1,56
 979 1398 979 1398 939 1407.5 c 128,-1,57
 899 1417 899 1417 848 1417 c 0,58,59
 799 1417 799 1417 753.5 1407.5 c 128,-1,60
 708 1398 708 1398 670.5 1374 c 128,-1,61
 633 1350 633 1350 606 1308.5 c 128,-1,62
 579 1267 579 1267 568 1202 c 2,63,-1
 356 0 l 1,64,-1
 174 0 l 1,65,-1
 386 1200 l 2,66,67
 404 1304 404 1304 448 1374.5 c 128,-1,68
 492 1445 492 1445 556 1487.5 c 128,-1,69
 620 1530 620 1530 701 1548.5 c 128,-1,70
 782 1567 782 1567 874 1567 c 256,71,72
 966 1567 966 1567 1039 1548 c 128,-1,73
 1112 1529 1112 1529 1159 1491 c 128,-1,74
 1206 1453 1206 1453 1226 1395 c 128,-1,75
 1246 1337 1246 1337 1232 1260 c 0,0,1
EndSplineSet
EndChar

StartChar: ae
Encoding: 230 230 168
Width: 1706
GlyphClass: 2
Flags: MW
AnchorPoint: "Anchor-1" 1190 1241 basechar 0
AnchorPoint: "Anchor-0" 985 1241 basechar 0
AnchorPoint: "Anchor-2" 1094 1280 basechar 0
AnchorPoint: "Anchor-30" 1087 1241 basechar 0
LayerCount: 2
Fore
SplineSet
148 307 m 0,0,1
 177 471 177 471 308 559 c 128,-1,2
 439 647 439 647 676 655 c 2,3,-1
 862 662 l 1,4,-1
 874 731 l 2,5,6
 886 798 886 798 879.5 843 c 128,-1,7
 873 888 873 888 850 915.5 c 128,-1,8
 827 943 827 943 789 955 c 128,-1,9
 751 967 751 967 699 967 c 0,10,11
 616 967 616 967 540 943 c 128,-1,12
 464 919 464 919 392 885 c 1,13,-1
 352 1022 l 1,14,15
 433 1062 433 1062 529 1090 c 128,-1,16
 625 1118 625 1118 725 1118 c 0,17,18
 856 1118 856 1118 931.5 1075.5 c 128,-1,19
 1007 1033 1007 1033 1034 940 c 1,20,21
 1100 1025 1100 1025 1191 1071.5 c 128,-1,22
 1282 1118 1282 1118 1385 1118 c 0,23,24
 1482 1118 1482 1118 1553 1082.5 c 128,-1,25
 1624 1047 1624 1047 1666.5 982.5 c 128,-1,26
 1709 918 1709 918 1721.5 827.5 c 128,-1,27
 1734 737 1734 737 1715 627 c 2,28,-1
 1695 514 l 1,29,-1
 1023 514 l 1,30,31
 994 321 994 321 1051.5 230 c 128,-1,32
 1109 139 1109 139 1256 139 c 0,33,34
 1305 139 1305 139 1348 144 c 128,-1,35
 1391 149 1391 149 1432 158.5 c 128,-1,36
 1473 168 1473 168 1512.5 182.5 c 128,-1,37
 1552 197 1552 197 1592 215 c 1,38,-1
 1563 53 l 1,39,40
 1521 34 1521 34 1481 20 c 128,-1,41
 1441 6 1441 6 1400 -3 c 128,-1,42
 1359 -12 1359 -12 1315.5 -16 c 128,-1,43
 1272 -20 1272 -20 1223 -20 c 0,44,45
 1085 -20 1085 -20 994.5 37 c 128,-1,46
 904 94 904 94 862 209 c 1,47,48
 818 155 818 155 772.5 112.5 c 128,-1,49
 727 70 727 70 674.5 40.5 c 128,-1,50
 622 11 622 11 561 -4.5 c 128,-1,51
 500 -20 500 -20 426 -20 c 0,52,53
 355 -20 355 -20 297 -0.5 c 128,-1,54
 239 19 239 19 201.5 59.5 c 128,-1,55
 164 100 164 100 148.5 161.5 c 128,-1,56
 133 223 133 223 148 307 c 0,0,1
337 305 m 0,57,58
 321 213 321 213 361.5 170 c 128,-1,59
 402 127 402 127 481 127 c 0,60,61
 542 127 542 127 597.5 146 c 128,-1,62
 653 165 653 165 698 203.5 c 128,-1,63
 743 242 743 242 774.5 300.5 c 128,-1,64
 806 359 806 359 820 438 c 2,65,-1
 838 537 l 1,66,-1
 693 530 l 2,67,68
 602 526 602 526 538.5 510 c 128,-1,69
 475 494 475 494 433.5 465.5 c 128,-1,70
 392 437 392 437 369 396.5 c 128,-1,71
 346 356 346 356 337 305 c 0,57,58
1355 967 m 0,72,73
 1245 967 1245 967 1167.5 889 c 128,-1,74
 1090 811 1090 811 1053 662 c 1,75,-1
 1524 662 l 1,76,77
 1536 730 1536 730 1533 786.5 c 128,-1,78
 1530 843 1530 843 1509.5 883 c 128,-1,79
 1489 923 1489 923 1451 945 c 128,-1,80
 1413 967 1413 967 1355 967 c 0,72,73
EndSplineSet
EndChar

StartChar: eth
Encoding: 240 240 178
Width: 1182
GlyphClass: 2
Flags: MW
LayerCount: 2
Fore
SplineSet
1170 573 m 0,0,1
 1145 431 1145 431 1092 321 c 128,-1,2
 1039 211 1039 211 963 135 c 128,-1,3
 887 59 887 59 791 19.5 c 128,-1,4
 695 -20 695 -20 584 -20 c 0,5,6
 480 -20 480 -20 398.5 13 c 128,-1,7
 317 46 317 46 265 109.5 c 128,-1,8
 213 173 213 173 193.5 265.5 c 128,-1,9
 174 358 174 358 195 477 c 256,10,11
 216 596 216 596 264 688 c 128,-1,12
 312 780 312 780 382 843 c 128,-1,13
 452 906 452 906 541.5 938.5 c 128,-1,14
 631 971 631 971 736 971 c 0,15,16
 838 971 838 971 910 941.5 c 128,-1,17
 982 912 982 912 1014 852 c 1,18,-1
 1023 856 l 1,19,20
 1013 974 1013 974 970 1070 c 128,-1,21
 927 1166 927 1166 851 1247 c 1,22,-1
 568 1094 l 1,23,-1
 514 1208 l 1,24,-1
 754 1339 l 1,25,26
 719 1367 719 1367 681.5 1394.5 c 128,-1,27
 644 1422 644 1422 601 1448 c 1,28,-1
 693 1571 l 1,29,30
 752 1539 752 1539 807 1503 c 128,-1,31
 862 1467 862 1467 913 1423 c 1,32,-1
 1164 1561 l 1,33,-1
 1218 1448 l 1,34,-1
 1003 1331 l 1,35,36
 1059 1266 1059 1266 1100.5 1188 c 128,-1,37
 1142 1110 1142 1110 1165 1016.5 c 128,-1,38
 1188 923 1188 923 1190.5 812.5 c 128,-1,39
 1193 702 1193 702 1170 573 c 0,0,1
974 526 m 0,40,41
 984 582 984 582 976 635.5 c 128,-1,42
 968 689 968 689 940.5 730 c 128,-1,43
 913 771 913 771 862.5 796 c 128,-1,44
 812 821 812 821 737 821 c 0,45,46
 660 821 660 821 601.5 798 c 128,-1,47
 543 775 543 775 500 731 c 128,-1,48
 457 687 457 687 429 621.5 c 128,-1,49
 401 556 401 556 386 471 c 0,50,51
 373 395 373 395 378.5 332.5 c 128,-1,52
 384 270 384 270 411.5 225 c 128,-1,53
 439 180 439 180 489 155.5 c 128,-1,54
 539 131 539 131 615 131 c 0,55,56
 769 131 769 131 854 230.5 c 128,-1,57
 939 330 939 330 974 526 c 0,40,41
EndSplineSet
EndChar

StartChar: divide
Encoding: 247 247 185
Width: 1128
GlyphClass: 2
Flags: MW
LayerCount: 2
Fore
SplineSet
216 647 m 1,0,-1
 243 797 l 1,1,-1
 1167 797 l 1,2,-1
 1140 647 l 1,3,-1
 216 647 l 1,0,-1
515 373 m 0,4,5
 521 408 521 408 534 431.5 c 128,-1,6
 547 455 547 455 565.5 470 c 128,-1,7
 584 485 584 485 605.5 491.5 c 128,-1,8
 627 498 627 498 651 498 c 0,9,10
 674 498 674 498 694 491.5 c 128,-1,11
 714 485 714 485 727 470 c 128,-1,12
 740 455 740 455 745 431.5 c 128,-1,13
 750 408 750 408 744 373 c 0,14,15
 738 340 738 340 725 316.5 c 128,-1,16
 712 293 712 293 693 277.5 c 128,-1,17
 674 262 674 262 652 255 c 128,-1,18
 630 248 630 248 607 248 c 0,19,20
 583 248 583 248 563.5 255 c 128,-1,21
 544 262 544 262 531.5 277.5 c 128,-1,22
 519 293 519 293 514 316.5 c 128,-1,23
 509 340 509 340 515 373 c 0,4,5
638 1071 m 0,24,25
 644 1106 644 1106 657 1129.5 c 128,-1,26
 670 1153 670 1153 688.5 1168 c 128,-1,27
 707 1183 707 1183 728.5 1189.5 c 128,-1,28
 750 1196 750 1196 774 1196 c 0,29,30
 797 1196 797 1196 817 1189.5 c 128,-1,31
 837 1183 837 1183 850 1168 c 128,-1,32
 863 1153 863 1153 868 1129.5 c 128,-1,33
 873 1106 873 1106 867 1071 c 0,34,35
 861 1038 861 1038 848 1014.5 c 128,-1,36
 835 991 835 991 816 975.5 c 128,-1,37
 797 960 797 960 775 953 c 128,-1,38
 753 946 753 946 730 946 c 0,39,40
 706 946 706 946 686.5 953 c 128,-1,41
 667 960 667 960 654.5 975.5 c 128,-1,42
 642 991 642 991 637 1014.5 c 128,-1,43
 632 1038 632 1038 638 1071 c 0,24,25
EndSplineSet
EndChar

StartChar: oslash
Encoding: 248 248 186
Width: 1182
GlyphClass: 2
Flags: MW
AnchorPoint: "Anchor-1" 965 1241 basechar 0
AnchorPoint: "Anchor-0" 692 1241 basechar 0
AnchorPoint: "Anchor-30" 804 1241 basechar 0
AnchorPoint: "Anchor-2" 811 1280 basechar 0
LayerCount: 2
Fore
SplineSet
1168 551 m 0,0,1
 1144 414 1144 414 1091.5 307.5 c 128,-1,2
 1039 201 1039 201 964 128.5 c 128,-1,3
 889 56 889 56 793 18 c 128,-1,4
 697 -20 697 -20 586 -20 c 0,5,6
 461 -20 461 -20 373 33 c 1,7,-1
 286 -76 l 1,8,-1
 168 -2 l 1,9,-1
 271 129 l 1,10,11
 221 201 221 201 204.5 307.5 c 128,-1,12
 188 414 188 414 212 551 c 0,13,14
 236 687 236 687 288 792.5 c 128,-1,15
 340 898 340 898 415 970.5 c 128,-1,16
 490 1043 490 1043 586 1080.5 c 128,-1,17
 682 1118 682 1118 793 1118 c 0,18,19
 856 1118 856 1118 910 1103.5 c 128,-1,20
 964 1089 964 1089 1008 1061 c 1,21,-1
 1095 1169 l 1,22,-1
 1213 1096 l 1,23,-1
 1111 967 l 1,24,25
 1160 894 1160 894 1176 789.5 c 128,-1,26
 1192 685 1192 685 1168 551 c 0,0,1
400 551 m 0,27,28
 385 467 385 467 383 401.5 c 128,-1,29
 381 336 381 336 394 285 c 1,30,-1
 905 932 l 1,31,32
 879 949 879 949 843.5 958 c 128,-1,33
 808 967 808 967 763 967 c 0,34,35
 609 967 609 967 523 863.5 c 128,-1,36
 437 760 437 760 400 551 c 0,27,28
980 551 m 0,37,38
 1008 710 1008 710 987 809 c 1,39,-1
 475 164 l 1,40,41
 503 147 503 147 537.5 139 c 128,-1,42
 572 131 572 131 617 131 c 0,43,44
 771 131 771 131 857 236.5 c 128,-1,45
 943 342 943 342 980 551 c 0,37,38
EndSplineSet
EndChar

StartChar: thorn
Encoding: 254 254 192
Width: 1200
GlyphClass: 2
Flags: MW
LayerCount: 2
Fore
SplineSet
524 950 m 1,0,1
 553 985 553 985 587 1015.5 c 128,-1,2
 621 1046 621 1046 663.5 1068.5 c 128,-1,3
 706 1091 706 1091 756.5 1104.5 c 128,-1,4
 807 1118 807 1118 867 1118 c 0,5,6
 961 1118 961 1118 1031.5 1082 c 128,-1,7
 1102 1046 1102 1046 1144 974.5 c 128,-1,8
 1186 903 1186 903 1197.5 797 c 128,-1,9
 1209 691 1209 691 1184 551 c 0,10,11
 1159 410 1159 410 1110.5 303.5 c 128,-1,12
 1062 197 1062 197 994.5 125 c 128,-1,13
 927 53 927 53 843.5 16.5 c 128,-1,14
 760 -20 760 -20 666 -20 c 0,15,16
 607 -20 607 -20 561.5 -7 c 128,-1,17
 516 6 516 6 481.5 27.5 c 128,-1,18
 447 49 447 49 422.5 78 c 128,-1,19
 398 107 398 107 381 139 c 1,20,-1
 369 139 l 1,21,22
 366 105 366 105 363 74 c 0,23,24
 360 48 360 48 357.5 20.5 c 128,-1,25
 355 -7 355 -7 352 -23 c 2,26,-1
 269 -492 l 1,27,-1
 87 -492 l 1,28,-1
 448 1556 l 1,29,-1
 630 1556 l 1,30,-1
 550 1098 l 1,31,-1
 516 950 l 1,32,-1
 524 950 l 1,0,1
806 967 m 0,33,34
 730 967 730 967 673 944 c 128,-1,35
 616 921 616 921 575.5 874 c 128,-1,36
 535 827 535 827 507 757 c 128,-1,37
 479 687 479 687 460 592 c 2,38,-1
 453 551 l 2,39,40
 435 450 435 450 435 371.5 c 128,-1,41
 435 293 435 293 458 239.5 c 128,-1,42
 481 186 481 186 530 158.5 c 128,-1,43
 579 131 579 131 660 131 c 0,44,45
 795 131 795 131 878 240 c 128,-1,46
 961 349 961 349 997 553 c 0,47,48
 1034 761 1034 761 988.5 864 c 128,-1,49
 943 967 943 967 806 967 c 0,33,34
EndSplineSet
EndChar

StartChar: dcroat
Encoding: 273 273 211
Width: 1200
GlyphClass: 2
Flags: MW
LayerCount: 2
Fore
SplineSet
878 147 m 1,0,-1
 870 147 l 1,1,2
 842 113 842 113 807 82.5 c 128,-1,3
 772 52 772 52 729.5 29 c 128,-1,4
 687 6 687 6 636.5 -7 c 128,-1,5
 586 -20 586 -20 526 -20 c 0,6,7
 433 -20 433 -20 362.5 15 c 128,-1,8
 292 50 292 50 249 119 c 128,-1,9
 206 188 206 188 194 290 c 128,-1,10
 182 392 182 392 206 526 c 0,11,12
 230 661 230 661 278 764 c 128,-1,13
 326 867 326 867 393 936.5 c 128,-1,14
 460 1006 460 1006 543.5 1041.5 c 128,-1,15
 627 1077 627 1077 720 1077 c 0,16,17
 779 1077 779 1077 824.5 1064.5 c 128,-1,18
 870 1052 870 1052 905 1030 c 128,-1,19
 940 1008 940 1008 965 979 c 128,-1,20
 990 950 990 950 1006 918 c 1,21,-1
 1018 918 l 1,22,23
 1021 951 1021 951 1023 982 c 0,24,25
 1026 1008 1026 1008 1028.5 1035.5 c 128,-1,26
 1031 1063 1031 1063 1034 1079 c 2,27,-1
 1062 1237 l 1,28,-1
 683 1237 l 1,29,-1
 707 1374 l 1,30,-1
 1086 1374 l 1,31,-1
 1118 1556 l 1,32,-1
 1300 1556 l 1,33,-1
 1268 1374 l 1,34,-1
 1424 1374 l 1,35,-1
 1400 1237 l 1,36,-1
 1244 1237 l 1,37,-1
 1026 0 l 1,38,-1
 879 0 l 1,39,-1
 878 147 l 1,0,-1
588 131 m 0,40,41
 664 131 664 131 720.5 153 c 128,-1,42
 777 175 777 175 817.5 219.5 c 128,-1,43
 858 264 858 264 885 330.5 c 128,-1,44
 912 397 912 397 930 487 c 2,45,-1
 937 526 l 2,46,47
 954 623 954 623 953.5 697.5 c 128,-1,48
 953 772 953 772 929.5 823 c 128,-1,49
 906 874 906 874 856.5 900 c 128,-1,50
 807 926 807 926 726 926 c 0,51,52
 591 926 591 926 509.5 822.5 c 128,-1,53
 428 719 428 719 393 524 c 0,54,55
 358 326 358 326 404.5 228.5 c 128,-1,56
 451 131 451 131 588 131 c 0,40,41
EndSplineSet
EndChar

StartChar: Hbar
Encoding: 294 294 232
Width: 1436
GlyphClass: 2
Flags: MW
LayerCount: 2
Fore
SplineSet
414 1219 m 1,0,-1
 457 1462 l 1,1,-1
 643 1462 l 1,2,-1
 600 1219 l 1,3,-1
 1266 1219 l 1,4,-1
 1309 1462 l 1,5,-1
 1495 1462 l 1,6,-1
 1452 1219 l 1,7,-1
 1651 1219 l 1,8,-1
 1624 1069 l 1,9,-1
 1425 1069 l 1,10,-1
 1237 0 l 1,11,-1
 1051 0 l 1,12,-1
 1171 682 l 1,13,-1
 505 682 l 1,14,-1
 385 0 l 1,15,-1
 199 0 l 1,16,-1
 387 1069 l 1,17,-1
 188 1069 l 1,18,-1
 215 1219 l 1,19,-1
 414 1219 l 1,0,-1
1200 846 m 1,20,-1
 1239 1069 l 1,21,-1
 573 1069 l 1,22,-1
 534 846 l 1,23,-1
 1200 846 l 1,20,-1
EndSplineSet
EndChar

StartChar: hbar
Encoding: 295 295 233
Width: 1206
GlyphClass: 2
Flags: MW
LayerCount: 2
Fore
SplineSet
860 0 m 1,0,-1
 977 666 l 2,1,2
 1000 796 1000 796 959 861 c 128,-1,3
 918 926 918 926 806 926 c 0,4,5
 725 926 725 926 665.5 900 c 128,-1,6
 606 874 606 874 563.5 823 c 128,-1,7
 521 772 521 772 493.5 698 c 128,-1,8
 466 624 466 624 449 528 c 2,9,-1
 356 0 l 1,10,-1
 174 0 l 1,11,-1
 392 1237 l 1,12,-1
 236 1237 l 1,13,-1
 260 1374 l 1,14,-1
 416 1374 l 1,15,-1
 448 1556 l 1,16,-1
 630 1556 l 1,17,-1
 598 1374 l 1,18,-1
 977 1374 l 1,19,-1
 953 1237 l 1,20,-1
 574 1237 l 1,21,-1
 542 1053 l 1,22,-1
 508 909 l 1,23,-1
 518 909 l 1,24,25
 551 952 551 952 591 983.5 c 128,-1,26
 631 1015 631 1015 675.5 1036 c 128,-1,27
 720 1057 720 1057 768 1067 c 128,-1,28
 816 1077 816 1077 864 1077 c 0,29,30
 1047 1077 1047 1077 1122.5 981.5 c 128,-1,31
 1198 886 1198 886 1161 676 c 2,32,-1
 1042 0 l 1,33,-1
 860 0 l 1,0,-1
EndSplineSet
EndChar

StartChar: dotlessi
Encoding: 305 305 243
Width: 530
GlyphClass: 2
Flags: MW
AnchorPoint: "Anchor-30" 485 1241 basechar 0
AnchorPoint: "Anchor-2" 492 1280 basechar 0
LayerCount: 2
Fore
SplineSet
356 0 m 1,0,-1
 174 0 l 1,1,-1
 368 1098 l 1,2,-1
 550 1098 l 1,3,-1
 356 0 l 1,0,-1
EndSplineSet
EndChar

StartChar: kgreenlandic
Encoding: 312 312 250
Width: 1016
GlyphClass: 2
Flags: MW
LayerCount: 2
Fore
SplineSet
803 0 m 1,0,-1
 549 489 l 1,1,-1
 426 408 l 1,2,-1
 354 0 l 1,3,-1
 174 0 l 1,4,-1
 368 1098 l 1,5,-1
 548 1098 l 1,6,-1
 498 817 l 2,7,8
 487 757 487 757 475.5 706 c 128,-1,9
 464 655 464 655 455 617 c 0,10,11
 443 573 443 573 433 537 c 1,12,-1
 595 713 l 1,13,-1
 970 1098 l 1,14,-1
 1175 1098 l 1,15,-1
 687 608 l 1,16,-1
 1008 0 l 1,17,-1
 803 0 l 1,0,-1
EndSplineSet
EndChar

StartChar: Lslash
Encoding: 321 321 259
Width: 1006
GlyphClass: 2
Flags: MW
LayerCount: 2
Fore
SplineSet
318 676 m 1,0,-1
 457 1462 l 1,1,-1
 643 1462 l 1,2,-1
 525 793 l 1,3,-1
 777 936 l 1,4,-1
 833 811 l 1,5,-1
 494 621 l 1,6,-1
 414 166 l 1,7,-1
 987 166 l 1,8,-1
 958 0 l 1,9,-1
 199 0 l 1,10,-1
 288 504 l 1,11,-1
 180 444 l 1,12,-1
 129 569 l 1,13,-1
 318 676 l 1,0,-1
EndSplineSet
EndChar

StartChar: lslash
Encoding: 322 322 260
Width: 530
GlyphClass: 2
Flags: MW
LayerCount: 2
Fore
SplineSet
308 758 m 1,0,-1
 448 1556 l 1,1,-1
 630 1556 l 1,2,-1
 511 877 l 1,3,-1
 630 946 l 1,4,-1
 686 825 l 1,5,-1
 480 705 l 1,6,-1
 356 0 l 1,7,-1
 174 0 l 1,8,-1
 277 586 l 1,9,-1
 159 516 l 1,10,-1
 102 637 l 1,11,-1
 308 758 l 1,0,-1
EndSplineSet
EndChar

StartChar: Eng
Encoding: 330 330 268
Width: 1493
GlyphClass: 2
Flags: MW
LayerCount: 2
Fore
SplineSet
838 -389 m 0,0,1
 787 -389 787 -389 750 -382.5 c 128,-1,2
 713 -376 713 -376 688 -365 c 1,3,-1
 716 -205 l 1,4,5
 748 -214 748 -214 786 -219.5 c 128,-1,6
 824 -225 824 -225 869 -225 c 0,7,8
 906 -225 906 -225 945.5 -215.5 c 128,-1,9
 985 -206 985 -206 1019.5 -181 c 128,-1,10
 1054 -156 1054 -156 1081 -112 c 128,-1,11
 1108 -68 1108 -68 1120 0 c 1,12,-1
 573 1210 l 1,13,-1
 565 1210 l 1,14,15
 557 1133 557 1133 548 1057 c 0,16,17
 541 992 541 992 531 921 c 128,-1,18
 521 850 521 850 511 793 c 2,19,-1
 371 0 l 1,20,-1
 199 0 l 1,21,-1
 457 1462 l 1,22,-1
 670 1462 l 1,23,-1
 1181 299 l 1,24,-1
 1188 299 l 1,25,26
 1196 364 1196 364 1204 429 c 0,27,28
 1211 485 1211 485 1219.5 547.5 c 128,-1,29
 1228 610 1228 610 1237 662 c 2,30,-1
 1378 1462 l 1,31,-1
 1552 1462 l 1,32,-1
 1298 20 l 2,33,34
 1279 -85 1279 -85 1238 -162 c 128,-1,35
 1197 -239 1197 -239 1138 -289.5 c 128,-1,36
 1079 -340 1079 -340 1003 -364.5 c 128,-1,37
 927 -389 927 -389 838 -389 c 0,0,1
EndSplineSet
EndChar

StartChar: eng
Encoding: 331 331 269
Width: 1206
GlyphClass: 2
Flags: MW
LayerCount: 2
Fore
SplineSet
663 -492 m 0,0,1
 615 -492 615 -492 585 -485 c 128,-1,2
 555 -478 555 -478 534 -467 c 1,3,-1
 560 -319 l 1,4,5
 584 -329 584 -329 610 -334.5 c 128,-1,6
 636 -340 636 -340 671 -340 c 0,7,8
 698 -340 698 -340 722.5 -332.5 c 128,-1,9
 747 -325 747 -325 768 -305.5 c 128,-1,10
 789 -286 789 -286 804 -253.5 c 128,-1,11
 819 -221 819 -221 828 -170 c 2,12,-1
 985 707 l 2,13,14
 1008 837 1008 837 967 902 c 128,-1,15
 926 967 926 967 814 967 c 0,16,17
 733 967 733 967 673 941 c 128,-1,18
 613 915 613 915 570.5 864 c 128,-1,19
 528 813 528 813 500.5 739 c 128,-1,20
 473 665 473 665 456 569 c 2,21,-1
 356 0 l 1,22,-1
 174 0 l 1,23,-1
 368 1098 l 1,24,-1
 516 1098 l 1,25,-1
 516 950 l 1,26,-1
 526 950 l 1,27,28
 559 993 559 993 598.5 1024.5 c 128,-1,29
 638 1056 638 1056 683 1077 c 128,-1,30
 728 1098 728 1098 775.5 1108 c 128,-1,31
 823 1118 823 1118 871 1118 c 0,32,33
 1054 1118 1054 1118 1129.5 1022.5 c 128,-1,34
 1205 927 1205 927 1168 717 c 2,35,-1
 1012 -158 l 2,36,37
 998 -235 998 -235 970.5 -296.5 c 128,-1,38
 943 -358 943 -358 899.5 -401.5 c 128,-1,39
 856 -445 856 -445 797 -468.5 c 128,-1,40
 738 -492 738 -492 663 -492 c 0,0,1
EndSplineSet
EndChar

StartChar: OE
Encoding: 338 338 276
Width: 1823
GlyphClass: 2
Flags: MW
AnchorPoint: "Anchor-0" 1218 1579 basechar 0
AnchorPoint: "Anchor-2" 1318 1618 basechar 0
AnchorPoint: "Anchor-1" 1404 1579 basechar 0
AnchorPoint: "Anchor-30" 1311 1579 basechar 0
LayerCount: 2
Fore
SplineSet
1700 0 m 1,0,-1
 942 0 l 1,1,2
 897 -9 897 -9 850.5 -14.5 c 128,-1,3
 804 -20 804 -20 756 -20 c 0,4,5
 593 -20 593 -20 483.5 34 c 128,-1,6
 374 88 374 88 312.5 187 c 128,-1,7
 251 286 251 286 238 425.5 c 128,-1,8
 225 565 225 565 255 735 c 256,9,10
 285 905 285 905 347 1043.5 c 128,-1,11
 409 1182 409 1182 505.5 1280 c 128,-1,12
 602 1378 602 1378 731.5 1431.5 c 128,-1,13
 861 1485 861 1485 1024 1485 c 0,14,15
 1122 1485 1122 1485 1202 1462 c 1,16,-1
 1958 1462 l 1,17,-1
 1929 1298 l 1,18,-1
 1355 1298 l 1,19,-1
 1275 846 l 1,20,-1
 1810 846 l 1,21,-1
 1782 684 l 1,22,-1
 1247 684 l 1,23,-1
 1155 164 l 1,24,-1
 1729 164 l 1,25,-1
 1700 0 l 1,0,-1
995 1321 m 0,26,27
 881 1321 881 1321 791 1280.5 c 128,-1,28
 701 1240 701 1240 633.5 1164.5 c 128,-1,29
 566 1089 566 1089 521 980 c 128,-1,30
 476 871 476 871 451 733 c 0,31,32
 427 596 427 596 433.5 486.5 c 128,-1,33
 440 377 440 377 480 300.5 c 128,-1,34
 520 224 520 224 595.5 183.5 c 128,-1,35
 671 143 671 143 785 143 c 0,36,37
 837 143 837 143 883.5 152 c 128,-1,38
 930 161 930 161 971 176 c 1,39,-1
 1167 1288 l 1,40,41
 1132 1304 1132 1304 1089 1312.5 c 128,-1,42
 1046 1321 1046 1321 995 1321 c 0,26,27
EndSplineSet
EndChar

StartChar: oe
Encoding: 339 339 277
Width: 1864
GlyphClass: 2
Flags: MW
AnchorPoint: "Anchor-30" 1192 1241 basechar 0
AnchorPoint: "Anchor-2" 1199 1280 basechar 0
AnchorPoint: "Anchor-0" 1088 1241 basechar 0
AnchorPoint: "Anchor-1" 1296 1241 basechar 0
LayerCount: 2
Fore
SplineSet
1372 -20 m 0,0,1
 1242 -20 1242 -20 1150 36 c 128,-1,2
 1058 92 1058 92 1012 201 c 1,3,4
 930 92 930 92 821 36 c 128,-1,5
 712 -20 712 -20 584 -20 c 0,6,7
 481 -20 481 -20 401 18 c 128,-1,8
 321 56 321 56 270 128.5 c 128,-1,9
 219 201 219 201 202.5 307.5 c 128,-1,10
 186 414 186 414 210 551 c 0,11,12
 234 687 234 687 286 792.5 c 128,-1,13
 338 898 338 898 413 970.5 c 128,-1,14
 488 1043 488 1043 584 1080.5 c 128,-1,15
 680 1118 680 1118 791 1118 c 0,16,17
 912 1118 912 1118 1000 1062.5 c 128,-1,18
 1088 1007 1088 1007 1132 901 c 1,19,20
 1211 1006 1211 1006 1313 1062 c 128,-1,21
 1415 1118 1415 1118 1532 1118 c 0,22,23
 1631 1118 1631 1118 1704 1082.5 c 128,-1,24
 1777 1047 1777 1047 1820.5 982.5 c 128,-1,25
 1864 918 1864 918 1877.5 827.5 c 128,-1,26
 1891 737 1891 737 1872 627 c 2,27,-1
 1852 514 l 1,28,-1
 1160 514 l 1,29,30
 1131 321 1131 321 1191.5 230 c 128,-1,31
 1252 139 1252 139 1403 139 c 0,32,33
 1454 139 1454 139 1498 144 c 128,-1,34
 1542 149 1542 149 1584.5 158.5 c 128,-1,35
 1627 168 1627 168 1667.5 182.5 c 128,-1,36
 1708 197 1708 197 1750 215 c 1,37,-1
 1721 53 l 1,38,39
 1678 34 1678 34 1637 20 c 128,-1,40
 1596 6 1596 6 1554 -3 c 128,-1,41
 1512 -12 1512 -12 1467.5 -16 c 128,-1,42
 1423 -20 1423 -20 1372 -20 c 0,0,1
398 551 m 256,43,44
 361 342 361 342 411 236.5 c 128,-1,45
 461 131 461 131 615 131 c 0,46,47
 765 131 765 131 852.5 231.5 c 128,-1,48
 940 332 940 332 976 541 c 0,49,50
 1015 761 1015 761 963.5 864 c 128,-1,51
 912 967 912 967 761 967 c 0,52,53
 607 967 607 967 521 863.5 c 128,-1,54
 435 760 435 760 398 551 c 256,43,44
1682 662 m 1,55,56
 1694 730 1694 730 1690.5 786.5 c 128,-1,57
 1687 843 1687 843 1665.5 883 c 128,-1,58
 1644 923 1644 923 1604 945 c 128,-1,59
 1564 967 1564 967 1502 967 c 0,60,61
 1388 967 1388 967 1307.5 889 c 128,-1,62
 1227 811 1227 811 1190 662 c 1,63,-1
 1682 662 l 1,55,56
EndSplineSet
EndChar

StartChar: Tbar
Encoding: 358 358 296
Width: 1063
GlyphClass: 2
Flags: MW
LayerCount: 2
Fore
SplineSet
582 819 m 1,0,-1
 667 1298 l 1,1,-1
 249 1298 l 1,2,-1
 278 1462 l 1,3,-1
 1300 1462 l 1,4,-1
 1271 1298 l 1,5,-1
 854 1298 l 1,6,-1
 769 819 l 1,7,-1
 1064 819 l 1,8,-1
 1038 670 l 1,9,-1
 743 670 l 1,10,-1
 625 0 l 1,11,-1
 438 0 l 1,12,-1
 556 670 l 1,13,-1
 259 670 l 1,14,-1
 285 819 l 1,15,-1
 582 819 l 1,0,-1
EndSplineSet
EndChar

StartChar: tbar
Encoding: 359 359 297
Width: 694
GlyphClass: 2
Flags: MW
LayerCount: 2
Fore
SplineSet
529 129 m 0,0,1
 547 129 547 129 569.5 131 c 128,-1,2
 592 133 592 133 614 136 c 128,-1,3
 636 139 636 139 654 143 c 128,-1,4
 672 147 672 147 681 150 c 1,5,-1
 657 12 l 1,6,7
 643 6 643 6 622 0 c 128,-1,8
 601 -6 601 -6 576 -10.5 c 128,-1,9
 551 -15 551 -15 524.5 -17.5 c 128,-1,10
 498 -20 498 -20 473 -20 c 0,11,12
 411 -20 411 -20 361 -4 c 128,-1,13
 311 12 311 12 279.5 51 c 128,-1,14
 248 90 248 90 237.5 156.5 c 128,-1,15
 227 223 227 223 245 324 c 2,16,-1
 289 575 l 1,17,-1
 150 575 l 1,18,-1
 175 713 l 1,19,-1
 314 713 l 1,20,-1
 357 961 l 1,21,-1
 202 961 l 1,22,-1
 217 1042 l 1,23,-1
 385 1120 l 1,24,-1
 504 1350 l 1,25,-1
 609 1350 l 1,26,-1
 565 1098 l 1,27,-1
 841 1098 l 1,28,-1
 816 961 l 1,29,-1
 540 961 l 1,30,-1
 497 713 l 1,31,-1
 755 713 l 1,32,-1
 730 575 l 1,33,-1
 472 575 l 1,34,-1
 428 324 l 2,35,36
 411 227 411 227 434 178 c 128,-1,37
 457 129 457 129 529 129 c 0,0,1
EndSplineSet
EndChar

StartChar: longs
Encoding: 383 383 321
Width: 588
GlyphClass: 2
Flags: MW
LayerCount: 2
Fore
SplineSet
174 0 m 1,0,-1
 386 1200 l 2,1,2
 405 1307 405 1307 439.5 1377.5 c 128,-1,3
 474 1448 474 1448 524 1490 c 128,-1,4
 574 1532 574 1532 639 1549.5 c 128,-1,5
 704 1567 704 1567 782 1567 c 0,6,7
 841 1567 841 1567 888.5 1555.5 c 128,-1,8
 936 1544 936 1544 972 1530 c 1,9,-1
 900 1389 l 1,10,11
 871 1400 871 1400 836.5 1408.5 c 128,-1,12
 802 1417 802 1417 762 1417 c 256,13,14
 722 1417 722 1417 691.5 1407.5 c 128,-1,15
 661 1398 661 1398 637 1374 c 128,-1,16
 613 1350 613 1350 596 1308.5 c 128,-1,17
 579 1267 579 1267 568 1202 c 2,18,-1
 356 0 l 1,19,-1
 174 0 l 1,0,-1
EndSplineSet
EndChar

StartChar: florin
Encoding: 402 402 322
Width: 1128
GlyphClass: 2
Flags: MW
LayerCount: 2
Fore
SplineSet
802 836 m 1,0,-1
 633 -125 l 2,1,2
 614 -232 614 -232 579 -302.5 c 128,-1,3
 544 -373 544 -373 494 -415 c 128,-1,4
 444 -457 444 -457 379.5 -474.5 c 128,-1,5
 315 -492 315 -492 237 -492 c 0,6,7
 205 -492 205 -492 175.5 -487.5 c 128,-1,8
 146 -483 146 -483 119 -477 c 1,9,-1
 146 -324 l 1,10,11
 171 -332 171 -332 198.5 -337 c 128,-1,12
 226 -342 226 -342 257 -342 c 0,13,14
 297 -342 297 -342 328 -332.5 c 128,-1,15
 359 -323 359 -323 382.5 -299 c 128,-1,16
 406 -275 406 -275 422.5 -233.5 c 128,-1,17
 439 -192 439 -192 451 -127 c 2,18,-1
 620 836 l 1,19,-1
 426 836 l 1,20,-1
 440 911 l 1,21,-1
 646 979 l 1,22,-1
 670 1116 l 2,23,24
 689 1223 689 1223 724 1293.5 c 128,-1,25
 759 1364 759 1364 808.5 1406 c 128,-1,26
 858 1448 858 1448 923 1465.5 c 128,-1,27
 988 1483 988 1483 1066 1483 c 0,28,29
 1125 1483 1125 1483 1172.5 1471.5 c 128,-1,30
 1220 1460 1220 1460 1256 1446 c 1,31,-1
 1184 1305 l 1,32,33
 1155 1316 1155 1316 1120.5 1324.5 c 128,-1,34
 1086 1333 1086 1333 1046 1333 c 256,35,36
 1006 1333 1006 1333 975.5 1323.5 c 128,-1,37
 945 1314 945 1314 921 1290 c 128,-1,38
 897 1266 897 1266 880.5 1224.5 c 128,-1,39
 864 1183 864 1183 852 1118 c 2,40,-1
 827 973 l 1,41,-1
 1073 973 l 1,42,-1
 1048 836 l 1,43,-1
 802 836 l 1,0,-1
EndSplineSet
EndChar

StartChar: Ohorn
Encoding: 416 416 323
Width: 1520
GlyphClass: 2
Flags: MW
LayerCount: 2
Fore
SplineSet
1833 1556 m 1,0,-1
 1843 1534 l 1,1,2
 1820 1474 1820 1474 1790.5 1418 c 128,-1,3
 1761 1362 1761 1362 1721 1313.5 c 128,-1,4
 1681 1265 1681 1265 1629.5 1227 c 128,-1,5
 1578 1189 1578 1189 1510 1165 c 1,6,7
 1537 1076 1537 1076 1541 968 c 128,-1,8
 1545 860 1545 860 1522 733 c 0,9,10
 1492 563 1492 563 1427 424.5 c 128,-1,11
 1362 286 1362 286 1265 187 c 128,-1,12
 1168 88 1168 88 1039.5 34 c 128,-1,13
 911 -20 911 -20 756 -20 c 0,14,15
 593 -20 593 -20 483.5 34 c 128,-1,16
 374 88 374 88 312.5 187 c 128,-1,17
 251 286 251 286 238 425.5 c 128,-1,18
 225 565 225 565 255 735 c 256,19,20
 285 905 285 905 347 1043.5 c 128,-1,21
 409 1182 409 1182 505.5 1280 c 128,-1,22
 602 1378 602 1378 731 1431.5 c 128,-1,23
 860 1485 860 1485 1024 1485 c 0,24,25
 1182 1485 1182 1485 1290 1429.5 c 128,-1,26
 1398 1374 1398 1374 1461 1272 c 1,27,28
 1504 1284 1504 1284 1533.5 1310.5 c 128,-1,29
 1563 1337 1563 1337 1582 1374 c 128,-1,30
 1601 1411 1601 1411 1613 1457.5 c 128,-1,31
 1625 1504 1625 1504 1634 1556 c 1,32,-1
 1833 1556 l 1,0,-1
451 733 m 0,33,34
 427 596 427 596 433.5 486.5 c 128,-1,35
 440 377 440 377 480 300.5 c 128,-1,36
 520 224 520 224 595.5 183.5 c 128,-1,37
 671 143 671 143 785 143 c 256,38,39
 899 143 899 143 988.5 183.5 c 128,-1,40
 1078 224 1078 224 1145 300.5 c 128,-1,41
 1212 377 1212 377 1256.5 486.5 c 128,-1,42
 1301 596 1301 596 1325 733 c 0,43,44
 1349 871 1349 871 1343.5 980 c 128,-1,45
 1338 1089 1338 1089 1298.5 1164.5 c 128,-1,46
 1259 1240 1259 1240 1184 1280.5 c 128,-1,47
 1109 1321 1109 1321 995 1321 c 256,48,49
 881 1321 881 1321 791 1280.5 c 128,-1,50
 701 1240 701 1240 633.5 1164.5 c 128,-1,51
 566 1089 566 1089 520.5 980 c 128,-1,52
 475 871 475 871 451 733 c 0,33,34
EndSplineSet
EndChar

StartChar: ohorn
Encoding: 417 417 324
Width: 1194
GlyphClass: 2
Flags: MW
LayerCount: 2
Fore
SplineSet
1166 551 m 0,0,1
 1142 414 1142 414 1089.5 307.5 c 128,-1,2
 1037 201 1037 201 962 128.5 c 128,-1,3
 887 56 887 56 791 18 c 128,-1,4
 695 -20 695 -20 584 -20 c 0,5,6
 481 -20 481 -20 401 18 c 128,-1,7
 321 56 321 56 270 128.5 c 128,-1,8
 219 201 219 201 202.5 307.5 c 128,-1,9
 186 414 186 414 210 551 c 0,10,11
 234 687 234 687 286 792.5 c 128,-1,12
 338 898 338 898 413 970.5 c 128,-1,13
 488 1043 488 1043 584 1080.5 c 128,-1,14
 680 1118 680 1118 791 1118 c 0,15,16
 891 1118 891 1118 969.5 1082.5 c 128,-1,17
 1048 1047 1048 1047 1099 979 c 1,18,19
 1147 992 1147 992 1178 1019.5 c 128,-1,20
 1209 1047 1209 1047 1228 1084.5 c 128,-1,21
 1247 1122 1247 1122 1258 1168.5 c 128,-1,22
 1269 1215 1269 1215 1278 1266 c 1,23,-1
 1476 1266 l 1,24,-1
 1487 1243 l 1,25,26
 1458 1169 1458 1169 1425 1109 c 128,-1,27
 1392 1049 1392 1049 1352 1002 c 128,-1,28
 1312 955 1312 955 1263.5 921.5 c 128,-1,29
 1215 888 1215 888 1154 868 c 1,30,31
 1175 803 1175 803 1179 724 c 128,-1,32
 1183 645 1183 645 1166 551 c 0,0,1
398 551 m 0,33,34
 361 342 361 342 411 236.5 c 128,-1,35
 461 131 461 131 615 131 c 256,36,37
 769 131 769 131 855 236.5 c 128,-1,38
 941 342 941 342 978 551 c 0,39,40
 1015 759 1015 759 965 863 c 128,-1,41
 915 967 915 967 761 967 c 256,42,43
 607 967 607 967 521 863 c 128,-1,44
 435 759 435 759 398 551 c 0,33,34
EndSplineSet
EndChar

StartChar: Uhorn
Encoding: 431 431 325
Width: 1524
GlyphClass: 2
Flags: MW
LayerCount: 2
Fore
SplineSet
1503 1462 m 1,0,-1
 1468 1266 l 1,1,2
 1521 1272 1521 1272 1556.5 1297 c 128,-1,3
 1592 1322 1592 1322 1615 1361 c 128,-1,4
 1638 1400 1638 1400 1651.5 1450 c 128,-1,5
 1665 1500 1665 1500 1675 1556 c 1,6,-1
 1873 1556 l 1,7,-1
 1884 1534 l 1,8,9
 1856 1463 1856 1463 1820 1398 c 128,-1,10
 1784 1333 1784 1333 1732.5 1280.5 c 128,-1,11
 1681 1228 1681 1228 1610 1191 c 128,-1,12
 1539 1154 1539 1154 1446 1139 c 1,13,-1
 1336 516 l 2,14,15
 1316 402 1316 402 1265.5 304 c 128,-1,16
 1215 206 1215 206 1136 134 c 128,-1,17
 1057 62 1057 62 949 21 c 128,-1,18
 841 -20 841 -20 705 -20 c 0,19,20
 577 -20 577 -20 486 18.5 c 128,-1,21
 395 57 395 57 341 128 c 128,-1,22
 287 199 287 199 270.5 298.5 c 128,-1,23
 254 398 254 398 276 520 c 2,24,-1
 442 1462 l 1,25,-1
 629 1462 l 1,26,-1
 461 510 l 2,27,28
 430 334 430 334 499 238.5 c 128,-1,29
 568 143 568 143 744 143 c 0,30,31
 833 143 833 143 902 170 c 128,-1,32
 971 197 971 197 1020.5 246 c 128,-1,33
 1070 295 1070 295 1102 363 c 128,-1,34
 1134 431 1134 431 1149 512 c 2,35,-1
 1317 1462 l 1,36,-1
 1503 1462 l 1,0,-1
EndSplineSet
EndChar

StartChar: uhorn
Encoding: 432 432 326
Width: 1327
GlyphClass: 2
Flags: MW
LayerCount: 2
Fore
SplineSet
885 0 m 1,0,-1
 884 147 l 1,1,-1
 874 147 l 1,2,3
 841 104 841 104 801 72.5 c 128,-1,4
 761 41 761 41 716.5 20.5 c 128,-1,5
 672 0 672 0 624 -10 c 128,-1,6
 576 -20 576 -20 528 -20 c 0,7,8
 437 -20 437 -20 372.5 3 c 128,-1,9
 308 26 308 26 270.5 75 c 128,-1,10
 233 124 233 124 223 200 c 128,-1,11
 213 276 213 276 231 381 c 2,12,-1
 358 1098 l 1,13,-1
 540 1098 l 1,14,-1
 415 391 l 2,15,16
 392 261 392 261 433.5 196 c 128,-1,17
 475 131 475 131 586 131 c 0,18,19
 667 131 667 131 726.5 157 c 128,-1,20
 786 183 786 183 828.5 233.5 c 128,-1,21
 871 284 871 284 898.5 358 c 128,-1,22
 926 432 926 432 943 528 c 2,23,-1
 1044 1098 l 1,24,-1
 1226 1098 l 1,25,-1
 1204 975 l 1,26,27
 1257 981 1257 981 1292.5 1006 c 128,-1,28
 1328 1031 1328 1031 1351 1070 c 128,-1,29
 1374 1109 1374 1109 1387.5 1159.5 c 128,-1,30
 1401 1210 1401 1210 1411 1266 c 1,31,-1
 1609 1266 l 1,32,-1
 1620 1243 l 1,33,34
 1592 1172 1592 1172 1555.5 1104 c 128,-1,35
 1519 1036 1519 1036 1466.5 981.5 c 128,-1,36
 1414 927 1414 927 1344 891 c 128,-1,37
 1274 855 1274 855 1182 848 c 1,38,-1
 1032 0 l 1,39,-1
 885 0 l 1,0,-1
EndSplineSet
EndChar

StartChar: circumflex
Encoding: 710 710 339
Width: 1182
Flags: MW
LayerCount: 2
Fore
SplineSet
1141 1241 m 1,0,-1
 1020 1241 l 1,1,2
 975 1275 975 1275 929.5 1323.5 c 128,-1,3
 884 1372 884 1372 842 1427 c 1,4,5
 778 1372 778 1372 716.5 1323.5 c 128,-1,6
 655 1275 655 1275 598 1241 c 1,7,-1
 477 1241 l 1,8,-1
 482 1268 l 1,9,10
 513 1297 513 1297 553.5 1335 c 128,-1,11
 594 1373 594 1373 634.5 1413.5 c 128,-1,12
 675 1454 675 1454 712 1494.5 c 128,-1,13
 749 1535 749 1535 771 1569 c 1,14,-1
 963 1569 l 1,15,16
 973 1535 973 1535 995 1494.5 c 128,-1,17
 1017 1454 1017 1454 1043.5 1413.5 c 128,-1,18
 1070 1373 1070 1373 1098 1335 c 128,-1,19
 1126 1297 1126 1297 1146 1268 c 1,20,-1
 1141 1241 l 1,0,-1
EndSplineSet
EndChar

StartChar: caron
Encoding: 711 711 340
Width: 1182
Flags: MW
LayerCount: 2
Fore
SplineSet
1194 1542 m 1,0,1
 1164 1513 1164 1513 1122.5 1475 c 128,-1,2
 1081 1437 1081 1437 1040.5 1396.5 c 128,-1,3
 1000 1356 1000 1356 963.5 1316 c 128,-1,4
 927 1276 927 1276 905 1241 c 1,5,-1
 713 1241 l 1,6,7
 703 1276 703 1276 680.5 1316 c 128,-1,8
 658 1356 658 1356 631.5 1396.5 c 128,-1,9
 605 1437 605 1437 578 1475 c 128,-1,10
 551 1513 551 1513 530 1542 c 1,11,-1
 535 1569 l 1,12,-1
 656 1569 l 1,13,14
 701 1535 701 1535 745.5 1486.5 c 128,-1,15
 790 1438 790 1438 834 1382 c 1,16,17
 896 1438 896 1438 958.5 1486.5 c 128,-1,18
 1021 1535 1021 1535 1078 1569 c 1,19,-1
 1199 1569 l 1,20,-1
 1194 1542 l 1,0,1
EndSplineSet
EndChar

StartChar: macron
Encoding: 713 713 341
Width: 1141
Flags: MW
LayerCount: 2
Fore
SplineSet
528 1391 m 1,0,-1
 1103 1391 l 1,1,-1
 1077 1241 l 1,2,-1
 502 1241 l 1,3,-1
 528 1391 l 1,0,-1
EndSplineSet
EndChar

StartChar: breve
Encoding: 728 728 342
Width: 1182
Flags: MW
LayerCount: 2
Fore
SplineSet
1159 1518 m 1,0,1
 1144 1457 1144 1457 1113 1406.5 c 128,-1,2
 1082 1356 1082 1356 1037 1319 c 128,-1,3
 992 1282 992 1282 934 1261.5 c 128,-1,4
 876 1241 876 1241 805 1241 c 0,5,6
 732 1241 732 1241 681 1260.5 c 128,-1,7
 630 1280 630 1280 600 1316.5 c 128,-1,8
 570 1353 570 1353 559.5 1404 c 128,-1,9
 549 1455 549 1455 557 1518 c 1,10,-1
 665 1518 l 1,11,12
 661 1475 661 1475 670.5 1450 c 128,-1,13
 680 1425 680 1425 702 1412.5 c 128,-1,14
 724 1400 724 1400 757 1396.5 c 128,-1,15
 790 1393 790 1393 834 1393 c 0,16,17
 870 1393 870 1393 903 1397.5 c 128,-1,18
 936 1402 936 1402 964 1415.5 c 128,-1,19
 992 1429 992 1429 1013.5 1453.5 c 128,-1,20
 1035 1478 1035 1478 1046 1518 c 1,21,-1
 1159 1518 l 1,0,1
EndSplineSet
EndChar

StartChar: dotaccent
Encoding: 729 729 343
Width: 530
Flags: MW
LayerCount: 2
Fore
SplineSet
406 1395 m 0,0,1
 417 1455 417 1455 452 1482 c 128,-1,2
 487 1509 487 1509 532 1509 c 0,3,4
 554 1509 554 1509 572.5 1502.5 c 128,-1,5
 591 1496 591 1496 603 1482 c 128,-1,6
 615 1468 615 1468 619.5 1446.5 c 128,-1,7
 624 1425 624 1425 619 1395 c 0,8,9
 609 1337 609 1337 572.5 1308.5 c 128,-1,10
 536 1280 536 1280 492 1280 c 0,11,12
 447 1280 447 1280 421.5 1308 c 128,-1,13
 396 1336 396 1336 406 1395 c 0,0,1
EndSplineSet
EndChar

StartChar: ring
Encoding: 730 730 344
Width: 1182
Flags: MW
LayerCount: 2
Fore
SplineSet
1074 1458 m 0,0,1
 1065 1407 1065 1407 1040.5 1366.5 c 128,-1,2
 1016 1326 1016 1326 980.5 1298 c 128,-1,3
 945 1270 945 1270 900.5 1255.5 c 128,-1,4
 856 1241 856 1241 807 1241 c 0,5,6
 757 1241 757 1241 718.5 1255.5 c 128,-1,7
 680 1270 680 1270 655.5 1298 c 128,-1,8
 631 1326 631 1326 622 1365.5 c 128,-1,9
 613 1405 613 1405 622 1456 c 256,10,11
 631 1507 631 1507 654 1546.5 c 128,-1,12
 677 1586 677 1586 711.5 1614 c 128,-1,13
 746 1642 746 1642 789.5 1656.5 c 128,-1,14
 833 1671 833 1671 883 1671 c 0,15,16
 931 1671 931 1671 970.5 1656.5 c 128,-1,17
 1010 1642 1010 1642 1036 1614.5 c 128,-1,18
 1062 1587 1062 1587 1072.5 1547.5 c 128,-1,19
 1083 1508 1083 1508 1074 1458 c 0,0,1
957 1456 m 256,20,21
 966 1509 966 1509 940 1539 c 128,-1,22
 914 1569 914 1569 865 1569 c 0,23,24
 815 1569 815 1569 778 1539 c 128,-1,25
 741 1509 741 1509 732 1456 c 256,26,27
 723 1403 723 1403 746 1373 c 128,-1,28
 769 1343 769 1343 825 1343 c 0,29,30
 874 1343 874 1343 911 1373 c 128,-1,31
 948 1403 948 1403 957 1456 c 256,20,21
EndSplineSet
EndChar

StartChar: ogonek
Encoding: 731 731 345
Width: 379
Flags: MW
LayerCount: 2
Fore
SplineSet
138 -238 m 0,0,1
 130 -283 130 -283 152.5 -304.5 c 128,-1,2
 175 -326 175 -326 209 -326 c 0,3,4
 234 -326 234 -326 256.5 -323.5 c 128,-1,5
 279 -321 279 -321 294 -317 c 1,6,-1
 274 -430 l 1,7,8
 247 -438 247 -438 214 -442 c 128,-1,9
 181 -446 181 -446 152 -446 c 0,10,11
 52 -446 52 -446 11.5 -394 c 128,-1,12
 -29 -342 -29 -342 -13 -252 c 0,13,14
 -6 -210 -6 -210 15.5 -172.5 c 128,-1,15
 37 -135 37 -135 66 -103 c 128,-1,16
 95 -71 95 -71 128 -45 c 128,-1,17
 161 -19 161 -19 190 0 c 1,18,-1
 319 0 l 1,19,20
 157 -133 157 -133 138 -238 c 0,0,1
EndSplineSet
EndChar

StartChar: tilde
Encoding: 732 732 346
Width: 1182
Flags: MW
LayerCount: 2
Fore
SplineSet
985 1243 m 0,0,1
 945 1243 945 1243 908.5 1260.5 c 128,-1,2
 872 1278 872 1278 838 1299.5 c 128,-1,3
 804 1321 804 1321 772 1338.5 c 128,-1,4
 740 1356 740 1356 708 1356 c 0,5,6
 663 1356 663 1356 634.5 1329.5 c 128,-1,7
 606 1303 606 1303 581 1241 c 1,8,-1
 477 1241 l 1,9,10
 493 1301 493 1301 518 1350 c 128,-1,11
 543 1399 543 1399 575.5 1433.5 c 128,-1,12
 608 1468 608 1468 648 1486.5 c 128,-1,13
 688 1505 688 1505 734 1505 c 0,14,15
 776 1505 776 1505 813.5 1487.5 c 128,-1,16
 851 1470 851 1470 885.5 1449 c 128,-1,17
 920 1428 920 1428 951.5 1410.5 c 128,-1,18
 983 1393 983 1393 1012 1393 c 0,19,20
 1057 1393 1057 1393 1084.5 1419 c 128,-1,21
 1112 1445 1112 1445 1138 1507 c 1,22,-1
 1243 1507 l 1,23,24
 1227 1447 1227 1447 1202 1398.5 c 128,-1,25
 1177 1350 1177 1350 1144.5 1315.5 c 128,-1,26
 1112 1281 1112 1281 1071.5 1262 c 128,-1,27
 1031 1243 1031 1243 985 1243 c 0,0,1
EndSplineSet
EndChar

StartChar: hungarumlaut
Encoding: 733 733 347
Width: 1182
Flags: MW
LayerCount: 2
Fore
SplineSet
447 1268 m 1,0,1
 474 1297 474 1297 504 1335 c 128,-1,2
 534 1373 534 1373 564.5 1413.5 c 128,-1,3
 595 1454 595 1454 623.5 1494.5 c 128,-1,4
 652 1535 652 1535 674 1569 c 1,5,-1
 873 1569 l 1,6,-1
 869 1548 l 1,7,8
 848 1521 848 1521 809.5 1480.5 c 128,-1,9
 771 1440 771 1440 724.5 1396 c 128,-1,10
 678 1352 678 1352 630.5 1310.5 c 128,-1,11
 583 1269 583 1269 543 1241 c 1,12,-1
 442 1241 l 1,13,-1
 447 1268 l 1,0,1
810 1268 m 1,14,15
 836 1297 836 1297 866.5 1335 c 128,-1,16
 897 1373 897 1373 927.5 1413.5 c 128,-1,17
 958 1454 958 1454 986.5 1494.5 c 128,-1,18
 1015 1535 1015 1535 1037 1569 c 1,19,-1
 1235 1569 l 1,20,-1
 1231 1548 l 1,21,22
 1210 1521 1210 1521 1171.5 1480.5 c 128,-1,23
 1133 1440 1133 1440 1086.5 1396 c 128,-1,24
 1040 1352 1040 1352 992.5 1310.5 c 128,-1,25
 945 1269 945 1269 905 1241 c 1,26,-1
 805 1241 l 1,27,-1
 810 1268 l 1,14,15
EndSplineSet
EndChar

StartChar: uni02F3
Encoding: 755 755 348
Width: 682
Flags: MW
LayerCount: 2
Fore
SplineSet
507 -338 m 0,0,1
 498 -389 498 -389 473.5 -429.5 c 128,-1,2
 449 -470 449 -470 413.5 -498 c 128,-1,3
 378 -526 378 -526 333.5 -540.5 c 128,-1,4
 289 -555 289 -555 240 -555 c 4,5,6
 190 -555 190 -555 151.5 -540.5 c 132,-1,7
 113 -526 113 -526 88.5 -498 c 128,-1,8
 64 -470 64 -470 55 -430.5 c 128,-1,9
 46 -391 46 -391 55 -340 c 256,10,11
 64 -289 64 -289 87 -249.5 c 128,-1,12
 110 -210 110 -210 144.5 -182 c 128,-1,13
 179 -154 179 -154 222.5 -139.5 c 128,-1,14
 266 -125 266 -125 316 -125 c 0,15,16
 364 -125 364 -125 403.5 -139.5 c 128,-1,17
 443 -154 443 -154 469 -181.5 c 128,-1,18
 495 -209 495 -209 505.5 -248.5 c 128,-1,19
 516 -288 516 -288 507 -338 c 0,0,1
391 -340 m 256,20,21
 400 -287 400 -287 373.5 -257 c 128,-1,22
 347 -227 347 -227 298 -227 c 0,23,24
 248 -227 248 -227 211 -257 c 128,-1,25
 174 -287 174 -287 165 -340 c 256,26,27
 156 -393 156 -393 179 -423 c 128,-1,28
 202 -453 202 -453 258 -453 c 0,29,30
 307 -453 307 -453 344.5 -423 c 128,-1,31
 382 -393 382 -393 391 -340 c 256,20,21
EndSplineSet
EndChar

StartChar: uni0300
Encoding: 768 768 349
Width: 0
Flags: MW
AnchorPoint: "Anchor-32" -268 1241 mark 0
AnchorPoint: "Anchor-1" -268 1241 mark 0
LayerCount: 2
Fore
SplineSet
-268 1241 m 1,0,-1
 -389 1241 l 1,1,2
 -419 1269 -419 1269 -452.5 1310.5 c 128,-1,3
 -486 1352 -486 1352 -516.5 1396 c 128,-1,4
 -547 1440 -547 1440 -572 1480.5 c 128,-1,5
 -597 1521 -597 1521 -608 1548 c 1,6,-1
 -604 1569 l 1,7,-1
 -385 1569 l 1,8,9
 -375 1534 -375 1534 -361 1494 c 128,-1,10
 -347 1454 -347 1454 -331 1413.5 c 128,-1,11
 -315 1373 -315 1373 -297.5 1335 c 128,-1,12
 -280 1297 -280 1297 -263 1268 c 1,13,-1
 -268 1241 l 1,0,-1
EndSplineSet
EndChar

StartChar: uni0301
Encoding: 769 769 350
Width: 0
Flags: MW
AnchorPoint: "Anchor-31" -477 1241 mark 0
AnchorPoint: "Anchor-0" -477 1241 mark 0
LayerCount: 2
Fore
SplineSet
-472 1268 m 1,0,1
 -446 1297 -446 1297 -415.5 1335 c 128,-1,2
 -385 1373 -385 1373 -355 1413.5 c 128,-1,3
 -325 1454 -325 1454 -296.5 1494 c 128,-1,4
 -268 1534 -268 1534 -245 1569 c 1,5,-1
 -26 1569 l 1,6,-1
 -30 1548 l 1,7,8
 -51 1521 -51 1521 -89.5 1480.5 c 128,-1,9
 -128 1440 -128 1440 -174.5 1396 c 128,-1,10
 -221 1352 -221 1352 -269 1310.5 c 128,-1,11
 -317 1269 -317 1269 -356 1241 c 1,12,-1
 -477 1241 l 1,13,-1
 -472 1268 l 1,0,1
EndSplineSet
EndChar

StartChar: hook
Encoding: 777 777 352
Width: 0
Flags: MW
LayerCount: 2
Fore
SplineSet
-128 1491 m 0,0,1
 -135 1452 -135 1452 -153.5 1423 c 128,-1,2
 -172 1394 -172 1394 -198 1373.5 c 128,-1,3
 -224 1353 -224 1353 -256.5 1339.5 c 128,-1,4
 -289 1326 -289 1326 -324 1319 c 1,5,-1
 -354 1208 l 1,6,-1
 -467 1208 l 1,7,-1
 -450 1384 l 1,8,9
 -412 1390 -412 1390 -380.5 1398 c 128,-1,10
 -349 1406 -349 1406 -326 1418 c 128,-1,11
 -303 1430 -303 1430 -288.5 1446.5 c 128,-1,12
 -274 1463 -274 1463 -270 1487 c 256,13,14
 -266 1511 -266 1511 -273.5 1527 c 128,-1,15
 -281 1543 -281 1543 -297.5 1552.5 c 128,-1,16
 -314 1562 -314 1562 -338 1565.5 c 128,-1,17
 -362 1569 -362 1569 -391 1569 c 0,18,19
 -419 1569 -419 1569 -445.5 1567.5 c 128,-1,20
 -472 1566 -472 1566 -488 1563 c 1,21,-1
 -469 1671 l 1,22,23
 -452 1674 -452 1674 -427 1676.5 c 128,-1,24
 -402 1679 -402 1679 -361 1679 c 0,25,26
 -228 1679 -228 1679 -169.5 1633.5 c 128,-1,27
 -111 1588 -111 1588 -128 1491 c 0,0,1
EndSplineSet
EndChar

StartChar: uni030F
Encoding: 783 783 353
Width: 0
Flags: MW
AnchorPoint: "Anchor-18" -338 1241 mark 0
LayerCount: 2
Fore
SplineSet
-107 1241 m 1,0,-1
 -207 1241 l 1,1,2
 -237 1269 -237 1269 -270.5 1310.5 c 128,-1,3
 -304 1352 -304 1352 -334.5 1396 c 128,-1,4
 -365 1440 -365 1440 -389.5 1480.5 c 128,-1,5
 -414 1521 -414 1521 -425 1548 c 1,6,-1
 -421 1569 l 1,7,-1
 -223 1569 l 1,8,9
 -213 1534 -213 1534 -199.5 1494 c 128,-1,10
 -186 1454 -186 1454 -169.5 1413.5 c 128,-1,11
 -153 1373 -153 1373 -135.5 1335 c 128,-1,12
 -118 1297 -118 1297 -102 1268 c 1,13,-1
 -107 1241 l 1,0,-1
-469 1241 m 1,14,-1
 -569 1241 l 1,15,16
 -599 1269 -599 1269 -633 1310.5 c 128,-1,17
 -667 1352 -667 1352 -697.5 1396 c 128,-1,18
 -728 1440 -728 1440 -752.5 1480.5 c 128,-1,19
 -777 1521 -777 1521 -788 1548 c 1,20,-1
 -784 1569 l 1,21,-1
 -585 1569 l 1,22,23
 -575 1534 -575 1534 -561.5 1494 c 128,-1,24
 -548 1454 -548 1454 -531.5 1413.5 c 128,-1,25
 -515 1373 -515 1373 -497.5 1335 c 128,-1,26
 -480 1297 -480 1297 -464 1268 c 1,27,-1
 -469 1241 l 1,14,-1
EndSplineSet
EndChar

StartChar: dotbelow
Encoding: 803 803 354
Width: 0
Flags: MW
AnchorPoint: "Anchor-3" -635 -131 mark 0
LayerCount: 2
Fore
SplineSet
-762 -246 m 0,0,1
 -751 -186 -751 -186 -715.5 -158.5 c 128,-1,2
 -680 -131 -680 -131 -635 -131 c 0,3,4
 -592 -131 -592 -131 -565.5 -158.5 c 128,-1,5
 -539 -186 -539 -186 -549 -246 c 0,6,7
 -554 -275 -554 -275 -566.5 -296.5 c 128,-1,8
 -579 -318 -579 -318 -596 -332 c 128,-1,9
 -613 -346 -613 -346 -633.5 -353 c 128,-1,10
 -654 -360 -654 -360 -675 -360 c 0,11,12
 -720 -360 -720 -360 -746 -332.5 c 128,-1,13
 -772 -305 -772 -305 -762 -246 c 0,0,1
EndSplineSet
EndChar

StartChar: tonos
Encoding: 900 900 355
Width: 1182
GlyphClass: 2
Flags: MW
LayerCount: 2
Fore
SplineSet
728 1268 m 1,0,1
 743 1298 743 1298 759.5 1336.5 c 128,-1,2
 776 1375 776 1375 793 1415.5 c 128,-1,3
 810 1456 810 1456 825 1496 c 128,-1,4
 840 1536 840 1536 850 1569 c 1,5,-1
 1049 1569 l 1,6,-1
 1045 1548 l 1,7,8
 1035 1524 1035 1524 1011.5 1485 c 128,-1,9
 988 1446 988 1446 958 1402.5 c 128,-1,10
 928 1359 928 1359 894 1316 c 128,-1,11
 860 1273 860 1273 831 1241 c 1,12,-1
 723 1241 l 1,13,-1
 728 1268 l 1,0,1
EndSplineSet
EndChar

StartChar: dieresistonos
Encoding: 901 901 356
Width: 1182
GlyphClass: 2
Flags: MW
LayerCount: 2
Fore
SplineSet
757 1403 m 5,0,1
 773 1433 773 1433 792.5 1470.5 c 132,-1,2
 812 1508 812 1508 831 1547.5 c 132,-1,3
 850 1587 850 1587 868 1627.5 c 132,-1,4
 886 1668 886 1668 900 1704 c 5,5,-1
 1107 1704 l 5,6,-1
 1104 1684 l 5,7,8
 1080 1652 1080 1652 1049.5 1613.5 c 132,-1,9
 1019 1575 1019 1575 984 1535 c 132,-1,10
 949 1495 949 1495 911 1454.5 c 132,-1,11
 873 1414 873 1414 835 1377 c 5,12,-1
 753 1377 l 5,13,-1
 757 1403 l 5,0,1
520 1383 m 4,14,15
 530 1437 530 1437 562 1461 c 132,-1,16
 594 1485 594 1485 635 1485 c 4,17,18
 654 1485 654 1485 670.5 1479 c 132,-1,19
 687 1473 687 1473 697.5 1460.5 c 132,-1,20
 708 1448 708 1448 713 1429 c 132,-1,21
 718 1410 718 1410 713 1383 c 4,22,23
 704 1330 704 1330 670.5 1305 c 132,-1,24
 637 1280 637 1280 599 1280 c 4,25,26
 558 1280 558 1280 534.5 1305 c 132,-1,27
 511 1330 511 1330 520 1383 c 4,14,15
957 1383 m 4,28,29
 967 1437 967 1437 999 1461 c 132,-1,30
 1031 1485 1031 1485 1071 1485 c 4,31,32
 1090 1485 1090 1485 1106.5 1479 c 132,-1,33
 1123 1473 1123 1473 1133.5 1460.5 c 132,-1,34
 1144 1448 1144 1448 1149 1429 c 132,-1,35
 1154 1410 1154 1410 1149 1383 c 4,36,37
 1140 1330 1140 1330 1106.5 1305 c 132,-1,38
 1073 1280 1073 1280 1035 1280 c 4,39,40
 995 1280 995 1280 971.5 1305 c 132,-1,41
 948 1330 948 1330 957 1383 c 4,28,29
EndSplineSet
EndChar

StartChar: anoteleia
Encoding: 903 903 358
Width: 549
GlyphClass: 2
Flags: MW
LayerCount: 2
Fore
SplineSet
274 723 m 0,0,1
 281 761 281 761 296 787.5 c 128,-1,2
 311 814 311 814 330.5 830.5 c 128,-1,3
 350 847 350 847 374.5 854.5 c 128,-1,4
 399 862 399 862 426 862 c 0,5,6
 452 862 452 862 474 854.5 c 128,-1,7
 496 847 496 847 510.5 830.5 c 128,-1,8
 525 814 525 814 530 787.5 c 128,-1,9
 535 761 535 761 528 723 c 0,10,11
 521 686 521 686 507 660 c 128,-1,12
 493 634 493 634 473 617 c 128,-1,13
 453 600 453 600 428 592 c 128,-1,14
 403 584 403 584 377 584 c 0,15,16
 350 584 350 584 328.5 592 c 128,-1,17
 307 600 307 600 293 617 c 128,-1,18
 279 634 279 634 273 660 c 128,-1,19
 267 686 267 686 274 723 c 0,0,1
EndSplineSet
EndChar

StartChar: Gamma
Encoding: 915 915 368
Width: 1006
GlyphClass: 2
Flags: MW
LayerCount: 2
Fore
SplineSet
1216 1462 m 1,0,-1
 1187 1296 l 1,1,-1
 614 1296 l 1,2,-1
 385 0 l 1,3,-1
 199 0 l 1,4,-1
 457 1462 l 1,5,-1
 1216 1462 l 1,0,-1
EndSplineSet
EndChar

StartChar: uni0394
Encoding: 916 916 369
Width: 1163
GlyphClass: 2
Flags: MW
LayerCount: 2
Fore
SplineSet
1150 125 m 1,0,-1
 1128 0 l 1,1,-1
 37 0 l 1,2,-1
 60 133 l 1,3,-1
 745 1462 l 1,4,-1
 932 1462 l 1,5,-1
 1150 125 l 1,0,-1
802 1257 m 1,6,7
 772 1183 772 1183 736 1099 c 128,-1,8
 700 1015 700 1015 655 924 c 2,9,-1
 267 166 l 1,10,-1
 953 166 l 1,11,-1
 834 918 l 2,12,13
 820 1015 820 1015 812 1099 c 128,-1,14
 804 1183 804 1183 802 1257 c 1,6,7
EndSplineSet
EndChar

StartChar: Theta
Encoding: 920 920 373
Width: 1520
GlyphClass: 2
Flags: MW
LayerCount: 2
Fore
SplineSet
637 825 m 1,0,-1
 1171 825 l 1,1,-1
 1143 664 l 1,2,-1
 609 664 l 1,3,-1
 637 825 l 1,0,-1
1522 733 m 0,4,5
 1492 564 1492 564 1427 425 c 128,-1,6
 1362 286 1362 286 1265 187 c 128,-1,7
 1168 88 1168 88 1039.5 34 c 128,-1,8
 911 -20 911 -20 756 -20 c 0,9,10
 593 -20 593 -20 483.5 34 c 128,-1,11
 374 88 374 88 312.5 187 c 128,-1,12
 251 286 251 286 238 425.5 c 128,-1,13
 225 565 225 565 255 735 c 256,14,15
 285 905 285 905 347 1043.5 c 128,-1,16
 409 1182 409 1182 505.5 1280 c 128,-1,17
 602 1378 602 1378 731.5 1431.5 c 128,-1,18
 861 1485 861 1485 1024 1485 c 0,19,20
 1179 1485 1179 1485 1287 1431.5 c 128,-1,21
 1395 1378 1395 1378 1457.5 1279.5 c 128,-1,22
 1520 1181 1520 1181 1536 1042.5 c 128,-1,23
 1552 904 1552 904 1522 733 c 0,4,5
451 733 m 0,24,25
 427 596 427 596 433.5 486.5 c 128,-1,26
 440 377 440 377 480 300.5 c 128,-1,27
 520 224 520 224 595.5 183.5 c 128,-1,28
 671 143 671 143 785 143 c 256,29,30
 899 143 899 143 988.5 183.5 c 128,-1,31
 1078 224 1078 224 1145 300.5 c 128,-1,32
 1212 377 1212 377 1256.5 486.5 c 128,-1,33
 1301 596 1301 596 1325 733 c 0,34,35
 1349 871 1349 871 1343.5 980 c 128,-1,36
 1338 1089 1338 1089 1298.5 1164.5 c 128,-1,37
 1259 1240 1259 1240 1184 1280.5 c 128,-1,38
 1109 1321 1109 1321 995 1321 c 256,39,40
 881 1321 881 1321 791 1280.5 c 128,-1,41
 701 1240 701 1240 633.5 1164.5 c 128,-1,42
 566 1089 566 1089 520.5 980 c 128,-1,43
 475 871 475 871 451 733 c 0,24,25
EndSplineSet
EndChar

StartChar: Lambda
Encoding: 923 923 376
Width: 1163
GlyphClass: 2
Flags: MW
LayerCount: 2
Fore
SplineSet
1163 0 m 1,0,-1
 965 0 l 1,1,-1
 835 922 l 2,2,3
 821 1019 821 1019 812.5 1103 c 128,-1,4
 804 1187 804 1187 803 1262 c 1,5,6
 773 1187 773 1187 737 1103 c 128,-1,7
 701 1019 701 1019 656 928 c 2,8,-1
 197 0 l 1,9,-1
 0 0 l 1,10,-1
 745 1462 l 1,11,-1
 932 1462 l 1,12,-1
 1163 0 l 1,0,-1
EndSplineSet
EndChar

StartChar: Xi
Encoding: 926 926 379
Width: 1087
GlyphClass: 2
Flags: MW
LayerCount: 2
Fore
SplineSet
354 846 m 1,0,-1
 1032 846 l 1,1,-1
 1004 684 l 1,2,-1
 326 684 l 1,3,-1
 354 846 l 1,0,-1
381 1462 m 1,4,-1
 1223 1462 l 1,5,-1
 1194 1298 l 1,6,-1
 352 1298 l 1,7,-1
 381 1462 l 1,4,-1
1035 164 m 1,8,-1
 1006 0 l 1,9,-1
 82 0 l 1,10,-1
 111 164 l 1,11,-1
 1035 164 l 1,8,-1
EndSplineSet
EndChar

StartChar: Pi
Encoding: 928 928 381
Width: 1415
GlyphClass: 2
Flags: MW
LayerCount: 2
Fore
SplineSet
1217 0 m 1,0,-1
 1030 0 l 1,1,-1
 1259 1298 l 1,2,-1
 614 1298 l 1,3,-1
 385 0 l 1,4,-1
 199 0 l 1,5,-1
 457 1462 l 1,6,-1
 1475 1462 l 1,7,-1
 1217 0 l 1,0,-1
EndSplineSet
EndChar

StartChar: Sigma
Encoding: 931 931 383
Width: 1090
GlyphClass: 2
Flags: MW
LayerCount: 2
Fore
SplineSet
78 0 m 1,0,-1
 105 152 l 1,1,-1
 627 766 l 1,2,-1
 322 1315 l 1,3,-1
 348 1462 l 1,4,-1
 1241 1462 l 1,5,-1
 1212 1298 l 1,6,-1
 532 1298 l 1,7,-1
 827 768 l 1,8,-1
 312 164 l 1,9,-1
 1071 164 l 1,10,-1
 1042 0 l 1,11,-1
 78 0 l 1,0,-1
EndSplineSet
EndChar

StartChar: Phi
Encoding: 934 934 386
Width: 1571
GlyphClass: 2
Flags: MW
LayerCount: 2
Fore
SplineSet
953 1483 m 1,0,-1
 1140 1483 l 1,1,-1
 1109 1303 l 1,2,-1
 1182 1303 l 2,3,4
 1316 1303 1316 1303 1404.5 1256 c 128,-1,5
 1493 1209 1493 1209 1542.5 1132.5 c 128,-1,6
 1592 1056 1592 1056 1605 958 c 128,-1,7
 1618 860 1618 860 1600 758 c 0,8,9
 1589 697 1589 697 1565.5 632.5 c 128,-1,10
 1542 568 1542 568 1505 506.5 c 128,-1,11
 1468 445 1468 445 1416.5 390 c 128,-1,12
 1365 335 1365 335 1298 294 c 128,-1,13
 1231 253 1231 253 1147 229 c 128,-1,14
 1063 205 1063 205 962 205 c 2,15,-1
 915 205 l 1,16,-1
 875 -20 l 1,17,-1
 688 -20 l 1,18,-1
 728 205 l 1,19,-1
 681 205 l 2,20,21
 580 205 580 205 505 229 c 128,-1,22
 430 253 430 253 377 294 c 128,-1,23
 324 335 324 335 291.5 390 c 128,-1,24
 259 445 259 445 243.5 506.5 c 128,-1,25
 228 568 228 568 227.5 632.5 c 128,-1,26
 227 697 227 697 238 758 c 0,27,28
 256 860 256 860 303.5 958 c 128,-1,29
 351 1056 351 1056 427.5 1132.5 c 128,-1,30
 504 1209 504 1209 609.5 1256 c 128,-1,31
 715 1303 715 1303 848 1303 c 2,32,-1
 922 1303 l 1,33,-1
 953 1483 l 1,0,-1
943 362 m 1,34,-1
 969 362 l 2,35,36
 1062 362 1062 362 1136.5 391.5 c 128,-1,37
 1211 421 1211 421 1266 473.5 c 128,-1,38
 1321 526 1321 526 1357 600 c 128,-1,39
 1393 674 1393 674 1408 762 c 0,40,41
 1422 840 1422 840 1414 909.5 c 128,-1,42
 1406 979 1406 979 1373.5 1031 c 128,-1,43
 1341 1083 1341 1083 1283 1113 c 128,-1,44
 1225 1143 1225 1143 1138 1143 c 2,45,-1
 1081 1143 l 1,46,-1
 943 362 l 1,34,-1
894 1143 m 1,47,-1
 837 1143 l 2,48,49
 750 1143 750 1143 681 1113 c 128,-1,50
 612 1083 612 1083 561 1031 c 128,-1,51
 510 979 510 979 477.5 909.5 c 128,-1,52
 445 840 445 840 431 762 c 0,53,54
 415 674 415 674 425.5 600 c 128,-1,55
 436 526 436 526 472 473.5 c 128,-1,56
 508 421 508 421 572.5 391.5 c 128,-1,57
 637 362 637 362 730 362 c 2,58,-1
 756 362 l 1,59,-1
 894 1143 l 1,47,-1
EndSplineSet
EndChar

StartChar: Psi
Encoding: 936 936 388
Width: 1571
GlyphClass: 2
Flags: MW
LayerCount: 2
Fore
SplineSet
1639 983 m 2,0,1
 1628 922 1628 922 1605 858.5 c 128,-1,2
 1582 795 1582 795 1545.5 735.5 c 128,-1,3
 1509 676 1509 676 1458 623 c 128,-1,4
 1407 570 1407 570 1340 531 c 128,-1,5
 1273 492 1273 492 1189.5 469 c 128,-1,6
 1106 446 1106 446 1005 446 c 2,7,-1
 958 446 l 1,8,-1
 879 0 l 1,9,-1
 692 0 l 1,10,-1
 771 446 l 1,11,-1
 724 446 l 2,12,13
 623 446 623 446 547.5 468.5 c 128,-1,14
 472 491 472 491 418.5 530 c 128,-1,15
 365 569 365 569 332.5 621 c 128,-1,16
 300 673 300 673 284 732.5 c 128,-1,17
 268 792 268 792 267 855 c 128,-1,18
 266 918 266 918 277 979 c 2,19,-1
 362 1462 l 1,20,-1
 555 1462 l 1,21,-1
 470 983 l 2,22,23
 454 895 454 895 465 824.5 c 128,-1,24
 476 754 476 754 513 705 c 128,-1,25
 550 656 550 656 615 630 c 128,-1,26
 680 604 680 604 773 604 c 2,27,-1
 799 604 l 1,28,-1
 950 1462 l 1,29,-1
 1137 1462 l 1,30,-1
 986 604 l 1,31,-1
 1012 604 l 2,32,33
 1198 604 1198 604 1306.5 703 c 128,-1,34
 1415 802 1415 802 1447 979 c 2,35,-1
 1532 1462 l 1,36,-1
 1724 1462 l 1,37,-1
 1639 983 l 2,0,1
EndSplineSet
EndChar

StartChar: uni03A9
Encoding: 937 937 389
Width: 1520
GlyphClass: 2
Flags: MW
LayerCount: 2
Fore
SplineSet
995 1321 m 256,0,1
 881 1321 881 1321 793 1287 c 128,-1,2
 705 1253 705 1253 640.5 1188.5 c 128,-1,3
 576 1124 576 1124 534.5 1031 c 128,-1,4
 493 938 493 938 473 821 c 0,5,6
 455 721 455 721 456 627.5 c 128,-1,7
 457 534 457 534 482.5 448.5 c 128,-1,8
 508 363 508 363 560 287.5 c 128,-1,9
 612 212 612 212 696 147 c 1,10,-1
 670 0 l 1,11,-1
 78 0 l 1,12,-1
 107 164 l 1,13,-1
 461 164 l 1,14,15
 405 212 405 212 361.5 279.5 c 128,-1,16
 318 347 318 347 293 431 c 128,-1,17
 268 515 268 515 262.5 614.5 c 128,-1,18
 257 714 257 714 276 825 c 0,19,20
 302 975 302 975 364.5 1097 c 128,-1,21
 427 1219 427 1219 522 1305 c 128,-1,22
 617 1391 617 1391 743.5 1438 c 128,-1,23
 870 1485 870 1485 1024 1485 c 0,24,25
 1179 1485 1179 1485 1288 1438 c 128,-1,26
 1397 1391 1397 1391 1462 1305 c 128,-1,27
 1527 1219 1527 1219 1546 1097 c 128,-1,28
 1565 975 1565 975 1538 825 c 0,29,30
 1518 714 1518 714 1478 614.5 c 128,-1,31
 1438 515 1438 515 1383 431 c 128,-1,32
 1328 347 1328 347 1261 279.5 c 128,-1,33
 1194 212 1194 212 1121 164 c 1,34,-1
 1475 164 l 1,35,-1
 1446 0 l 1,36,-1
 854 0 l 1,37,-1
 880 147 l 1,38,39
 986 212 986 212 1065 287.5 c 128,-1,40
 1144 363 1144 363 1199.5 448.5 c 128,-1,41
 1255 534 1255 534 1289 627.5 c 128,-1,42
 1323 721 1323 721 1341 821 c 0,43,44
 1362 938 1362 938 1353 1031 c 128,-1,45
 1344 1124 1344 1124 1302.5 1188.5 c 128,-1,46
 1261 1253 1261 1253 1185 1287 c 128,-1,47
 1109 1321 1109 1321 995 1321 c 256,0,1
EndSplineSet
EndChar

StartChar: alpha
Encoding: 945 945 397
Width: 1200
GlyphClass: 2
Flags: MW
LayerCount: 2
Fore
SplineSet
588 131 m 0,0,1
 664 131 664 131 720.5 154.5 c 128,-1,2
 777 178 777 178 818.5 227 c 128,-1,3
 860 276 860 276 888.5 352 c 128,-1,4
 917 428 917 428 938 532 c 2,5,-1
 940 547 l 2,6,7
 958 648 958 648 958.5 726.5 c 128,-1,8
 959 805 959 805 936 858.5 c 128,-1,9
 913 912 913 912 864 939.5 c 128,-1,10
 815 967 815 967 734 967 c 0,11,12
 599 967 599 967 516 858 c 128,-1,13
 433 749 433 749 397 545 c 0,14,15
 360 336 360 336 405.5 233.5 c 128,-1,16
 451 131 451 131 588 131 c 0,0,1
526 -20 m 0,17,18
 433 -20 433 -20 362.5 16 c 128,-1,19
 292 52 292 52 249.5 123.5 c 128,-1,20
 207 195 207 195 196 301 c 128,-1,21
 185 407 185 407 209 547 c 0,22,23
 234 688 234 688 283.5 794.5 c 128,-1,24
 333 901 333 901 402 973 c 128,-1,25
 471 1045 471 1045 558.5 1081.5 c 128,-1,26
 646 1118 646 1118 746 1118 c 0,27,28
 858 1118 858 1118 922.5 1076.5 c 128,-1,29
 987 1035 987 1035 1022 950 c 1,30,-1
 1034 950 l 1,31,32
 1050 985 1050 985 1073.5 1026 c 128,-1,33
 1097 1067 1097 1067 1128 1098 c 1,34,-1
 1271 1098 l 1,35,36
 1254 1065 1254 1065 1235 1013 c 128,-1,37
 1216 961 1216 961 1199 900.5 c 128,-1,38
 1182 840 1182 840 1167 777 c 128,-1,39
 1152 714 1152 714 1142 659 c 2,40,-1
 1068 240 l 2,41,42
 1057 180 1057 180 1078 154.5 c 128,-1,43
 1099 129 1099 129 1133 129 c 0,44,45
 1147 129 1147 129 1166 132.5 c 128,-1,46
 1185 136 1185 136 1194 139 c 1,47,-1
 1170 6 l 1,48,49
 1153 -3 1153 -3 1119 -11.5 c 128,-1,50
 1085 -20 1085 -20 1051 -20 c 0,51,52
 1013 -20 1013 -20 983 -12 c 128,-1,53
 953 -4 953 -4 931.5 15.5 c 128,-1,54
 910 35 910 35 897.5 67 c 128,-1,55
 885 99 885 99 882 147 c 1,56,-1
 870 147 l 1,57,58
 842 113 842 113 807 82.5 c 128,-1,59
 772 52 772 52 729.5 29 c 128,-1,60
 687 6 687 6 636.5 -7 c 128,-1,61
 586 -20 586 -20 526 -20 c 0,17,18
EndSplineSet
EndChar

StartChar: beta
Encoding: 946 946 398
Width: 1233
GlyphClass: 2
Flags: MW
LayerCount: 2
Fore
SplineSet
907 1567 m 0,0,1
 1003 1567 1003 1567 1080.5 1542.5 c 128,-1,2
 1158 1518 1158 1518 1208 1469 c 128,-1,3
 1258 1420 1258 1420 1278.5 1346 c 128,-1,4
 1299 1272 1299 1272 1282 1174 c 0,5,6
 1256 1025 1256 1025 1164.5 938.5 c 128,-1,7
 1073 852 1073 852 926 829 c 1,8,-1
 925 823 l 1,9,10
 1097 802 1097 802 1172 701 c 128,-1,11
 1247 600 1247 600 1214 414 c 0,12,13
 1195 306 1195 306 1149 225 c 128,-1,14
 1103 144 1103 144 1033.5 89.5 c 128,-1,15
 964 35 964 35 872.5 7.5 c 128,-1,16
 781 -20 781 -20 672 -20 c 0,17,18
 576 -20 576 -20 497 -4 c 128,-1,19
 418 12 418 12 364 43 c 1,20,-1
 269 -492 l 1,21,-1
 87 -492 l 1,22,-1
 367 1096 l 2,23,24
 389 1219 389 1219 439 1308 c 128,-1,25
 489 1397 489 1397 560 1454.5 c 128,-1,26
 631 1512 631 1512 719.5 1539.5 c 128,-1,27
 808 1567 808 1567 907 1567 c 0,0,1
881 1417 m 0,28,29
 825 1417 825 1417 772 1401.5 c 128,-1,30
 719 1386 719 1386 675 1348 c 128,-1,31
 631 1310 631 1310 598 1246.5 c 128,-1,32
 565 1183 565 1183 548 1087 c 2,33,-1
 393 209 l 1,34,35
 422 191 422 191 458 176 c 128,-1,36
 494 161 494 161 533.5 150.5 c 128,-1,37
 573 140 573 140 613 134.5 c 128,-1,38
 653 129 653 129 689 129 c 0,39,40
 769 129 769 129 828 149 c 128,-1,41
 887 169 887 169 928.5 207.5 c 128,-1,42
 970 246 970 246 995.5 301.5 c 128,-1,43
 1021 357 1021 357 1033 428 c 0,44,45
 1047 508 1047 508 1031 566.5 c 128,-1,46
 1015 625 1015 625 974 663.5 c 128,-1,47
 933 702 933 702 870 720.5 c 128,-1,48
 807 739 807 739 728 739 c 2,49,-1
 626 739 l 1,50,-1
 653 891 l 1,51,-1
 730 891 l 2,52,53
 812 891 812 891 875 911 c 128,-1,54
 938 931 938 931 983.5 967.5 c 128,-1,55
 1029 1004 1029 1004 1056.5 1055 c 128,-1,56
 1084 1106 1084 1106 1095 1167 c 0,57,58
 1106 1230 1106 1230 1095 1277 c 128,-1,59
 1084 1324 1084 1324 1055.5 1355 c 128,-1,60
 1027 1386 1027 1386 982.5 1401.5 c 128,-1,61
 938 1417 938 1417 881 1417 c 0,28,29
EndSplineSet
EndChar

StartChar: gamma
Encoding: 947 947 399
Width: 1001
GlyphClass: 2
Flags: MW
LayerCount: 2
Fore
SplineSet
611 18 m 2,0,1
 578 -44 578 -44 549 -112 c 128,-1,2
 520 -180 520 -180 496.5 -247 c 128,-1,3
 473 -314 473 -314 455.5 -377 c 128,-1,4
 438 -440 438 -440 429 -492 c 1,5,-1
 239 -492 l 1,6,7
 246 -450 246 -450 264.5 -389.5 c 128,-1,8
 283 -329 283 -329 308.5 -260.5 c 128,-1,9
 334 -192 334 -192 365 -121.5 c 128,-1,10
 396 -51 396 -51 428 12 c 1,11,-1
 204 1098 l 1,12,-1
 393 1098 l 1,13,-1
 507 516 l 2,14,15
 514 476 514 476 521 429.5 c 128,-1,16
 528 383 528 383 533 338 c 128,-1,17
 538 293 538 293 541 253 c 128,-1,18
 544 213 544 213 543 186 c 1,19,-1
 549 186 l 1,20,21
 559 212 559 212 576 253 c 128,-1,22
 593 294 593 294 613.5 340.5 c 128,-1,23
 634 387 634 387 655.5 432 c 128,-1,24
 677 477 677 477 694 510 c 2,25,-1
 997 1098 l 1,26,-1
 1185 1098 l 1,27,-1
 611 18 l 2,0,1
EndSplineSet
EndChar

StartChar: delta
Encoding: 948 948 400
Width: 1182
GlyphClass: 2
Flags: MW
LayerCount: 2
Fore
SplineSet
697 938 m 1,0,1
 647 970 647 970 607 1007.5 c 128,-1,2
 567 1045 567 1045 541 1088 c 128,-1,3
 515 1131 515 1131 505.5 1180 c 128,-1,4
 496 1229 496 1229 506 1286 c 0,5,6
 519 1358 519 1358 553.5 1410.5 c 128,-1,7
 588 1463 588 1463 640 1498 c 128,-1,8
 692 1533 692 1533 757.5 1550 c 128,-1,9
 823 1567 823 1567 897 1567 c 0,10,11
 965 1567 965 1567 1020 1557 c 128,-1,12
 1075 1547 1075 1547 1120 1531.5 c 128,-1,13
 1165 1516 1165 1516 1202 1496.5 c 128,-1,14
 1239 1477 1239 1477 1271 1458 c 1,15,-1
 1172 1313 l 1,16,17
 1144 1333 1144 1333 1110.5 1352 c 128,-1,18
 1077 1371 1077 1371 1039 1386 c 128,-1,19
 1001 1401 1001 1401 957 1410 c 128,-1,20
 913 1419 913 1419 862 1419 c 0,21,22
 820 1419 820 1419 788 1407.5 c 128,-1,23
 756 1396 756 1396 733.5 1377.5 c 128,-1,24
 711 1359 711 1359 697.5 1334 c 128,-1,25
 684 1309 684 1309 679 1282 c 0,26,27
 672 1245 672 1245 680.5 1214 c 128,-1,28
 689 1183 689 1183 713.5 1152.5 c 128,-1,29
 738 1122 738 1122 781 1089.5 c 128,-1,30
 824 1057 824 1057 888 1016 c 0,31,32
 964 967 964 967 1021.5 913 c 128,-1,33
 1079 859 1079 859 1114 796 c 128,-1,34
 1149 733 1149 733 1160.5 659.5 c 128,-1,35
 1172 586 1172 586 1157 498 c 0,36,37
 1135 371 1135 371 1083 274.5 c 128,-1,38
 1031 178 1031 178 956 112.5 c 128,-1,39
 881 47 881 47 786 13.5 c 128,-1,40
 691 -20 691 -20 582 -20 c 0,41,42
 479 -20 479 -20 397.5 10.5 c 128,-1,43
 316 41 316 41 263 99.5 c 128,-1,44
 210 158 210 158 189.5 243 c 128,-1,45
 169 328 169 328 188 438 c 0,46,47
 207 544 207 544 255 625.5 c 128,-1,48
 303 707 303 707 370.5 768 c 128,-1,49
 438 829 438 829 521.5 870.5 c 128,-1,50
 605 912 605 912 697 938 c 1,0,1
966 481 m 0,51,52
 978 550 978 550 973 605.5 c 128,-1,53
 968 661 968 661 947 705.5 c 128,-1,54
 926 750 926 750 891.5 786.5 c 128,-1,55
 857 823 857 823 810 854 c 1,56,57
 749 838 749 838 681 809 c 128,-1,58
 613 780 613 780 552 731 c 128,-1,59
 491 682 491 682 444.5 609.5 c 128,-1,60
 398 537 398 537 380 434 c 0,61,62
 368 368 368 368 377 312.5 c 128,-1,63
 386 257 386 257 415.5 216.5 c 128,-1,64
 445 176 445 176 493.5 153.5 c 128,-1,65
 542 131 542 131 609 131 c 0,66,67
 751 131 751 131 843.5 221 c 128,-1,68
 936 311 936 311 966 481 c 0,51,52
EndSplineSet
EndChar

